<svg width="152" height="28" viewBox="0 0 152 28" fill="none" xmlns="http://www.w3.org/2000/svg">
<path d="M7.52844 15V0.999999H9.40844V13.27H15.6684V15H7.52844ZM18.2902 15V0.999999H27.0702V2.68H20.1702V6.85H26.1802V8.46H20.1702V13.31H27.1302V15H18.2902ZM28.7795 15L34.2895 0.999999H36.2395L41.9195 15H39.7995L38.4095 11.49H32.1695L30.8395 15H28.7795ZM32.6995 9.85H37.8595L35.2195 3.33L32.6995 9.85ZM44.0519 15V0.999999H48.2919C49.6652 0.999999 50.8785 1.3 51.9319 1.9C52.9919 2.49333 53.8219 3.32 54.4219 4.38C55.0219 5.43333 55.3219 6.64333 55.3219 8.01C55.3219 9.03 55.1485 9.96667 54.8019 10.82C54.4619 11.6733 53.9785 12.4133 53.3519 13.04C52.7252 13.66 51.9819 14.1433 51.1219 14.49C50.2619 14.83 49.3185 15 48.2919 15H44.0519ZM45.9319 13.25H47.9819C48.7952 13.25 49.5285 13.13 50.1819 12.89C50.8419 12.6433 51.4085 12.2933 51.8819 11.84C52.3552 11.38 52.7185 10.83 52.9719 10.19C53.2319 9.54333 53.3619 8.81667 53.3619 8.01C53.3619 6.93667 53.1385 6.00667 52.6919 5.22C52.2452 4.42667 51.6185 3.81667 50.8119 3.39C50.0119 2.96333 49.0685 2.75 47.9819 2.75H45.9319V13.25ZM58.212 15V0.999999H66.992V2.68H60.092V6.85H66.102V8.46H60.092V13.31H67.052V15H58.212ZM70.3214 15V0.999999H75.4814C76.4281 0.999999 77.2447 1.16667 77.9314 1.5C78.6247 1.83333 79.1581 2.31 79.5314 2.93C79.9114 3.54333 80.1014 4.26667 80.1014 5.1C80.1014 5.8 79.9481 6.42 79.6414 6.96C79.3347 7.49333 78.9014 7.93 78.3414 8.27C77.7814 8.61 77.1281 8.83667 76.3814 8.95L80.7514 15H78.4514L74.3314 9.19H72.2014V15H70.3214ZM72.2014 7.58H75.1214C76.0947 7.58 76.8514 7.37 77.3914 6.95C77.9381 6.53 78.2114 5.93667 78.2114 5.17C78.2114 4.38333 77.9714 3.76333 77.4914 3.31C77.0114 2.85667 76.2847 2.63 75.3114 2.63H72.2014V7.58ZM83.4659 15V0.999999H88.0659C89.3793 0.999999 90.4426 1.3 91.2559 1.9C92.0759 2.49333 92.4859 3.37 92.4859 4.53C92.4859 4.97667 92.3759 5.40667 92.1559 5.82C91.9359 6.22667 91.6526 6.58333 91.3059 6.89C90.9659 7.19667 90.6126 7.41333 90.2459 7.54C91.0126 7.76667 91.6559 8.19 92.1759 8.81C92.7026 9.43 92.9659 10.2 92.9659 11.12C92.9659 11.8733 92.7759 12.54 92.3959 13.12C92.0226 13.7 91.4859 14.16 90.7859 14.5C90.0926 14.8333 89.2693 15 88.3159 15H83.4659ZM85.3459 13.46H87.9759C89.0093 13.46 89.7759 13.26 90.2759 12.86C90.7826 12.46 91.0359 11.8467 91.0359 11.02C91.0359 10.2133 90.7793 9.6 90.2659 9.18C89.7593 8.75333 88.9659 8.54 87.8859 8.54H85.3459V13.46ZM85.3459 7.06H87.7559C88.3359 7.06 88.8426 6.96667 89.2759 6.78C89.7093 6.59333 90.0426 6.32667 90.2759 5.98C90.5159 5.62667 90.6359 5.20333 90.6359 4.71C90.6359 4.00333 90.3826 3.46333 89.8759 3.09C89.3759 2.71667 88.6593 2.53 87.7259 2.53H85.3459V7.06ZM102.445 15.3C101.399 15.3 100.429 15.1167 99.5355 14.75C98.6488 14.3767 97.8721 13.86 97.2055 13.2C96.5455 12.54 96.0321 11.7667 95.6655 10.88C95.2988 9.99333 95.1155 9.03333 95.1155 8C95.1155 6.96 95.2988 5.99667 95.6655 5.11C96.0321 4.22333 96.5455 3.45 97.2055 2.79C97.8721 2.13 98.6488 1.61667 99.5355 1.25C100.429 0.883332 101.399 0.699999 102.445 0.699999C103.485 0.699999 104.449 0.886666 105.335 1.26C106.222 1.63333 106.999 2.15333 107.665 2.82C108.332 3.48667 108.849 4.26333 109.215 5.15C109.589 6.03 109.775 6.98 109.775 8C109.775 9.03333 109.589 9.99333 109.215 10.88C108.849 11.7667 108.332 12.54 107.665 13.2C106.999 13.86 106.222 14.3767 105.335 14.75C104.449 15.1167 103.485 15.3 102.445 15.3ZM102.445 13.51C103.199 13.51 103.899 13.38 104.545 13.12C105.199 12.86 105.769 12.49 106.255 12.01C106.742 11.5233 107.122 10.94 107.395 10.26C107.675 9.58 107.815 8.82667 107.815 8C107.815 6.88667 107.575 5.91667 107.095 5.09C106.622 4.26333 105.979 3.62333 105.165 3.17C104.352 2.71 103.445 2.48 102.445 2.48C101.692 2.48 100.989 2.61333 100.335 2.88C99.6888 3.14 99.1188 3.51333 98.6255 4C98.1388 4.48 97.7588 5.06 97.4855 5.74C97.2121 6.41333 97.0755 7.16667 97.0755 8C97.0755 9.10667 97.3121 10.0733 97.7855 10.9C98.2655 11.7267 98.9121 12.37 99.7255 12.83C100.539 13.2833 101.445 13.51 102.445 13.51ZM110.655 15L116.165 0.999999H118.115L123.795 15H121.675L120.285 11.49H114.045L112.715 15H110.655ZM114.575 9.85H119.735L117.095 3.33L114.575 9.85ZM125.927 15V0.999999H131.087C132.034 0.999999 132.85 1.16667 133.537 1.5C134.23 1.83333 134.764 2.31 135.137 2.93C135.517 3.54333 135.707 4.26667 135.707 5.1C135.707 5.8 135.554 6.42 135.247 6.96C134.94 7.49333 134.507 7.93 133.947 8.27C133.387 8.61 132.734 8.83667 131.987 8.95L136.357 15H134.057L129.937 9.19H127.807V15H125.927ZM127.807 7.58H130.727C131.7 7.58 132.457 7.37 132.997 6.95C133.544 6.53 133.817 5.93667 133.817 5.17C133.817 4.38333 133.577 3.76333 133.097 3.31C132.617 2.85667 131.89 2.63 130.917 2.63H127.807V7.58ZM139.071 15V0.999999H143.311C144.685 0.999999 145.898 1.3 146.951 1.9C148.011 2.49333 148.841 3.32 149.441 4.38C150.041 5.43333 150.341 6.64333 150.341 8.01C150.341 9.03 150.168 9.96667 149.821 10.82C149.481 11.6733 148.998 12.4133 148.371 13.04C147.745 13.66 147.001 14.1433 146.141 14.49C145.281 14.83 144.338 15 143.311 15H139.071ZM140.951 13.25H143.001C143.815 13.25 144.548 13.13 145.201 12.89C145.861 12.6433 146.428 12.2933 146.901 11.84C147.375 11.38 147.738 10.83 147.991 10.19C148.251 9.54333 148.381 8.81667 148.381 8.01C148.381 6.93667 148.158 6.00667 147.711 5.22C147.265 4.42667 146.638 3.81667 145.831 3.39C145.031 2.96333 144.088 2.75 143.001 2.75H140.951V13.25Z" fill="#F5C033"/>
<path d="M1 27C35.0764 22.1683 84.121 14.4131 151 22.54" stroke="#F5C033" stroke-linecap="round"/>
</svg>
