<svg width="82" height="27" viewBox="0 0 82 27" fill="none" xmlns="http://www.w3.org/2000/svg">
<path d="M0.417109 15V0.999999H8.87711V2.73H2.29711V7.13H8.27711V8.82H2.29711V15H0.417109ZM11.9405 15V0.999999H17.1005C18.0472 0.999999 18.8639 1.16667 19.5505 1.5C20.2439 1.83333 20.7772 2.31 21.1505 2.93C21.5305 3.54333 21.7205 4.26667 21.7205 5.1C21.7205 5.8 21.5672 6.42 21.2605 6.96C20.9539 7.49333 20.5205 7.93 19.9605 8.27C19.4005 8.61 18.7472 8.83667 18.0005 8.95L22.3705 15H20.0705L15.9505 9.19H13.8205V15H11.9405ZM13.8205 7.58H16.7405C17.7139 7.58 18.4705 7.37 19.0105 6.95C19.5572 6.53 19.8305 5.93667 19.8305 5.17C19.8305 4.38333 19.5905 3.76333 19.1105 3.31C18.6305 2.85667 17.9039 2.63 16.9305 2.63H13.8205V7.58ZM25.0851 15V0.999999H26.9651V15H25.0851ZM30.7296 15V0.999999H39.5096V2.68H32.6096V6.85H38.6196V8.46H32.6096V13.31H39.5696V15H30.7296ZM42.839 15V0.999999H44.599L52.099 11.7V0.999999H53.939V15H52.179L44.689 4.18V15H42.839ZM57.7023 15V0.999999H61.9423C63.3156 0.999999 64.5289 1.3 65.5823 1.9C66.6423 2.49333 67.4723 3.32 68.0723 4.38C68.6723 5.43333 68.9723 6.64333 68.9723 8.01C68.9723 9.03 68.7989 9.96667 68.4523 10.82C68.1123 11.6733 67.6289 12.4133 67.0023 13.04C66.3756 13.66 65.6323 14.1433 64.7723 14.49C63.9123 14.83 62.9689 15 61.9423 15H57.7023ZM59.5823 13.25H61.6323C62.4456 13.25 63.1789 13.13 63.8323 12.89C64.4923 12.6433 65.0589 12.2933 65.5323 11.84C66.0056 11.38 66.3689 10.83 66.6223 10.19C66.8823 9.54333 67.0123 8.81667 67.0123 8.01C67.0123 6.93667 66.7889 6.00667 66.3423 5.22C65.8956 4.42667 65.2689 3.81667 64.4623 3.39C63.6623 2.96333 62.7189 2.75 61.6323 2.75H59.5823V13.25ZM76.3124 15.3C75.3724 15.3 74.4558 15.17 73.5624 14.91C72.6691 14.6433 71.9158 14.2633 71.3024 13.77L72.2424 12.3C72.5891 12.5867 72.9824 12.83 73.4224 13.03C73.8624 13.23 74.3291 13.3833 74.8224 13.49C75.3158 13.5967 75.8158 13.65 76.3224 13.65C77.3158 13.65 78.1124 13.4567 78.7124 13.07C79.3191 12.6833 79.6224 12.1167 79.6224 11.37C79.6224 10.8233 79.4191 10.36 79.0124 9.98C78.6124 9.6 77.8624 9.25333 76.7624 8.94L75.2424 8.49C73.9624 8.11667 73.0258 7.62667 72.4324 7.02C71.8391 6.41333 71.5424 5.65333 71.5424 4.74C71.5424 4.12667 71.6658 3.57333 71.9124 3.08C72.1591 2.58667 72.5058 2.16333 72.9524 1.81C73.3991 1.45 73.9258 1.17667 74.5324 0.99C75.1458 0.796666 75.8158 0.699999 76.5424 0.699999C77.4424 0.699999 78.2791 0.833333 79.0524 1.1C79.8324 1.36 80.4758 1.71 80.9824 2.15L80.0124 3.56C79.7124 3.30667 79.3691 3.09 78.9824 2.91C78.5958 2.72333 78.1824 2.58333 77.7424 2.49C77.3024 2.39 76.8558 2.34 76.4024 2.34C75.7958 2.34 75.2591 2.43 74.7924 2.61C74.3324 2.78333 73.9724 3.04333 73.7124 3.39C73.4591 3.73 73.3324 4.14333 73.3324 4.63C73.3324 4.98333 73.4158 5.29333 73.5824 5.56C73.7491 5.82 74.0391 6.06 74.4524 6.28C74.8658 6.5 75.4358 6.71667 76.1624 6.93L77.7824 7.41C79.0291 7.77667 79.9458 8.26 80.5324 8.86C81.1191 9.45333 81.4124 10.2333 81.4124 11.2C81.4124 12.0133 81.2124 12.73 80.8124 13.35C80.4191 13.9633 79.8424 14.4433 79.0824 14.79C78.3224 15.13 77.3991 15.3 76.3124 15.3Z" fill="#F5C033"/>
<path d="M2 26.5001C19.8333 22.1667 45.5 15.2114 80.5 22.5001" stroke="#F5C033" stroke-linecap="round"/>
</svg>
