<svg width="40" height="41" viewBox="0 0 40 41" fill="none" xmlns="http://www.w3.org/2000/svg">
<path fill-rule="evenodd" clip-rule="evenodd" d="M6.55292 6.125H33.4402C35.682 6.125 37.4932 7.94942 37.5 10.1922V26.9686C37.5 29.2114 35.682 31.029 33.4471 31.029H24.7125L21.5002 34.2526C20.6732 35.0825 19.3336 35.0825 18.5066 34.2526L15.2944 31.029H6.55292C4.31117 31.029 2.5 29.2114 2.5 26.9686V10.1922C2.5 7.94942 4.31117 6.125 6.55292 6.125ZM20.0922 15.2676C20.0922 16.8168 18.8407 18.0728 17.2969 18.0728C15.7531 18.0728 14.5015 16.8168 14.5015 15.2676C14.5015 13.7183 15.7531 12.4623 17.2969 12.4623C18.8407 12.4623 20.0922 13.7183 20.0922 15.2676ZM14.5631 19.1908H20.0239C21.3635 19.1908 22.4502 20.2814 22.457 21.6257V23.505C22.457 24.1565 21.9308 24.6847 21.2815 24.6847H13.3123C12.6631 24.6847 12.1368 24.1565 12.1368 23.505V21.6325C12.1368 20.2814 13.2235 19.1908 14.5631 19.1908ZM26.0452 15.5079H26.7902C27.378 15.5079 27.8564 15.988 27.8632 16.5779C27.8632 17.1677 27.3848 17.6478 26.797 17.6478H26.0452V18.3954C26.0452 18.9853 25.5668 19.4654 24.979 19.4654C24.3912 19.4654 23.9128 18.9853 23.9128 18.3954V17.6478H23.161C22.5732 17.6478 22.0948 17.1677 22.0948 16.5779C22.0948 15.988 22.5732 15.5079 23.161 15.5079H23.9128V14.7535C23.9128 14.1636 24.3912 13.6835 24.979 13.6835C25.5668 13.6835 26.0452 14.1636 26.0452 14.7535V15.5079Z" fill="url(#paint0_linear_2053_21392)"/>
<defs>
<linearGradient id="paint0_linear_2053_21392" x1="-1" y1="20.6396" x2="37.5" y2="20.6396" gradientUnits="userSpaceOnUse">
<stop stop-color="#F4B5D2"/>
<stop offset="1" stop-color="#F57295"/>
</linearGradient>
</defs>
</svg>
