<svg width="18" height="18" viewBox="0 0 17 19" fill="none" xmlns="http://www.w3.org/2000/svg">
<path d="M6.04678 14.9662C7.28727 14.5527 8.91209 14.5528 10.1525 14.9662C10.4151 15.0537 10.575 15.3193 10.5295 15.5923L10.5294 15.5933C10.5292 15.8887 10.2564 16.486 10.12 16.7478C9.80596 17.34 9.22938 18.0572 8.23094 18.2968C8.14465 18.3175 8.05468 18.3175 7.96839 18.2968C6.96994 18.0572 6.39336 17.34 6.07928 16.7478C5.86986 16.4092 5.71905 15.8364 5.66982 15.5923C5.62431 15.3193 5.78419 15.0538 6.04678 14.9662Z" fill="url(#paint0_linear_2013_806)"/>
<path d="M15.2428 14.4574C15.4054 14.5746 15.6182 14.5964 15.8012 14.5145C15.9842 14.4327 16.1099 14.2597 16.131 14.0603L16.1315 14.058C16.1813 13.8928 16.1593 13.5408 16.1421 13.3851C16.1246 12.9919 16.0628 12.4529 15.8818 11.8807C15.6746 11.2254 15.3075 10.523 14.6804 9.95331C14.4472 9.74152 14.3306 9.63562 14.2015 9.68482C14.0724 9.73403 14.0541 9.9071 14.0175 10.2533C13.9204 11.173 13.7346 12.1529 13.4469 13.1946C13.3869 13.4117 13.3569 13.5202 13.4018 13.6008C13.4466 13.6813 13.558 13.714 13.7807 13.7794C14.3166 13.9367 14.826 14.157 15.2428 14.4574Z" fill="url(#paint1_linear_2013_806)"/>
<path d="M0.956442 14.4573C0.79379 14.5746 0.58104 14.5963 0.398005 14.5145C0.21497 14.4327 0.0893201 14.2596 0.0681934 14.0603L0.0677328 14.058C0.0179335 13.8928 0.039873 13.5408 0.0571132 13.3851C0.0746234 12.9919 0.136432 12.4529 0.317399 11.8807C0.524641 11.2254 0.891717 10.523 1.51882 9.95332C1.75198 9.74152 1.86856 9.63562 1.99769 9.68483C2.12681 9.73403 2.14509 9.90711 2.18164 10.2533C2.27877 11.173 2.46463 12.1529 2.7523 13.1946C2.81225 13.4117 2.84223 13.5202 2.79742 13.6007C2.75261 13.6812 2.64122 13.7139 2.41844 13.7793C1.88263 13.9366 1.37326 14.1569 0.956442 14.4573Z" fill="url(#paint2_linear_2013_806)"/>
<path fill-rule="evenodd" clip-rule="evenodd" d="M7.91914 0.717293C8.03618 0.67765 8.16302 0.67765 8.28006 0.717293C9.59554 1.16286 11.3075 2.38191 12.3163 4.58159C13.3305 6.793 13.6078 9.93455 12.161 14.1814C12.1057 14.3439 11.9792 14.4722 11.8176 14.5299C11.6559 14.5875 11.4768 14.5682 11.3311 14.4775C11.0008 14.2716 9.80266 13.7657 8.0996 13.7657C6.39654 13.7657 5.19843 14.2716 4.86807 14.4775C4.72241 14.5682 4.54328 14.5875 4.38163 14.5299C4.21999 14.4722 4.09351 14.3439 4.03816 14.1814C2.59143 9.93455 2.86868 6.793 3.88287 4.58159C4.89169 2.38191 6.60366 1.16286 7.91914 0.717293ZM9.97461 6.50006C9.97461 5.46453 9.13514 4.62506 8.09961 4.62506C7.06408 4.62506 6.22461 5.46453 6.22461 6.50006C6.22461 7.53559 7.06408 8.37506 8.09961 8.37506C9.13514 8.37506 9.97461 7.53559 9.97461 6.50006Z" fill="url(#paint3_linear_2013_806)"/>
<defs>
<linearGradient id="paint0_linear_2013_806" x1="8.09966" y1="14.6561" x2="8.09966" y2="18.3124" gradientUnits="userSpaceOnUse">
<stop stop-color="#ACB9C6"/>
<stop offset="1" stop-color="#F2F7F8"/>
</linearGradient>
<linearGradient id="paint1_linear_2013_806" x1="8.09961" y1="9.67291" x2="8.09961" y2="14.5635" gradientUnits="userSpaceOnUse">
<stop stop-color="#ACB9C6"/>
<stop offset="1" stop-color="#F2F7F8"/>
</linearGradient>
<linearGradient id="paint2_linear_2013_806" x1="8.09961" y1="9.67291" x2="8.09961" y2="14.5635" gradientUnits="userSpaceOnUse">
<stop stop-color="#ACB9C6"/>
<stop offset="1" stop-color="#F2F7F8"/>
</linearGradient>
<linearGradient id="paint3_linear_2013_806" x1="8.0996" y1="0.687561" x2="8.0996" y2="14.5626" gradientUnits="userSpaceOnUse">
<stop stop-color="#ACB9C6"/>
<stop offset="1" stop-color="#F2F7F8"/>
</linearGradient>
</defs>
</svg>
