<svg width="65" height="64" viewBox="0 0 65 64" fill="none" xmlns="http://www.w3.org/2000/svg">
<path fill-rule="evenodd" clip-rule="evenodd" d="M52.5 35.6167H12.5V54.1287C12.5 55.0117 13.079 55.7907 13.925 56.0447C17.944 57.2497 29.246 60.6407 31.925 61.4447C32.3 61.5567 32.7 61.5567 33.075 61.4447C35.754 60.6407 47.056 57.2497 51.075 56.0447C51.921 55.7907 52.5 55.0117 52.5 54.1287C52.5 49.4927 52.5 35.6167 52.5 35.6167Z" fill="#CADCF0"/>
<path fill-rule="evenodd" clip-rule="evenodd" d="M52.5 35.6167H32.5C32.5 35.6167 32.306 61.5287 32.5 61.5287C32.694 61.5287 32.887 61.5007 33.075 61.4447C35.754 60.6407 47.056 57.2497 51.075 56.0447C51.921 55.7907 52.5 55.0117 52.5 54.1287C52.5 49.4927 52.5 35.6167 52.5 35.6167Z" fill="#A4BBDB"/>
<path fill-rule="evenodd" clip-rule="evenodd" d="M32.5 42.1057L12.5 35.6167C12.5 35.6167 8.99301 40.8167 7.42501 43.1407C7.24901 43.4017 7.20601 43.7287 7.30801 44.0257C7.41101 44.3227 7.64601 44.5537 7.94501 44.6517C11.744 45.8857 22.99 49.5397 25.94 50.4977C26.363 50.6357 26.827 50.4767 27.077 50.1077C28.418 48.1287 32.5 42.1057 32.5 42.1057Z" fill="#E9F3FC"/>
<path fill-rule="evenodd" clip-rule="evenodd" d="M52.5 35.6167L32.5 42.1057C32.5 42.1057 36.582 48.1287 37.923 50.1077C38.173 50.4767 38.637 50.6357 39.06 50.4977C42.01 49.5397 53.256 45.8857 57.055 44.6517C57.354 44.5537 57.589 44.3227 57.692 44.0257C57.794 43.7287 57.751 43.4017 57.575 43.1407C56.007 40.8167 52.5 35.6167 52.5 35.6167Z" fill="#E9F3FC"/>
<path fill-rule="evenodd" clip-rule="evenodd" d="M27.659 21.9856C27.409 21.6186 26.946 21.4596 26.523 21.5976C23.575 22.5546 12.326 26.2096 8.52704 27.4446C8.22804 27.5416 7.99204 27.7726 7.89004 28.0696C7.78804 28.3666 7.83104 28.6946 8.00704 28.9546C9.45104 31.0966 12.5 35.6166 12.5 35.6166L32.5 29.1056C32.5 29.1056 28.908 23.8226 27.659 21.9856Z" fill="#CADCF0"/>
<path fill-rule="evenodd" clip-rule="evenodd" d="M56.993 28.9546C57.169 28.6946 57.212 28.3666 57.11 28.0696C57.008 27.7726 56.772 27.5416 56.473 27.4446C52.674 26.2096 41.425 22.5546 38.477 21.5976C38.054 21.4596 37.591 21.6186 37.341 21.9856C36.092 23.8226 32.5 29.1056 32.5 29.1056L52.5 35.6166C52.5 35.6166 55.549 31.0966 56.993 28.9546Z" fill="#E9F3FC"/>
<path fill-rule="evenodd" clip-rule="evenodd" d="M52.5 35.617L32.5 29.106L12.5 35.617L32.5 42.106L52.5 35.617Z" fill="#CADCF0"/>
<path fill-rule="evenodd" clip-rule="evenodd" d="M32.5 42.106V29.106L12.5 35.617L32.5 42.106Z" fill="#A4BBDB"/>
<path fill-rule="evenodd" clip-rule="evenodd" d="M28.4821 31.9781C28.0661 31.7061 27.6911 31.4151 27.3581 31.1101C26.9521 30.7371 26.3191 30.7641 25.9451 31.1711C25.5721 31.5771 25.5991 32.2101 26.0061 32.5831C26.4151 32.9591 26.8761 33.3171 27.3881 33.6521C27.8501 33.9541 28.4701 33.8241 28.7721 33.3621C29.0741 32.9001 28.9441 32.2801 28.4821 31.9781Z" fill="#6366F1"/>
<path fill-rule="evenodd" clip-rule="evenodd" d="M25.3661 28.9061C25.0691 28.5031 24.8181 28.0981 24.6121 27.6931C24.3621 27.2011 23.7591 27.0051 23.2671 27.2551C22.7751 27.5051 22.5791 28.1081 22.8291 28.6001C23.0831 29.0981 23.3911 29.5971 23.7561 30.0921C24.0831 30.5361 24.7091 30.6311 25.1541 30.3041C25.5981 29.9761 25.6931 29.3501 25.3661 28.9061Z" fill="#6366F1"/>
<path fill-rule="evenodd" clip-rule="evenodd" d="M23.9041 24.8248C23.9141 24.4218 23.9731 24.0308 24.0811 23.6558C24.2331 23.1258 23.9261 22.5708 23.3951 22.4188C22.8651 22.2668 22.3101 22.5738 22.1581 23.1048C22.0051 23.6408 21.9191 24.1998 21.9041 24.7748C21.8911 25.3268 22.3271 25.7858 22.8791 25.7988C23.4311 25.8128 23.8901 25.3768 23.9041 24.8248Z" fill="#6366F1"/>
<path fill-rule="evenodd" clip-rule="evenodd" d="M25.4422 21.4852C25.6992 21.2472 25.9872 21.0272 26.3022 20.8282C26.7692 20.5332 26.9092 19.9152 26.6152 19.4492C26.3202 18.9822 25.7022 18.8422 25.2352 19.1362C24.8122 19.4032 24.4282 19.6982 24.0832 20.0182C23.6782 20.3932 23.6542 21.0262 24.0292 21.4312C24.4042 21.8362 25.0372 21.8602 25.4422 21.4852Z" fill="#6366F1"/>
<path fill-rule="evenodd" clip-rule="evenodd" d="M29.161 19.7599C29.664 19.6669 30.197 19.6069 30.759 19.5839C31.311 19.5599 31.739 19.0929 31.716 18.5419C31.693 17.9909 31.226 17.5619 30.674 17.5849C30.014 17.6129 29.388 17.6839 28.797 17.7929C28.255 17.8939 27.895 18.4159 27.996 18.9579C28.096 19.5009 28.618 19.8599 29.161 19.7599Z" fill="#6366F1"/>
<path fill-rule="evenodd" clip-rule="evenodd" d="M34.3731 19.7011C35.2261 19.7111 36.0201 19.6811 36.7571 19.6161C37.3071 19.5671 37.7141 19.0811 37.6651 18.5311C37.6161 17.9821 37.1301 17.5751 36.5801 17.6241C35.9051 17.6831 35.1781 17.7111 34.3961 17.7011C33.8441 17.6951 33.3911 18.1381 33.3851 18.6891C33.3781 19.2411 33.8211 19.6951 34.3731 19.7011Z" fill="#6366F1"/>
<path fill-rule="evenodd" clip-rule="evenodd" d="M40.0441 19.0031C41.0341 18.7001 41.8701 18.3121 42.5701 17.8671C43.0351 17.5701 43.1731 16.9521 42.8761 16.4861C42.5801 16.0211 41.9611 15.8831 41.4951 16.1801C40.9321 16.5381 40.2571 16.8461 39.4591 17.0901C38.9321 17.2521 38.6341 17.8111 38.7961 18.3391C38.9571 18.8671 39.5171 19.1641 40.0441 19.0031Z" fill="#6366F1"/>
<path fill-rule="evenodd" clip-rule="evenodd" d="M45.1341 15.0679C45.6061 14.0919 45.7871 13.0599 45.7411 12.0649C45.7151 11.5129 45.2461 11.0869 44.6951 11.1129C44.1441 11.1389 43.7171 11.6069 43.7431 12.1579C43.7751 12.8339 43.6531 13.5349 43.3331 14.1979C43.0931 14.6949 43.3011 15.2939 43.7981 15.5339C44.2951 15.7739 44.8941 15.5649 45.1341 15.0679Z" fill="#6366F1"/>
<path fill-rule="evenodd" clip-rule="evenodd" d="M44.497 8.529C43.768 7.544 42.779 6.858 41.701 6.637C41.16 6.527 40.631 6.875 40.52 7.416C40.41 7.957 40.759 8.486 41.299 8.597C41.921 8.724 42.469 9.151 42.89 9.72C43.219 10.163 43.846 10.256 44.289 9.928C44.733 9.599 44.826 8.972 44.497 8.529Z" fill="#6366F1"/>
<path fill-rule="evenodd" clip-rule="evenodd" d="M31.4331 6.8308C32.5151 0.703802 41.8921 1.0998 36.4331 6.8308H31.4331Z" fill="#CADCF0"/>
<path fill-rule="evenodd" clip-rule="evenodd" d="M31.4331 8.38281C32.5151 14.5088 41.8921 14.1138 36.4331 8.38281H31.4331Z" fill="#CADCF0"/>
<path fill-rule="evenodd" clip-rule="evenodd" d="M31.343 8.6167H38.039C38.591 8.6167 39.039 8.1687 39.039 7.6167C39.039 7.0647 38.591 6.6167 38.039 6.6167H31.343C30.792 6.6167 30.343 7.0647 30.343 7.6167C30.343 8.1687 30.792 8.6167 31.343 8.6167Z" fill="#6366F1"/>
</svg>
