<svg width="17" height="17" viewBox="0 0 17 17" fill="none" xmlns="http://www.w3.org/2000/svg">
<path d="M8.47534 16.0532C12.6606 16.0532 16.0535 12.6604 16.0535 8.4751C16.0535 4.28981 12.6606 0.896973 8.47534 0.896973C4.29006 0.896973 0.897217 4.28981 0.897217 8.4751C0.897217 12.6604 4.29006 16.0532 8.47534 16.0532Z" fill="#FDD835"/>
<path opacity="0.5" d="M11.5003 1.5249L1.52532 11.4968C1.19094 10.7312 0.981567 9.8999 0.919067 9.02803L9.02844 0.915527C9.90032 0.981152 10.7316 1.19053 11.5003 1.5249Z" fill="white"/>
<path opacity="0.5" d="M15.0785 4.75635L4.75659 15.0782C4.11284 14.7157 3.53159 14.2626 3.02222 13.7345L13.7378 3.02197C14.2628 3.52822 14.716 4.1126 15.0785 4.75635Z" fill="white"/>
<path opacity="0.5" d="M13.4284 2.7375L2.74092 13.425C2.57529 13.2313 2.41592 13.0281 2.26904 12.8188L12.8222 2.26562C13.0315 2.4125 13.2347 2.57188 13.4284 2.7375Z" fill="white"/>
<path opacity="0.5" d="M15.8159 6.58418L6.58467 15.8154C6.30654 15.7436 6.03467 15.6561 5.76904 15.5561L15.5565 5.76855C15.6565 6.03418 15.744 6.30605 15.8159 6.58418Z" fill="white"/>
<path d="M8.47534 14.4907C11.7545 14.4907 14.4128 11.8324 14.4128 8.55322C14.4128 5.27403 11.7545 2.61572 8.47534 2.61572C5.19615 2.61572 2.53784 5.27403 2.53784 8.55322C2.53784 11.8324 5.19615 14.4907 8.47534 14.4907Z" fill="#F39E09"/>
<path d="M8.47534 14.4907C11.7545 14.4907 14.4128 11.8324 14.4128 8.55322C14.4128 5.27403 11.7545 2.61572 8.47534 2.61572C5.19615 2.61572 2.53784 5.27403 2.53784 8.55322C2.53784 11.8324 5.19615 14.4907 8.47534 14.4907Z" fill="url(#paint0_radial_2203_2674)" style="mix-blend-mode:multiply"/>
<g filter="url(#filter0_f_2203_2674)">
<path d="M8.10342 6.83613C7.99717 6.95801 7.94092 7.12676 7.94092 7.34238C7.94092 7.55801 8.00342 7.73613 8.12842 7.86426C8.25342 7.99238 8.45342 8.11426 8.72842 8.23301C9.00342 8.34863 9.26279 8.47051 9.50654 8.59551C9.75029 8.72051 9.95967 8.86426 10.1378 9.02363C10.3159 9.18301 10.4534 9.37051 10.5534 9.58301C10.5909 9.66426 10.7034 9.81738 10.7034 9.81738C10.7034 9.81738 10.7034 10.3361 10.7034 10.3518C10.7034 10.858 10.544 11.2705 10.2222 11.5893C9.90029 11.908 9.46592 12.0955 8.91279 12.1486V13.0361H8.20654V12.1393C7.56279 12.0705 7.06904 11.8518 6.72217 11.4768C6.37842 11.1018 6.20654 10.6111 6.20654 9.99863V9.52988L7.70029 9.99863C7.70029 10.3361 7.77529 10.5924 7.92529 10.7674C8.07529 10.9424 8.28779 11.0299 8.56279 11.0299C8.76279 11.0299 8.92217 10.9705 9.03779 10.8486C9.15342 10.7268 9.20967 10.5643 9.20967 10.3549C9.20967 10.1205 9.15342 9.93926 9.03779 9.80488C8.92217 9.67051 8.71904 9.54551 8.43154 9.42676C8.14092 9.30801 7.87529 9.18926 7.62842 9.06738C7.38154 8.94551 7.17217 8.80488 6.99404 8.64551C6.81592 8.48613 6.68154 8.30176 6.58467 8.09238C6.49092 7.88301 6.44404 7.62988 6.44404 7.32988V6.83301C6.44404 6.83301 6.72217 6.31113 6.95029 6.09551C7.28779 5.77051 7.73779 5.58301 8.29717 5.52988V4.59863H9.00342V5.55176C9.54404 5.63301 9.96904 5.85488 10.2784 6.22051C10.4909 6.47051 10.7409 7.14238 10.7409 7.14238V7.61113H9.24092C9.24092 7.30488 9.18154 7.06738 9.06279 6.90176C8.94404 6.73613 8.77529 6.65488 8.55654 6.65488C8.36279 6.65176 8.21279 6.71426 8.10342 6.83613Z" fill="#D67D00"/>
</g>
<path d="M10.1381 8.75947C9.95996 8.6001 9.75059 8.45635 9.50684 8.33135C9.34746 8.2501 9.17871 8.16885 9.00371 8.0876V6.55947C9.02559 6.58135 9.04746 6.60635 9.06621 6.63447C9.18496 6.8001 9.24434 7.0376 9.24434 7.34385H10.7443C10.7443 6.78135 10.5912 6.31885 10.2818 5.95322C9.97246 5.5876 9.54746 5.36572 9.00684 5.28447V4.33447H8.30059V5.26885C7.73809 5.32197 7.28809 5.50947 6.95371 5.83447C6.61934 6.15947 6.44434 6.57197 6.44434 7.06885C6.44434 7.36885 6.49121 7.62197 6.58496 7.83135C6.67871 8.04072 6.81621 8.2251 6.99434 8.38447C7.17246 8.54385 7.38184 8.68447 7.62871 8.80635C7.80996 8.89697 8.00371 8.98447 8.20996 9.07197V10.7032C8.10059 10.6595 8.00684 10.5938 7.92871 10.5001C7.77871 10.3251 7.70371 10.0688 7.70371 9.73135H6.20996C6.20996 10.3438 6.38184 10.8376 6.72559 11.2095C7.06934 11.5813 7.56309 11.8032 8.20996 11.872V12.772H8.91621V11.8813C9.46934 11.8282 9.90684 11.6407 10.2256 11.322C10.5475 11.0032 10.7068 10.5907 10.7068 10.0845C10.7068 9.7876 10.6568 9.53135 10.5568 9.31885C10.4568 9.10635 10.3162 8.91885 10.1381 8.75947ZM7.94434 7.07822C7.94434 6.8626 7.99746 6.69385 8.10684 6.57197C8.15996 6.5126 8.22559 6.46572 8.30059 6.43447V7.74072C8.23496 7.69385 8.17871 7.64697 8.13184 7.6001C8.00684 7.47197 7.94434 7.29697 7.94434 7.07822ZM9.03809 10.5876C9.00059 10.6251 8.95996 10.6563 8.91309 10.6845V9.42822C8.96309 9.46572 9.00371 9.50322 9.03809 9.54385C9.15371 9.67822 9.20996 9.85947 9.20996 10.0938C9.20996 10.3032 9.15371 10.4688 9.03809 10.5876Z" fill="#FDD835"/>
<path opacity="0.5" d="M6.95029 5.83447C7.13154 5.65947 7.34717 5.5251 7.59404 5.42822L6.53467 6.49072C6.61592 6.24072 6.75342 6.0251 6.95029 5.83447Z" fill="white"/>
<path opacity="0.5" d="M8.68774 4.33447L8.29712 4.7251V4.33447H8.68774Z" fill="white"/>
<path opacity="0.5" d="M10.5408 9.29375L7.98772 11.8469C7.45022 11.7562 7.02834 11.5437 6.72522 11.2156C6.52834 11 6.38772 10.7469 6.30334 10.4562L7.02209 9.7375H7.70334C7.70334 10.075 7.77834 10.3312 7.92834 10.5062C8.07834 10.6812 8.29084 10.7687 8.56584 10.7687C8.76584 10.7687 8.92522 10.7094 9.04084 10.5875C9.15647 10.4656 9.21272 10.3031 9.21272 10.0937C9.21272 9.85937 9.15647 9.67813 9.04084 9.54375C8.92522 9.40938 8.72209 9.28437 8.43459 9.16562C8.22834 9.08125 8.03459 8.99687 7.85022 8.90937L8.77522 7.98438C9.0346 8.09687 9.27834 8.20937 9.50959 8.32812C9.75335 8.45312 9.96272 8.59687 10.1408 8.75625C10.3096 8.9125 10.444 9.09063 10.5408 9.29375Z" fill="white"/>
<path opacity="0.5" d="M10.7408 7.34375H9.41272L10.4908 6.26562C10.6565 6.57188 10.7408 6.93125 10.7408 7.34375Z" fill="white"/>
<path opacity="0.5" d="M6.20959 9.73438H6.43147L6.21897 9.94688C6.21272 9.87813 6.20959 9.80625 6.20959 9.73438Z" fill="white"/>
<path opacity="0.5" d="M8.12834 7.60029C8.19084 7.66592 8.27209 7.72842 8.37522 7.79092L7.45022 8.71592C7.27834 8.61904 7.12522 8.50967 6.99397 8.38779C6.94084 8.34092 6.89397 8.29092 6.85022 8.24092L7.94709 7.14404C7.95647 7.33154 8.01897 7.48467 8.12834 7.60029Z" fill="white"/>
<path opacity="0.5" d="M10.2472 5.91895L9.20342 6.9627C9.17529 6.83457 9.12842 6.7252 9.06592 6.6377C8.97217 6.50645 8.84717 6.42832 8.69092 6.4002L9.62529 5.46582C9.86592 5.5752 10.0722 5.7252 10.2472 5.91895Z" fill="white"/>
<path opacity="0.5" d="M8.55029 12.7722L8.91279 12.4097V12.7722H8.55029Z" fill="white"/>
<path opacity="0.5" d="M10.6065 10.7158C10.5284 10.9471 10.4003 11.1471 10.2253 11.3221C10.0503 11.4971 9.84092 11.6314 9.59717 11.7252L10.6065 10.7158Z" fill="white"/>
<defs>
<filter id="filter0_f_2203_2674" x="5.20654" y="3.59863" width="6.53442" height="10.4375" filterUnits="userSpaceOnUse" color-interpolation-filters="sRGB">
<feFlood flood-opacity="0" result="BackgroundImageFix"/>
<feBlend mode="normal" in="SourceGraphic" in2="BackgroundImageFix" result="shape"/>
<feGaussianBlur stdDeviation="0.5" result="effect1_foregroundBlur_2203_2674"/>
</filter>
<radialGradient id="paint0_radial_2203_2674" cx="0" cy="0" r="1" gradientUnits="userSpaceOnUse" gradientTransform="translate(8.4749 8.55298) rotate(45) scale(5.9375)">
<stop offset="0.91" stop-color="white"/>
<stop offset="1" stop-color="#F7D144"/>
</radialGradient>
</defs>
</svg>
