
<svg width="29" height="28" viewBox="0 0 29 28" fill="none" xmlns="http://www.w3.org/2000/svg">
<path d="M28.4976 14.2898C28.493 14.5208 28.4834 14.752 28.4679 14.9828C28.4615 15.0849 28.4537 15.1867 28.4448 15.2888C28.4163 15.6164 28.3772 15.9429 28.3269 16.2672C28.2911 16.4993 28.2495 16.7306 28.202 16.9602C28.1949 16.9947 28.1877 17.0295 28.1801 17.0639C28.1659 17.1313 28.1507 17.1989 28.1354 17.2662C28.06 17.5957 27.9729 17.9223 27.8743 18.2444C27.8035 18.4776 27.7268 18.7086 27.644 18.9374C27.6071 19.04 27.5693 19.1418 27.5299 19.2434C27.4019 19.5751 27.262 19.9013 27.1106 20.2218C27.0001 20.4564 26.8835 20.6874 26.7613 20.9148C26.706 21.0177 26.6496 21.1196 26.5919 21.2208C26.4017 21.5555 26.1985 21.8821 25.9836 22.1993C25.8236 22.4355 25.657 22.6667 25.4843 22.8923C25.4053 22.9955 25.325 23.0975 25.2433 23.1983C24.9679 23.5385 24.6781 23.8653 24.3749 24.1764C24.1412 24.4167 23.8992 24.648 23.65 24.8694C23.5332 24.9737 23.4143 25.0755 23.2939 25.1754C22.8657 25.531 22.4174 25.858 21.9516 26.1539C21.6689 26.3337 21.3793 26.5018 21.0842 26.6578C20.9587 26.724 20.8251 26.7869 20.6842 26.8469C20.4193 26.9594 20.1287 27.0612 19.8183 27.1529C17.6086 27.8056 14.4043 27.9518 12.5431 27.8634C10.8871 27.7846 11.2033 27.6332 9.68118 26.9243C10.5767 26.147 11.4761 25.3665 12.3008 24.5054C12.4044 24.3976 12.507 24.2878 12.6081 24.1767C12.8034 23.9627 12.9937 23.7432 13.1781 23.5171C13.2637 23.4123 13.3477 23.3061 13.4298 23.1983C13.5075 23.0975 13.5834 22.9955 13.6584 22.8923C13.8222 22.6665 13.9797 22.4352 14.1305 22.1993C14.3335 21.8812 14.525 21.555 14.704 21.2208C14.7584 21.1198 14.8115 21.0175 14.8635 20.9148C14.9791 20.6868 15.0891 20.4558 15.1932 20.2218C15.3365 19.9011 15.4688 19.5743 15.5907 19.2434C15.628 19.1416 15.6644 19.0397 15.6994 18.9374C15.7784 18.7083 15.8523 18.4773 15.9206 18.2444C16.0161 17.9217 16.1012 17.5952 16.1759 17.2662C16.1995 17.1644 16.2214 17.0626 16.2427 16.9602C16.2907 16.7303 16.3334 16.4993 16.371 16.2672C16.424 15.9426 16.4672 15.6164 16.5 15.2888C16.5104 15.1867 16.5195 15.0851 16.5279 14.9828C16.547 14.7523 16.5607 14.5213 16.5696 14.2898C16.5823 13.9635 16.5846 13.637 16.5764 13.3113C16.5744 13.2092 16.5708 13.1074 16.5663 13.0053C16.5564 12.7741 16.5411 12.5428 16.5206 12.3123C16.4916 11.985 16.4522 11.6588 16.4017 11.3342C16.4014 11.3311 16.4009 11.3279 16.4004 11.3248C16.3849 11.2258 16.3687 11.127 16.3514 11.0284C16.3105 10.7963 16.2643 10.5651 16.2125 10.3354C16.1386 10.0062 16.0537 9.67967 15.9582 9.35698C15.928 9.25462 15.8968 9.15281 15.8645 9.05099C15.7903 8.8178 15.7108 8.58681 15.6258 8.358C15.5028 8.02683 15.369 7.70058 15.2242 7.37954C15.178 7.2769 15.1307 7.17509 15.0822 7.07355C14.9707 6.83927 14.8531 6.60827 14.7302 6.38055C14.5501 6.04692 14.3584 5.7204 14.1549 5.40237C14.0891 5.29946 14.0221 5.19737 13.954 5.09638C13.7953 4.86046 13.6304 4.62946 13.4592 4.40339C13.2027 4.06483 12.9322 3.73803 12.6495 3.42493C12.5563 3.32147 12.4613 3.21938 12.3651 3.11894C12.3435 3.09649 12.3221 3.07405 12.3006 3.05188C11.5068 2.23271 10.6235 1.51618 9.66797 0.929107C10.9244 0.363107 12.2792 0.0549265 13.6401 0.0187988L17.1339 0.0743588C17.9381 0.164952 18.7333 0.351338 19.5064 0.622569C20.0505 0.81306 20.5836 1.0457 21.1012 1.31556C21.2877 1.41273 21.4718 1.51454 21.6539 1.62155C22.0712 1.86596 22.4766 2.135 22.868 2.42622C23.1618 2.6449 23.4478 2.87617 23.7247 3.11921C23.8387 3.21911 23.9512 3.3212 24.062 3.4252C24.3927 3.73502 24.7089 4.06181 25.0083 4.40366C25.2054 4.62836 25.3954 4.85963 25.5773 5.09665C25.5879 5.11006 25.5983 5.12375 25.6087 5.13743C25.6753 5.22474 25.7408 5.31315 25.8051 5.40237C26.0329 5.71794 26.2473 6.04446 26.4472 6.38055C26.5823 6.60745 26.7108 6.83845 26.833 7.07355C26.8858 7.17482 26.9371 7.2769 26.9871 7.37954C27.1436 7.69949 27.2884 8.02601 27.421 8.358C27.5124 8.58653 27.598 8.81753 27.678 9.05099C27.7128 9.15226 27.7466 9.25462 27.7793 9.35698C27.8822 9.67939 27.9741 10.0059 28.0554 10.3354C28.1118 10.5651 28.1631 10.7961 28.2088 11.0284C28.2289 11.1302 28.2479 11.2321 28.266 11.3344C28.3211 11.6462 28.3665 11.9595 28.4021 12.2743C28.4034 12.2872 28.4049 12.2997 28.4064 12.3126C28.4321 12.5431 28.4524 12.7741 28.4674 13.0056C28.4742 13.1077 28.4798 13.2095 28.4844 13.3116C28.4991 13.6376 28.5034 13.9641 28.4974 14.2901L28.4976 14.2898Z" fill="#E3AC00"/>
<path d="M21.6537 1.62154H14.6865V0.622559H19.5062C20.0502 0.81305 20.5834 1.04569 21.101 1.31555C21.2874 1.41271 21.4716 1.51453 21.6537 1.62154Z" fill="#DD9300"/>
<path d="M24.0617 3.42498H12.301V2.42627H22.8677C23.1615 2.64495 23.4475 2.87622 23.7244 3.11926C23.8384 3.21916 23.9509 3.32125 24.0617 3.42525V3.42498Z" fill="#DD9300"/>
<path d="M25.8048 5.40228H12.301V4.40356H25.008C25.2051 4.62827 25.3951 4.85954 25.577 5.09656C25.5876 5.10997 25.598 5.12366 25.6085 5.13734C25.675 5.22465 25.7405 5.31305 25.8048 5.40228Z" fill="#DD9300"/>
<path d="M26.9868 7.37933H12.301V6.38062H26.4466C26.5817 6.60751 26.7103 6.83851 26.8324 7.07361C26.8853 7.17488 26.9366 7.27696 26.9866 7.3796L26.9868 7.37933Z" fill="#DD9300"/>
<path d="M27.7793 9.35662H12.301V8.35791H27.4207C27.5121 8.58645 27.5977 8.81744 27.6777 9.0509C27.7125 9.15217 27.7463 9.25453 27.779 9.3569L27.7793 9.35662Z" fill="#DD9300"/>
<path d="M28.2662 11.3342H12.301V10.3354H28.0554C28.1118 10.5651 28.1631 10.7961 28.2088 11.0284C28.2288 11.1303 28.2479 11.2321 28.2659 11.3344L28.2662 11.3342Z" fill="#DD9300"/>
<path d="M28.4846 13.3112H12.301V12.3125H28.4064C28.432 12.543 28.4524 12.7739 28.4673 13.0055C28.4742 13.1076 28.4798 13.2094 28.4844 13.3115L28.4846 13.3112Z" fill="#DD9300"/>
<path d="M28.4976 14.2898C28.493 14.5208 28.4833 14.7521 28.4679 14.9828C28.4615 15.0849 28.4536 15.1867 28.4447 15.2888H12.301V14.2901H28.4973L28.4976 14.2898Z" fill="#DD9300"/>
<path d="M28.3269 16.2673C28.2911 16.4994 28.2494 16.7307 28.2019 16.9603C28.1948 16.9948 28.1877 17.0296 28.1801 17.0641C28.1659 17.1314 28.1506 17.199 28.1354 17.2663H12.301V16.2676H28.3266L28.3269 16.2673Z" fill="#DD9300"/>
<path d="M27.8743 18.2441C27.8034 18.4773 27.7267 18.7083 27.6439 18.9371C27.6071 19.0398 27.5692 19.1416 27.5299 19.2431H12.301V18.2444H27.8743V18.2441Z" fill="#DD9300"/>
<path d="M27.1108 20.2214C27.0003 20.456 26.8837 20.687 26.7616 20.9144C26.7062 21.0173 26.6498 21.1192 26.5922 21.2204H12.301V20.2217H27.1105L27.1108 20.2214Z" fill="#DD9300"/>
<path d="M25.9836 22.199C25.8236 22.4352 25.657 22.6664 25.4843 22.892C25.4053 22.9952 25.325 23.0972 25.2432 23.198H12.301V22.1992H25.9836V22.199Z" fill="#DD9300"/>
<path d="M24.3751 24.1763C24.1414 24.4166 23.8994 24.6478 23.6502 24.8693C23.5334 24.9735 23.4145 25.0754 23.2941 25.1753H12.301V24.1765H24.3751V24.1763Z" fill="#DD9300"/>
<path d="M21.9518 26.1533C21.6691 26.3331 21.3796 26.5012 21.0844 26.6572C20.959 26.7234 20.8254 26.7864 20.6844 26.8463C20.4195 26.9588 20.1289 27.0606 19.8186 27.1523H12.301V26.1536H21.9518V26.1533Z" fill="#DD9300"/>
<path style="mix-blend-mode:multiply" d="M28.4976 14.2898C28.493 14.5208 28.4834 14.752 28.4679 14.9828C28.4615 15.0849 28.4537 15.1867 28.4448 15.2888C28.4163 15.6164 28.3772 15.9429 28.3269 16.2672C28.2911 16.4993 28.2495 16.7306 28.202 16.9602C28.1949 16.9947 28.1877 17.0295 28.1801 17.0639C28.1659 17.1313 28.1507 17.1989 28.1354 17.2662C28.06 17.5957 27.9729 17.9223 27.8743 18.2444C27.8035 18.4776 27.7268 18.7086 27.644 18.9374C27.6071 19.04 27.5693 19.1418 27.5299 19.2434C27.4019 19.5751 27.262 19.9013 27.1106 20.2218C27.0001 20.4564 26.8835 20.6874 26.7613 20.9148C26.706 21.0177 26.6496 21.1196 26.5919 21.2208C26.4017 21.5555 26.1985 21.8821 25.9836 22.1993C25.8236 22.4355 25.657 22.6667 25.4843 22.8923C25.4053 22.9955 25.325 23.0975 25.2433 23.1983C24.9679 23.5385 24.6781 23.8653 24.3749 24.1764C24.1412 24.4167 23.8992 24.648 23.65 24.8694C23.5332 24.9737 23.4143 25.0755 23.2939 25.1754C22.8657 25.531 22.4174 25.858 21.9516 26.1539C21.6689 26.3337 21.3793 26.5018 21.0842 26.6578C20.9587 26.724 20.8251 26.7869 20.6842 26.8469C20.4193 26.9594 20.1287 27.0612 19.8183 27.1529C17.6086 27.8056 14.4043 27.9518 12.5431 27.8634C10.8871 27.7846 11.2033 27.6332 9.68118 26.9243C10.5767 26.147 11.4761 25.3665 12.3008 24.5054C12.4044 24.3976 12.507 24.2878 12.6081 24.1767C12.8034 23.9627 12.9937 23.7432 13.1781 23.5171C13.2637 23.4123 13.3477 23.3061 13.4298 23.1983C13.5075 23.0975 13.5834 22.9955 13.6584 22.8923C13.8222 22.6665 13.9797 22.4352 14.1305 22.1993C14.3335 21.8812 14.525 21.555 14.704 21.2208C14.7584 21.1198 14.8115 21.0175 14.8635 20.9148C14.9791 20.6868 15.0891 20.4558 15.1932 20.2218C15.3365 19.9011 15.4688 19.5743 15.5907 19.2434C15.628 19.1416 15.6644 19.0397 15.6994 18.9374C15.7784 18.7083 15.8523 18.4773 15.9206 18.2444C16.0161 17.9217 16.1012 17.5952 16.1759 17.2662C16.1995 17.1644 16.2214 17.0626 16.2427 16.9602C16.2907 16.7303 16.3334 16.4993 16.371 16.2672C16.424 15.9426 16.4672 15.6164 16.5 15.2888C16.5104 15.1867 16.5195 15.0851 16.5279 14.9828C16.547 14.7523 16.5607 14.5213 16.5696 14.2898C16.5823 13.9635 16.5846 13.637 16.5764 13.3113C16.5744 13.2092 16.5708 13.1074 16.5663 13.0053C16.5564 12.7741 16.5411 12.5428 16.5206 12.3123C16.4916 11.985 16.4522 11.6588 16.4017 11.3342C16.4014 11.3311 16.4009 11.3279 16.4004 11.3248C16.3849 11.2258 16.3687 11.127 16.3514 11.0284C16.3105 10.7963 16.2643 10.5651 16.2125 10.3354C16.1386 10.0062 16.0537 9.67967 15.9582 9.35698C15.928 9.25462 15.8968 9.15281 15.8645 9.05099C15.7903 8.8178 15.7108 8.58681 15.6258 8.358C15.5028 8.02683 15.369 7.70058 15.2242 7.37954C15.178 7.2769 15.1307 7.17509 15.0822 7.07355C14.9707 6.83927 14.8531 6.60827 14.7302 6.38055C14.5501 6.04692 14.3584 5.7204 14.1549 5.40237C14.0891 5.29946 14.0221 5.19737 13.954 5.09638C13.7953 4.86046 13.6304 4.62946 13.4592 4.40339C13.2027 4.06483 12.9322 3.73803 12.6495 3.42493C12.5563 3.32147 12.4613 3.21938 12.3651 3.11894C12.3435 3.09649 12.3221 3.07405 12.3006 3.05188C11.5068 2.23271 10.6235 1.51618 9.66797 0.929107C10.9244 0.363107 12.2792 0.0549265 13.6401 0.0187988L17.1339 0.0743588C17.9381 0.164952 18.7333 0.351338 19.5064 0.622569C20.0505 0.81306 20.5836 1.0457 21.1012 1.31556C21.2877 1.41273 21.4718 1.51454 21.6539 1.62155C22.0712 1.86596 22.4766 2.135 22.868 2.42622C23.1618 2.6449 23.4478 2.87617 23.7247 3.11921C23.8387 3.21911 23.9512 3.3212 24.062 3.4252C24.3927 3.73502 24.7089 4.06181 25.0083 4.40366C25.2054 4.62836 25.3954 4.85963 25.5773 5.09665C25.5879 5.11006 25.5983 5.12375 25.6087 5.13743C25.6753 5.22474 25.7408 5.31315 25.8051 5.40237C26.0329 5.71794 26.2473 6.04446 26.4472 6.38055C26.5823 6.60745 26.7108 6.83845 26.833 7.07355C26.8858 7.17482 26.9371 7.2769 26.9871 7.37954C27.1436 7.69949 27.2884 8.02601 27.421 8.358C27.5124 8.58653 27.598 8.81753 27.678 9.05099C27.7128 9.15226 27.7466 9.25462 27.7793 9.35698C27.8822 9.67939 27.9741 10.0059 28.0554 10.3354C28.1118 10.5651 28.1631 10.7961 28.2088 11.0284C28.2289 11.1302 28.2479 11.2321 28.266 11.3344C28.3211 11.6462 28.3665 11.9595 28.4021 12.2743C28.4034 12.2872 28.4049 12.2997 28.4064 12.3126C28.4321 12.5431 28.4524 12.7741 28.4674 13.0056C28.4742 13.1077 28.4798 13.2095 28.4844 13.3116C28.4991 13.6376 28.5034 13.9641 28.4974 14.2901L28.4976 14.2898Z" fill="url(#paint0_linear_15_3152)"/>
<path d="M26.3742 14.0306C26.3722 14.2214 26.3641 14.4097 26.3542 14.6004C26.1611 18.3851 24.5628 22.1071 21.9193 24.607C21.855 24.6697 21.7885 24.7304 21.7202 24.789C21.6618 24.8432 21.6016 24.8952 21.5414 24.9472C21.4629 25.0142 21.3826 25.0816 21.3021 25.1486C21.2097 25.2266 21.1152 25.3024 21.0207 25.3761C20.9524 25.4281 20.884 25.4801 20.8137 25.5321C20.675 25.6339 20.5363 25.7335 20.3936 25.8288C20.3232 25.8764 20.2509 25.924 20.1785 25.9716C15.9666 28.6774 10.2831 28.5539 6.2 25.6076C6.07732 25.5189 5.95464 25.4278 5.834 25.3326C5.81597 25.3197 5.79793 25.3066 5.77965 25.2915C5.71539 25.2417 5.65291 25.1897 5.59068 25.1355C5.52236 25.0813 5.45607 25.0249 5.38952 24.9688C5.31713 24.9059 5.24475 24.8432 5.17439 24.778C2.40186 22.2718 0.735449 18.4393 0.54826 14.5484C0.512194 13.7859 0.530227 13.0234 0.610487 12.2672C0.702939 11.3791 0.877937 10.4994 1.14132 9.64575C1.73235 7.71976 2.74957 5.97359 4.0505 4.51562C4.43453 4.08455 4.84269 3.67948 5.27294 3.30233C5.91832 2.73469 6.61196 2.23 7.33964 1.79893C10.2204 0.0943576 13.602 -0.40404 16.7745 0.562375C19.9189 1.51784 22.7214 3.76214 24.4744 6.73227C25.0352 7.68117 25.4855 8.70807 25.8053 9.78041C26.0446 10.5927 26.2074 11.4248 26.2978 12.2675C26.358 12.8524 26.3841 13.4416 26.3742 14.0309V14.0306Z" fill="#FFF486"/>
<path d="M22.2537 14.0301C22.2537 19.2676 18.3136 23.5137 13.4528 23.5137C8.59196 23.5137 4.6521 19.2676 4.6521 14.0301C4.6521 8.79273 8.59272 4.54663 13.4528 4.54663C18.3128 4.54663 22.2537 8.79273 22.2537 14.0301Z" fill="#FFDC5A"/>
<path d="M23.4727 14.0299C23.4727 19.9932 18.9868 24.8272 13.4529 24.8272C7.91903 24.8272 3.43335 19.9932 3.43335 14.0299C3.43335 8.06666 7.91954 3.23267 13.4529 3.23267C18.9863 3.23267 23.4727 8.06666 23.4727 14.0296V14.0299Z" fill="#D38900"/>
<path d="M4.28852 14.384C4.28852 8.79928 8.48973 4.27265 13.6721 4.27265C16.8579 4.27265 19.6713 5.98543 21.3674 8.60085C19.7015 5.78618 16.7804 3.91821 13.4526 3.91821C8.27079 3.91821 4.06958 8.44539 4.06958 14.0299C4.06958 16.1811 4.6949 18.1736 5.75707 19.8125C4.829 18.2437 4.28852 16.3828 4.28852 14.384Z" fill="#903E16"/>
<path d="M22.0034 9.86499C22.4405 11.0326 22.6831 12.3074 22.6831 13.6436C22.6831 19.2278 18.4821 23.7555 13.2997 23.7555C9.49577 23.7555 6.22263 21.3142 4.74976 17.8084C6.13881 21.5197 9.51126 24.1409 13.4529 24.1409C18.6355 24.1409 22.8365 19.614 22.8365 14.0295C22.8365 12.5439 22.5368 11.1355 22.0031 9.86499H22.0034Z" fill="#FFDF60"/>
<g style="mix-blend-mode:multiply">
<path d="M19.9468 5.55161C19.9448 5.54942 19.9427 5.54724 19.9407 5.54724C19.9247 5.53218 19.9064 5.51686 19.8904 5.50399C19.8543 5.47142 19.818 5.43885 19.7799 5.40875V5.40656C19.5729 5.22893 19.3598 5.06198 19.1406 4.90186C19.0784 4.85643 19.0139 4.811 18.9496 4.76748C18.8813 4.71986 18.811 4.67223 18.7406 4.62653C18.6723 4.58109 18.604 4.53758 18.5336 4.49433C18.5336 4.49214 18.5316 4.49214 18.5295 4.49214C18.4572 4.44671 18.3868 4.40347 18.3144 4.36214C18.2441 4.32108 18.1737 4.27976 18.1033 4.24089C18.0571 4.21489 18.0089 4.18889 17.9606 4.16508C17.8963 4.13032 17.8318 4.09583 17.7655 4.06326C17.4077 3.88345 17.0379 3.72306 16.6579 3.58895C16.6015 3.56733 16.5434 3.5479 16.4849 3.52819C16.4044 3.5 16.3242 3.474 16.2437 3.45019C16.1713 3.42857 16.0989 3.40694 16.0245 3.38532C15.7733 3.31608 15.5157 3.25532 15.2564 3.20332C15.1739 3.18826 15.0895 3.17294 15.0052 3.16007C14.9209 3.14502 14.8363 3.13188 14.7499 3.12093C14.6715 3.10999 14.5932 3.09931 14.5127 3.09055C14.4967 3.08836 14.4805 3.08836 14.4645 3.08617C14.39 3.07742 14.3136 3.07112 14.2374 3.06455C14.151 3.05798 14.0644 3.05169 13.9781 3.04731C13.8917 3.04074 13.8031 3.03855 13.7167 3.03636C13.6283 3.03417 13.5417 3.03198 13.4533 3.03198C11.057 3.03198 8.84956 3.92669 7.10644 5.4238C6.67212 5.7963 6.266 6.20574 5.89416 6.64995C4.24959 8.60194 3.24634 11.193 3.24634 14.0309C3.24634 14.1262 3.24837 14.2195 3.2504 14.3148C3.25243 14.4078 3.25447 14.5033 3.26056 14.5964C3.26463 14.6766 3.26869 14.759 3.27453 14.8392C3.27859 14.8999 3.28266 14.9582 3.2885 15.019C3.2946 15.112 3.3045 15.2032 3.31466 15.2962C3.32279 15.3764 3.33066 15.4544 3.34285 15.5324C3.36089 15.6819 3.38298 15.8294 3.40711 15.9766C3.41727 16.0352 3.42718 16.0957 3.43734 16.1565C3.4414 16.1781 3.44546 16.1975 3.44927 16.2191C3.50566 16.5224 3.57601 16.8215 3.65627 17.1138C3.68243 17.2113 3.71063 17.3087 3.73882 17.4042C3.76701 17.4973 3.79521 17.5884 3.82518 17.6793C3.82721 17.6902 3.83127 17.6987 3.83534 17.7097C3.86556 17.7986 3.89553 17.8895 3.92779 17.9784C3.96208 18.0715 3.99611 18.1648 4.03243 18.2579C4.03853 18.2751 4.04437 18.2905 4.05046 18.3077C4.11472 18.4725 4.18304 18.6348 4.25543 18.7951C4.29759 18.8904 4.34179 18.9859 4.38801 19.079C4.43221 19.1676 4.47437 19.2566 4.52059 19.3455C4.56072 19.4214 4.60111 19.4994 4.64124 19.5752C4.75172 19.7788 4.87034 19.9802 4.99301 20.1754C5.12966 20.3941 5.27443 20.6086 5.42733 20.8167C5.43139 20.8232 5.43749 20.8295 5.44333 20.8383C5.49972 20.9163 5.55788 20.9921 5.61833 21.0701C5.73491 21.2217 5.85759 21.3712 5.98433 21.5165C6.04655 21.5901 6.11107 21.6616 6.17532 21.7333C6.23958 21.8025 6.30587 21.8739 6.37242 21.9413C6.37242 21.9435 6.37445 21.9456 6.37648 21.9435C6.44074 22.0149 6.50703 22.08 6.57358 22.1471C6.63987 22.2122 6.70819 22.2793 6.77855 22.3441H6.78058C6.8489 22.409 6.92129 22.4741 6.99164 22.5368C8.75279 24.0944 11.0044 25.0283 13.4531 25.0283C16.2274 25.0283 18.7505 23.8281 20.5922 21.8849C20.9881 21.4645 21.3521 21.014 21.6798 20.5309C22.5281 19.2916 23.1394 17.8534 23.4429 16.2955C23.5857 15.5656 23.6601 14.8071 23.6601 14.0315C23.6601 10.6215 22.2146 7.57121 19.9468 5.55216V5.55161ZM7.62102 22.885C7.54864 22.8308 7.47625 22.7722 7.40386 22.7139V22.7117C7.3777 22.6901 7.35154 22.6685 7.32538 22.6466C7.29516 22.6228 7.26315 22.5968 7.23293 22.5708C5.38949 21.011 4.0624 18.7708 3.57601 16.2082C3.44343 15.504 3.37308 14.7762 3.37308 14.0309C3.37308 11.2319 4.36007 8.67556 5.98052 6.74739C6.35235 6.30537 6.75848 5.89373 7.1928 5.52342C8.91382 4.04821 11.089 3.16856 13.4533 3.16856C15.8177 3.16856 18.1216 4.10213 19.8665 5.65781C19.9369 5.71857 20.0052 5.78124 20.0735 5.84857H20.0756C20.1259 5.89401 20.1761 5.94382 20.2264 5.99363C20.3174 6.08176 20.4047 6.17372 20.4926 6.26514C20.55 6.3248 20.6054 6.38447 20.6608 6.44632C20.6648 6.4507 20.6689 6.45508 20.6709 6.45946C20.7352 6.52651 20.7956 6.59603 20.8538 6.66528C21.1675 7.02929 21.457 7.41712 21.7222 7.82656C21.7684 7.90019 21.8167 7.97381 21.8608 8.04743C21.9916 8.25982 22.1161 8.4785 22.2327 8.70156C22.2609 8.75357 22.287 8.80557 22.3132 8.85757C22.4359 9.09815 22.5484 9.34502 22.6551 9.59846C22.6911 9.68933 22.7274 9.78047 22.7635 9.87134C22.7978 9.9581 22.8298 10.0468 22.86 10.1335C22.9164 10.2852 22.9685 10.4412 23.0147 10.5994C23.0368 10.6664 23.0569 10.7359 23.0769 10.8052C23.097 10.8681 23.115 10.933 23.1313 10.9979C23.1575 11.0931 23.1816 11.1905 23.2057 11.2883C23.2138 11.3208 23.2217 11.3534 23.2278 11.3857C23.258 11.5091 23.2842 11.6326 23.3083 11.7582C23.3185 11.797 23.3264 11.8384 23.3324 11.8794C23.3505 11.9791 23.3685 12.0765 23.3848 12.1783C23.4028 12.2867 23.4191 12.3951 23.431 12.5032C23.445 12.5962 23.4551 12.6918 23.4653 12.787C23.4772 12.8844 23.4853 12.9819 23.4914 13.0815C23.4975 13.1401 23.5034 13.1984 23.5054 13.2569C23.5115 13.3284 23.5156 13.3998 23.5174 13.4715C23.5234 13.5624 23.5255 13.6579 23.5275 13.751C23.5295 13.844 23.5316 13.9373 23.5316 14.0304C23.5316 14.8255 23.4511 15.5989 23.3004 16.3464C22.3134 21.225 18.2725 24.8906 13.4533 24.8906C13.367 24.8906 13.2804 24.8884 13.194 24.8862C13.1077 24.884 13.0211 24.8818 12.9347 24.8753C12.8504 24.8709 12.7638 24.8665 12.6794 24.858C12.5649 24.8493 12.4483 24.8386 12.3338 24.8233C12.2614 24.8145 12.189 24.806 12.1166 24.7951C12.0422 24.7841 11.9698 24.7735 11.8974 24.7603C11.7526 24.7365 11.6079 24.7083 11.4651 24.6779C11.3224 24.6476 11.1796 24.6128 11.0389 24.5739C10.8982 24.5373 10.7575 24.4981 10.6209 24.4527C10.3455 24.3659 10.072 24.2663 9.80659 24.1538C9.75833 24.1366 9.71007 24.1149 9.66385 24.0931C9.57952 24.0561 9.49494 24.0172 9.41265 23.9781C9.34636 23.9477 9.2821 23.9173 9.21759 23.8829C9.15333 23.8525 9.08882 23.8199 9.02659 23.7854C8.96233 23.7528 8.89782 23.7184 8.83559 23.6814C8.70885 23.6122 8.58618 23.5405 8.46375 23.4627C8.40737 23.4302 8.35124 23.3935 8.29485 23.3565C8.22856 23.3133 8.1643 23.272 8.09979 23.2265C8.00531 23.1658 7.91285 23.1009 7.8204 23.0339C7.75411 22.984 7.68782 22.9342 7.62128 22.8844L7.62102 22.885Z" fill="#CE8912"/>
</g>
<g style="mix-blend-mode:screen">
<path d="M3.2796 14.0584C3.2796 7.99358 7.85798 3.05996 13.4856 3.05996C15.9356 3.05996 18.1864 3.99517 19.947 5.55167C18.1813 3.97848 15.918 3.03149 13.4526 3.03149C7.82522 3.03149 3.24658 7.96538 3.24658 14.0296C3.24658 17.4538 4.70676 20.5173 6.99112 22.5358C4.7253 20.5167 3.27935 17.4659 3.27935 14.0581L3.2796 14.0584Z" fill="#FFF486"/>
</g>
<path style="mix-blend-mode:screen" opacity="0.93" d="M19.5768 6.8886C19.5768 7.31009 16.9044 6.40361 13.6076 6.40361C10.3109 6.40361 7.63892 7.30982 7.63892 6.8886C7.63892 6.46739 10.3116 4.72778 13.6076 4.72778C16.9036 4.72778 19.5768 6.46739 19.5768 6.8886Z" fill="url(#paint1_linear_15_3152)"/>
<path style="mix-blend-mode:screen" opacity="0.56" d="M21.2424 9.41494C21.2424 10.6312 17.8242 9.24197 13.6075 9.24197C9.39079 9.24197 5.97339 10.6312 5.97339 9.41494C5.97339 8.19864 9.39156 4.40332 13.6075 4.40332C17.8234 4.40332 21.2424 8.19864 21.2424 9.41494Z" fill="url(#paint2_linear_15_3152)"/>
<path style="mix-blend-mode:screen" opacity="0.67" d="M5.58521 18.8927C5.58521 17.765 9.07957 20.794 13.3902 20.794C17.7009 20.794 21.1948 17.765 21.1948 18.8927C21.1948 20.0203 17.7002 23.5394 13.3902 23.5394C9.08033 23.5394 5.58521 20.0203 5.58521 18.8927Z" fill="url(#paint3_linear_15_3152)"/>
<path d="M21.1233 10.6092C20.5135 10.6092 20.0205 11.1416 20.0205 11.7979C20.0205 12.1728 20.1818 12.507 20.4337 12.7249C20.055 13.5703 19.5524 14.3465 18.8877 15.1068C18.6195 15.4011 18.3698 15.6438 18.1397 15.836C18.1654 15.4892 18.1641 15.135 18.1288 14.7828C18.0683 14.0326 17.8591 13.2931 17.587 12.6485C17.8832 12.498 18.0889 12.1739 18.0889 11.7979C18.0889 11.2781 17.6978 10.8569 17.216 10.8569C16.7341 10.8569 16.343 11.2781 16.343 11.7979C16.343 12.1427 16.5157 12.4433 16.7725 12.6072C16.484 13.4567 16.184 14.3438 15.9524 15.2098C15.7027 14.7125 15.4355 14.0572 15.1508 13.2408C14.5582 11.4763 14.1884 9.88749 14.0444 8.49767C14.4937 8.26722 14.8056 7.77457 14.8056 7.202C14.8056 6.40884 14.2087 5.76538 13.4727 5.76538C12.7366 5.76538 12.1398 6.40884 12.1398 7.202C12.1398 7.78744 12.4654 8.29076 12.932 8.51355C12.7948 9.90446 12.4339 11.4944 11.8523 13.2594C11.5409 14.1703 11.2493 14.8819 10.979 15.3975C10.7492 14.4992 10.4393 13.5747 10.1388 12.6888C10.4853 12.564 10.735 12.2123 10.735 11.7973C10.735 11.2776 10.3441 10.8564 9.86175 10.8564C9.37943 10.8564 8.98879 11.2776 8.98879 11.7973C8.98879 12.105 9.12671 12.3776 9.33853 12.5492C9.04645 13.2167 8.81837 13.9935 8.75487 14.7822C8.72211 15.1112 8.71906 15.4419 8.73938 15.7665C8.55117 15.6022 8.35078 15.4071 8.1387 15.1797C7.68507 14.673 7.08312 13.9245 6.59318 12.8554C6.95029 12.6589 7.19513 12.2593 7.19513 11.7973C7.19513 11.141 6.70163 10.6087 6.09232 10.6087C5.483 10.6087 4.9895 11.141 4.9895 11.7973C4.9895 12.4017 5.40858 12.9001 5.95085 12.975C6.69732 15.4829 7.44455 17.9905 8.19152 20.4984C8.21007 20.5602 8.22785 20.6218 8.24639 20.6836C8.25121 20.7001 8.25655 20.7162 8.26137 20.7329C8.23623 20.7357 8.21108 20.7384 8.18594 20.7414C8.06021 20.7581 8.00256 20.9092 8.05691 21.0789C8.06758 21.1117 8.08231 21.1429 8.09933 21.173H8.09907C8.09907 21.173 8.09958 21.1738 8.10009 21.1744C8.1326 21.2324 8.17451 21.2822 8.22099 21.3189C8.22429 21.3222 8.22734 21.3246 8.23064 21.3271C8.238 21.3326 8.24537 21.3375 8.25274 21.3422C8.26086 21.3474 8.26874 21.3523 8.27636 21.3564C8.2822 21.3597 8.28804 21.3624 8.29363 21.3651C8.3043 21.3701 8.31471 21.3739 8.32512 21.3772C8.32893 21.3786 8.33325 21.3802 8.33731 21.381C8.35205 21.3849 8.36703 21.387 8.38151 21.3876H18.7577C18.8826 21.3862 19.0277 21.248 19.0823 21.0791C19.1361 20.9094 19.0787 20.7584 18.9537 20.7417C18.9121 20.7367 18.8707 20.7315 18.829 20.7269C18.8311 20.7269 18.8331 20.7283 18.8346 20.7283C18.8174 20.7261 18.7993 20.7242 18.7823 20.7222C19.5339 18.1421 20.2862 15.5615 21.0387 12.9816C21.0667 12.9838 21.0946 12.9857 21.1233 12.9857C21.7324 12.9857 22.2261 12.4539 22.2261 11.7976C22.2261 11.1413 21.7324 10.609 21.1233 10.609V10.6092Z" fill="url(#paint4_linear_15_3152)"/>
<path d="M8.25796 21.2012L8.26355 21.2007C8.2351 21.2053 8.24907 21.203 8.25796 21.2012ZM18.881 21.2055L18.8805 21.205C18.8945 21.207 18.912 21.2096 18.881 21.2055Z" fill="#FCC74F"/>
<g style="mix-blend-mode:multiply">
<path d="M5.95107 12.9759C6.69754 15.4838 7.44477 17.9913 8.19175 20.4992C8.21029 20.5611 8.22807 20.6226 8.24661 20.6845C8.25144 20.7009 8.25677 20.7171 8.2616 20.7338C8.23645 20.7365 8.21131 20.7392 8.18616 20.7422C8.06044 20.7589 8.00278 20.91 8.05714 21.0797C8.0678 21.1126 8.08254 21.1438 8.09955 21.1739H8.0993C8.0993 21.1739 8.09981 21.1747 8.10031 21.1752C8.13282 21.2333 8.17473 21.2831 8.22121 21.3197C8.22451 21.323 8.22756 21.3255 8.23086 21.328C8.23823 21.3334 8.2456 21.3384 8.25296 21.343C8.26109 21.3482 8.26896 21.3531 8.27658 21.3572C8.28242 21.3605 8.28826 21.3633 8.29385 21.366C8.30452 21.3709 8.31493 21.3748 8.32535 21.378C8.32916 21.3794 8.33347 21.3811 8.33754 21.3819C8.35227 21.3857 8.36726 21.3879 8.38173 21.3884H18.7579C18.8829 21.3871 19.0279 21.2489 19.0825 21.08C19.1363 20.9103 19.0789 20.7592 18.954 20.7425C18.9123 20.7376 18.8709 20.7324 18.8293 20.7277C18.8313 20.7277 18.8333 20.7291 18.8349 20.7291C18.8176 20.7269 18.7995 20.725 18.7825 20.7231C19.5341 18.143 20.2864 15.5623 21.039 12.9825C21.0669 12.9846 21.0948 12.9866 21.1235 12.9866C21.7326 12.9866 22.2264 12.4548 22.2264 11.7985H22.1987C22.1781 12.1179 22.028 12.4113 21.8088 12.5963C21.6996 12.6885 21.5769 12.7599 21.4466 12.7983C21.3163 12.8374 21.1807 12.8473 21.0501 12.8262L20.9442 12.8095L20.9003 12.9354L20.2384 14.8373C20.0195 15.472 19.8135 16.1108 19.5999 16.7471C19.3852 17.3835 19.1856 18.0245 18.9791 18.6635C18.7754 19.3034 18.5651 19.9409 18.3698 20.5832L18.2753 20.8944H18.2664C17.7785 20.8868 17.2914 20.8723 16.8032 20.8723L13.8773 20.8539L10.9513 20.8698C10.4632 20.872 9.97576 20.8758 9.4881 20.887L8.76754 20.9007L8.67153 20.5934C8.46987 19.9477 8.25423 19.3106 8.04672 18.6687C7.83744 18.028 7.62891 17.387 7.41023 16.7499C7.19104 16.1127 6.98429 15.4712 6.75494 14.837L6.07857 12.9318L6.04555 12.8379L5.9686 12.833C5.73467 12.8191 5.50659 12.703 5.32956 12.521C5.15228 12.3374 5.03621 12.0782 5.01767 11.7974L4.99023 11.7982C4.99023 12.4025 5.40931 12.9009 5.95158 12.9759H5.95107ZM18.8811 21.2059L18.8806 21.2053C18.8945 21.2075 18.9121 21.2103 18.8811 21.2059ZM8.25804 21.2012L8.26363 21.2007C8.23518 21.2056 8.24915 21.2031 8.25804 21.2012Z" fill="#FCC74F"/>
</g>
<g style="mix-blend-mode:multiply">
<path d="M9.22142 12.2626C9.07513 12.1044 9.00223 11.7974 9.00223 11.7974L8.98877 11.7979C8.98877 12.1055 9.12668 12.3781 9.33851 12.5497C9.24834 12.7558 9.16555 12.9729 9.09036 13.1965L9.1023 13.2014C9.16301 13.1631 9.21152 13.1212 9.25571 13.0783C9.30041 13.0353 9.34232 12.992 9.37686 12.9461C9.41293 12.9009 9.44849 12.856 9.47795 12.8084C9.50817 12.761 9.5356 12.7129 9.56075 12.6633L9.64736 12.4906C9.64736 12.4906 9.40734 12.4635 9.22117 12.2626H9.22142Z" fill="#FCC74F"/>
</g>
<g style="mix-blend-mode:multiply">
<path d="M10.735 11.7981H10.7213C10.6311 12.0316 10.5249 12.2032 10.4172 12.3047C10.1914 12.5176 9.8252 12.5642 9.8252 12.5642L9.91358 12.7787C9.96286 12.8983 10.0281 13.0117 10.0995 13.1231C10.1401 13.1767 10.1757 13.2331 10.2229 13.284C10.2664 13.3368 10.3172 13.3866 10.3753 13.4342L10.3878 13.4293C10.3055 13.1811 10.2224 12.9339 10.1396 12.6895C10.4861 12.5647 10.7357 12.213 10.7357 11.7981H10.735Z" fill="#FCC74F"/>
</g>
<g style="mix-blend-mode:multiply">
<path d="M16.6384 12.2738C16.4827 12.0853 16.3562 11.7976 16.3562 11.7976L16.343 11.7982C16.343 12.143 16.5157 12.4435 16.7725 12.6075C16.6958 12.833 16.6183 13.0618 16.5414 13.292L16.5543 13.2972C16.6133 13.2556 16.6625 13.2099 16.7065 13.1628C16.7517 13.116 16.7893 13.0662 16.8261 13.0158C16.897 12.9148 16.9561 12.8092 17.0008 12.6978L17.0717 12.5234C17.0717 12.5234 16.8264 12.5024 16.6384 12.2741V12.2738Z" fill="#FCC74F"/>
</g>
<g style="mix-blend-mode:multiply">
<path d="M18.0892 11.7981H18.0752C18.045 11.9429 17.9175 12.1963 17.8199 12.2905C17.602 12.4998 17.2693 12.5587 17.2693 12.5587L17.3673 12.756C17.3932 12.8086 17.4222 12.8592 17.4544 12.909C17.4837 12.9599 17.5225 13.0073 17.556 13.0568C17.5941 13.1036 17.6294 13.1529 17.6762 13.1986C17.7186 13.2473 17.7679 13.2933 17.8248 13.3371L17.837 13.3322C17.7625 13.096 17.6785 12.8669 17.587 12.6493C17.8832 12.4988 18.0889 12.1747 18.0889 11.7986L18.0892 11.7981Z" fill="#FCC74F"/>
</g>
<g style="mix-blend-mode:screen">
<path d="M13.4727 5.76587C12.7366 5.76587 12.1398 6.40933 12.1398 7.20249H12.1532C12.2508 6.83109 12.4334 6.53824 12.6688 6.33597C12.789 6.23963 12.9144 6.15643 13.0523 6.10936C13.1885 6.05763 13.3282 6.02862 13.4724 6.03327C13.6152 6.02944 13.7574 6.05763 13.8923 6.11018C14.0307 6.1567 14.1557 6.24046 14.2758 6.3368C14.5107 6.53878 14.6931 6.83027 14.7916 7.20277H14.8056C14.8056 6.40933 14.2087 5.76587 13.4727 5.76587ZM9.86175 10.8571C9.37968 10.8571 8.98879 11.2784 8.98879 11.7981H9.00225C9.10055 11.5562 9.23364 11.3928 9.38324 11.2825C9.4607 11.2315 9.53512 11.1847 9.61767 11.1629C9.69793 11.136 9.77793 11.1199 9.86149 11.1245C9.94429 11.1204 10.0261 11.1358 10.1053 11.1639C10.1879 11.1856 10.2623 11.2324 10.34 11.283C10.4891 11.3936 10.6222 11.5562 10.721 11.7989L10.7347 11.7984C10.7347 11.2786 10.3438 10.8574 9.86149 10.8574L9.86175 10.8571ZM17.216 10.8571C16.7336 10.8571 16.343 11.2784 16.343 11.7981H16.3562C16.4545 11.5562 16.5876 11.3928 16.7372 11.2825C16.8147 11.2315 16.8893 11.1847 16.9719 11.1629C17.0524 11.136 17.1321 11.1199 17.216 11.1245C17.2988 11.1204 17.3803 11.1358 17.4598 11.1639C17.5423 11.1856 17.6168 11.2324 17.694 11.283C17.8433 11.3936 17.9767 11.5562 18.0752 11.7989L18.0892 11.7984C18.0892 11.2786 17.698 10.8574 17.2162 10.8574L17.216 10.8571ZM21.1233 10.6092C20.5135 10.6092 20.0205 11.1415 20.0205 11.7978H20.0334C20.1317 11.4905 20.2892 11.2627 20.4817 11.1065C20.5808 11.0328 20.6806 10.968 20.7911 10.9338C20.899 10.8944 21.0093 10.8722 21.1233 10.8766C21.2361 10.8727 21.3478 10.8944 21.4548 10.9343C21.5652 10.9688 21.6648 11.0339 21.7641 11.1076C21.9559 11.2638 22.1136 11.4907 22.2124 11.7984L22.2261 11.7978C22.2261 11.1415 21.7324 10.6092 21.1233 10.6092ZM6.09232 10.6092C5.483 10.6092 4.9895 11.1415 4.9895 11.7978H5.00296C5.101 11.4905 5.25873 11.2627 5.45125 11.1065C5.55005 11.0328 5.65012 10.968 5.76035 10.9338C5.8683 10.8944 5.97828 10.8722 6.09232 10.8766C6.20509 10.8727 6.3171 10.8944 6.42428 10.9343C6.53502 10.9688 6.63458 11.0339 6.73338 11.1076C6.92565 11.2638 7.08312 11.4907 7.18192 11.7984L7.19538 11.7978C7.19538 11.1415 6.70189 10.6092 6.09257 10.6092H6.09232Z" fill="#FCC74F"/>
</g>
<path d="M12.1536 7.2019L12.1401 7.20245C12.1401 7.78788 12.4657 8.29121 12.9323 8.514L12.9382 8.50086C12.9382 8.50086 12.5552 8.06185 12.4543 7.8938C12.3583 7.73369 12.1536 7.2019 12.1536 7.2019ZM14.792 7.20245C14.792 7.20245 14.613 7.70906 14.5185 7.86917C14.4242 8.02983 14.0384 8.48498 14.0384 8.48498L14.0448 8.49812C14.4941 8.26767 14.806 7.77502 14.806 7.20245H14.792Z" fill="#FCC74F"/>
<g style="mix-blend-mode:screen">
<path d="M12.9321 8.51395C12.795 9.90487 12.4341 11.4948 11.8524 13.2598C11.5411 14.1707 11.2495 14.8823 10.9792 15.3979L10.9914 15.4048C11.3452 14.9244 11.6251 14.3847 11.8611 13.8321C11.9208 13.695 11.9807 13.5538 12.0328 13.4145C12.0889 13.2683 12.1374 13.1304 12.1892 12.9872C12.2868 12.702 12.3759 12.4136 12.4625 12.1234C12.5418 11.8309 12.6187 11.538 12.6848 11.2413C12.745 10.9435 12.8087 10.646 12.8481 10.3431C12.8935 10.042 12.9248 9.73791 12.9438 9.43302C12.9522 9.12703 12.9692 8.82076 12.9464 8.51587L12.9327 8.51395H12.9321ZM10.967 15.3905L10.979 15.3982C10.9772 15.3913 10.9754 15.3845 10.9734 15.3774C10.9714 15.3815 10.9693 15.3861 10.967 15.3905ZM15.9582 15.1899C15.9566 15.1968 15.9543 15.2036 15.9523 15.2102L15.9645 15.2033C15.9625 15.1989 15.9602 15.1943 15.9582 15.1899ZM14.0444 8.49808L14.0306 8.50027C14.0085 8.79914 14.0261 9.09555 14.0345 9.39443C14.0532 9.69166 14.0847 9.9878 14.1294 10.282C14.168 10.5771 14.2313 10.8664 14.29 11.157C14.354 11.4463 14.4312 11.7318 14.5074 12.017C14.5937 12.2991 14.6791 12.5802 14.7764 12.8594L14.928 13.271C14.9811 13.4158 15.0372 13.5458 15.0974 13.6813C15.327 14.2199 15.6013 14.7441 15.9404 15.2173L15.9523 15.2099C15.7026 14.7126 15.4354 14.0574 15.1507 13.2409C14.5582 11.4764 14.1884 9.88762 14.0444 8.4978V8.49808Z" fill="#FCC74F"/>
</g>
<g style="mix-blend-mode:screen">
<path d="M18.1314 15.8239L18.14 15.8362C18.1406 15.8294 18.1406 15.8223 18.1411 15.8157C18.138 15.8184 18.1347 15.8214 18.1314 15.8242V15.8239ZM20.4341 12.7249C20.0554 13.5703 19.5527 14.3465 18.888 15.1068C18.6198 15.401 18.3702 15.6438 18.14 15.8359L18.1484 15.8477C18.4545 15.7245 18.7237 15.5308 18.9703 15.3167C19.1029 15.207 19.2076 15.0866 19.3236 14.9667C19.4328 14.8438 19.5357 14.7127 19.6383 14.5816C19.7338 14.4448 19.8288 14.3071 19.9152 14.1628C19.997 14.0153 20.0823 13.87 20.1488 13.7132C20.289 13.4058 20.3988 13.0771 20.4457 12.7314L20.4336 12.7249H20.4341ZM6.59326 12.856L6.58081 12.8625C6.62221 13.1899 6.72457 13.4956 6.85512 13.7846C6.91658 13.9324 6.99633 14.0679 7.07253 14.2064C7.15304 14.3421 7.2427 14.4702 7.33185 14.5986C7.42786 14.7217 7.52488 14.8432 7.628 14.9587C7.73595 15.0693 7.83856 15.1832 7.95692 15.2823C8.19236 15.4881 8.44254 15.661 8.73056 15.7785L8.73971 15.7672C8.5515 15.603 8.35111 15.4079 8.13903 15.1804C7.6854 14.6738 7.08345 13.9253 6.59351 12.8562L6.59326 12.856ZM8.73945 15.7672L8.74809 15.756C8.74479 15.753 8.74174 15.7495 8.73844 15.747C8.7392 15.7538 8.7392 15.7609 8.73945 15.7672Z" fill="#FCC74F"/>
</g>
<path style="mix-blend-mode:screen" opacity="0.46" d="M23.1151 22.0134L21.6315 20.4807C21.3044 20.9646 20.9379 21.4151 20.5378 21.8287L22.0161 23.3559C22.41 22.936 22.7773 22.4877 23.1151 22.0134Z" fill="url(#paint5_linear_15_3152)"/>
<g style="mix-blend-mode:screen" opacity="0.41">
<path d="M7.65716 6.06294C7.22081 6.43134 6.81469 6.84078 6.44488 7.28691L6.01869 6.79289L5.98059 6.74745L5.92217 6.68259L5.89398 6.65002L4.05054 4.51602C4.43457 4.08495 4.84272 3.67989 5.27298 3.30273L7.10652 5.42359L7.13268 5.45616L7.19287 5.52322L7.23097 5.56865L7.65716 6.06267V6.06294Z" fill="#FCC952"/>
</g>
<path style="mix-blend-mode:multiply" opacity="0.46" d="M24.3964 15.9C21.8454 17.0835 17.2066 17.9606 13.4529 17.9606C9.69918 17.9606 5.00981 16.928 2.43183 15.7421C1.91624 15.5051 0.5 14.5154 0.5 14.5154C0.737733 22.0059 6.44382 28 13.4529 28C20.4619 28 26.1446 22.0313 26.4052 14.5633C26.4052 14.5633 24.9387 15.6485 24.3964 15.9Z" fill="url(#paint6_linear_15_3152)"/>
<g style="mix-blend-mode:screen" opacity="0.41">
<path d="M26.2979 12.2672C22.6811 10.4496 18.2442 9.37945 13.4535 9.37945C8.66276 9.37945 4.22966 10.4474 0.61084 12.2672C0.703291 11.3791 0.878289 10.4994 1.14167 9.64575C2.16905 6.29436 4.48695 3.48872 7.33974 1.79893C10.2205 0.0943576 13.6021 -0.40404 16.7746 0.562375C19.919 1.51784 22.7215 3.76214 24.4745 6.73227C25.0353 7.68117 25.4856 8.70807 25.8054 9.78041C26.0447 10.5927 26.2075 11.4248 26.2979 12.2675V12.2672Z" fill="#FCC952"/>
</g>
<path d="M5.36776 3.56288C5.46885 3.67181 5.31595 4.01338 5.02615 4.32594C4.73635 4.63823 4.41937 4.80299 4.31803 4.69406C4.21695 4.58513 4.36985 4.24356 4.65965 3.931C4.94945 3.61872 5.26642 3.45395 5.36776 3.56288Z" fill="white"/>
<g style="mix-blend-mode:screen">
<path d="M24.4429 6.75364L24.2831 6.54728L24.1264 6.33982C24.1002 6.30533 24.0746 6.27057 24.0479 6.23663L23.9651 6.13701L23.7998 5.93831C23.7447 5.87234 23.6921 5.80447 23.6367 5.73906L23.466 5.5472L23.2959 5.35588C23.2672 5.32441 23.2402 5.29129 23.21 5.26119L23.1209 5.16977C22.6553 4.67411 22.1583 4.21868 21.6406 3.79938L21.4471 3.64173L21.3988 3.60232L21.3488 3.5651L21.249 3.49093L21.0499 3.34259L20.9503 3.26842C20.9335 3.2561 20.9175 3.24324 20.9003 3.23174L20.849 3.19698C20.7118 3.10502 20.5767 3.01114 20.441 2.91809C20.4075 2.894 20.3722 2.8732 20.3374 2.8513L20.2328 2.78644L20.024 2.65671C19.8868 2.56694 19.7416 2.49249 19.6006 2.41066L19.3883 2.28996C19.3169 2.25082 19.2437 2.21579 19.1716 2.17856L18.9547 2.06854L18.8465 2.01353C18.8104 1.99519 18.7729 1.97986 18.7363 1.96317C18.5887 1.89748 18.4424 1.82933 18.2959 1.76227L17.8486 1.58218L17.7368 1.5373L17.6233 1.49816L17.3965 1.41988L17.1702 1.34051L16.9408 1.27209L16.712 1.20339C16.6739 1.19217 16.6358 1.17985 16.5975 1.16973L16.4824 1.14017C15.8693 0.981697 15.2465 0.87304 14.6199 0.818849C14.3065 0.794764 13.9928 0.777521 13.6786 0.776153C13.3647 0.773416 13.0505 0.787648 12.7376 0.813375C12.4244 0.838007 12.1118 0.871946 11.8014 0.923674C11.4908 0.974034 11.1822 1.0378 10.8756 1.11252C10.5688 1.18587 10.265 1.27373 9.96405 1.37226C9.88913 1.39799 9.81344 1.42098 9.73902 1.44862L9.51526 1.52936L9.29327 1.61585C9.25619 1.62981 9.21936 1.64513 9.18279 1.66046L9.0723 1.70562C8.77844 1.82741 8.48762 1.95906 8.2029 2.10467C7.91793 2.25027 7.63854 2.40765 7.36119 2.57186C7.08459 2.73717 6.81435 2.91535 6.54893 3.10201C6.41584 3.19479 6.28606 3.29277 6.15474 3.38857L5.96095 3.53746C5.89593 3.58645 5.83345 3.63927 5.76945 3.6899C5.51571 3.89572 5.26858 4.11112 5.0278 4.335C4.78677 4.55889 4.55259 4.7918 4.32603 5.03347C3.42006 6.00016 2.63143 7.10452 2.00687 8.32246C1.84838 8.62571 1.70615 8.93882 1.57001 9.2563C1.50093 9.4145 1.43845 9.57625 1.3747 9.73773C1.31348 9.90031 1.25253 10.0632 1.19538 10.2282C1.08109 10.558 0.979745 10.8944 0.890595 11.2357C0.844369 11.4059 0.800429 11.5775 0.760807 11.7505C0.740996 11.837 0.721439 11.9237 0.703152 12.0108C0.683341 12.0975 0.665562 12.1848 0.647021 12.2724L0.573364 12.2634C0.644735 11.5507 0.768935 10.8437 0.94825 10.1527C1.03791 9.80698 1.14153 9.46595 1.25812 9.12958C1.37495 8.79349 1.5022 8.4615 1.64494 8.13717C2.21463 6.83849 2.98447 5.64545 3.89324 4.59638C4.80353 3.54758 5.85758 2.64467 7.00738 1.91828C8.15769 1.19217 9.41087 0.654358 10.7113 0.333041C12.0132 0.0166502 13.3614 -0.0775007 14.689 0.064273C15.0207 0.100401 15.3511 0.151582 15.679 0.216173C16.0072 0.279944 16.3325 0.360958 16.6541 0.455109L16.7747 0.490415C16.8149 0.502458 16.8545 0.51669 16.8944 0.529554L17.1331 0.609199L17.3719 0.688844L17.6071 0.779984L17.842 0.871672L17.9596 0.917653L18.0749 0.969107L18.5364 1.17602C19.1447 1.46969 19.7324 1.81044 20.2965 2.19197C20.8622 2.57132 21.3963 3.00348 21.902 3.46985C22.9154 4.40178 23.7899 5.50341 24.5056 6.71122L24.4429 6.75419V6.75364Z" fill="#FEE5AA"/>
</g>
<defs>
<linearGradient id="paint0_linear_15_3152" x1="15.2161" y1="1.01614" x2="21.0805" y2="25.3358" gradientUnits="userSpaceOnUse">
<stop stop-color="#E3AC00"/>
<stop offset="1" stop-color="#D67F00"/>
</linearGradient>
<linearGradient id="paint1_linear_15_3152" x1="13.6079" y1="4.93689" x2="13.6079" y2="6.59766" gradientUnits="userSpaceOnUse">
<stop offset="0.06" stop-color="#FFF384"/>
<stop offset="0.45" stop-color="#FBD449"/>
<stop offset="0.98" stop-color="#F8AE00"/>
</linearGradient>
<linearGradient id="paint2_linear_15_3152" x1="13.6078" y1="4.91048" x2="13.6078" y2="8.93817" gradientUnits="userSpaceOnUse">
<stop offset="0.06" stop-color="#FFF384"/>
<stop offset="0.45" stop-color="#FBD449"/>
<stop offset="0.98" stop-color="#F8AE00"/>
</linearGradient>
<linearGradient id="paint3_linear_15_3152" x1="13.3902" y1="23.0887" x2="13.3902" y2="19.5085" gradientUnits="userSpaceOnUse">
<stop offset="0.06" stop-color="#FFF384"/>
<stop offset="0.45" stop-color="#FBD449"/>
<stop offset="0.98" stop-color="#F8AE00"/>
</linearGradient>
<linearGradient id="paint4_linear_15_3152" x1="13.6078" y1="6.33001" x2="13.6078" y2="20.4428" gradientUnits="userSpaceOnUse">
<stop offset="0.06" stop-color="#FFF7AD"/>
<stop offset="0.45" stop-color="#FCDC72"/>
<stop offset="0.98" stop-color="#F9BB29"/>
</linearGradient>
<linearGradient id="paint5_linear_15_3152" x1="21.8266" y1="23.092" x2="21.8266" y2="21.3905" gradientUnits="userSpaceOnUse">
<stop offset="0.06" stop-color="#FFF384"/>
<stop offset="0.45" stop-color="#FBD449"/>
<stop offset="0.98" stop-color="#F8AE00"/>
</linearGradient>
<linearGradient id="paint6_linear_15_3152" x1="13.4526" y1="26.7632" x2="13.4526" y2="18.7831" gradientUnits="userSpaceOnUse">
<stop offset="0.06" stop-color="#FFF384"/>
<stop offset="0.45" stop-color="#FBD449"/>
<stop offset="0.98" stop-color="#F8AE00"/>
</linearGradient>
</defs>
</svg>
