<svg width="28" height="28" viewBox="0 0 28 28" fill="none" xmlns="http://www.w3.org/2000/svg">
<rect x="0.5" y="0.5" width="27" height="27" rx="7.5" stroke="white" stroke-opacity="0.2"/>
<g clip-path="url(#clip0_2058_6316)">
<path d="M12.001 15.998C12.001 14.1124 12.001 13.1696 12.5868 12.5838C13.1725 11.998 14.1154 11.998 16.001 11.998L16.6676 11.998C18.5533 11.998 19.4961 11.998 20.0819 12.5838C20.6676 13.1696 20.6676 14.1124 20.6676 15.998V16.6647C20.6676 18.5503 20.6676 19.4931 20.0819 20.0789C19.4961 20.6647 18.5533 20.6647 16.6676 20.6647H16.001C14.1154 20.6647 13.1725 20.6647 12.5868 20.0789C12.001 19.4931 12.001 18.5503 12.001 16.6647L12.001 15.998Z" stroke="white" stroke-linecap="round" stroke-linejoin="round"/>
<path d="M17.3339 11.9987C17.3323 10.0273 17.3025 9.00617 16.7287 8.30698C16.6179 8.17196 16.4941 8.04815 16.359 7.93734C15.6215 7.33203 14.5256 7.33203 12.334 7.33203C10.1423 7.33203 9.0465 7.33203 8.30894 7.93734C8.17391 8.04815 8.0501 8.17196 7.93929 8.30698C7.33398 9.04455 7.33398 10.1404 7.33398 12.332C7.33398 14.5237 7.33398 15.6195 7.93929 16.3571C8.0501 16.4921 8.17391 16.6159 8.30894 16.7267C9.00812 17.3005 10.0293 17.3304 12.0007 17.3319" stroke="white" stroke-linecap="round" stroke-linejoin="round"/>
</g>
<defs>
<clipPath id="clip0_2058_6316">
<rect width="16" height="16" fill="white" transform="translate(6 6)"/>
</clipPath>
</defs>
</svg>
