<svg width="33" height="32" viewBox="0 0 33 32" fill="none" xmlns="http://www.w3.org/2000/svg">
<path d="M3.16602 7.92193C7.83268 12.4975 14.6 10.5365 16.1426 7.92193C16.3695 7.53735 16.4993 7.09085 16.4993 6.61462C16.4993 5.1706 15.3054 4 13.8327 4C12.3599 4 11.166 5.1706 11.166 6.61462" stroke="white" stroke-width="2" stroke-linecap="round"/>
<path d="M23.1663 11.9042C23.1663 9.74796 24.6587 8 26.4997 8C28.3406 8 29.833 9.74796 29.833 11.9042C29.833 12.8603 29.5396 13.7361 29.0525 14.4148C26.2947 18.922 12.8682 17.2219 5.83301 15.8084" stroke="white" stroke-width="2" stroke-linecap="round"/>
<path d="M17.9465 26.5171C18.2211 27.3814 18.9619 28.0007 19.8327 28.0007C20.9373 28.0007 21.8327 27.0043 21.8327 25.7753C21.8327 25.3574 21.7292 24.9665 21.5491 24.6324C19.8326 21.3239 11.166 19.0992 3.16602 25.0335" stroke="white" stroke-width="2" stroke-linecap="round"/>
<path d="M25.833 20.666H28.4997" stroke="white" stroke-width="2" stroke-linecap="round" stroke-linejoin="round"/>
</svg>
