<svg width="48" height="48" viewBox="0 0 48 48" fill="none" xmlns="http://www.w3.org/2000/svg">
<g clip-path="url(#clip0_2250_15917)">
<path d="M30.8755 24.1558C31.3332 24.341 31.791 24.5227 32.2487 24.7079C32.7791 23.8978 33.255 23.2621 33.6001 22.8298C35.0351 21.0134 35.5909 20.4576 35.9215 19.3423C36.0631 18.8627 36.2048 18.1144 36.0631 17.1008C35.9687 16.9083 35.7398 16.5014 35.2748 16.189C34.9079 15.9456 34.5555 15.862 34.3521 15.8293C34.2322 16.189 34.1123 16.5486 33.9888 16.9119C33.6183 17.6349 33.3712 18.2452 33.215 18.652C32.4485 20.6683 32.4412 21.7763 31.4894 23.3129C31.2497 23.7017 31.0172 23.9923 30.8791 24.1594L30.8755 24.1558Z" fill="#E7BFAD"/>
<path d="M36.0813 17.6235C35.3838 17.3837 34.6863 17.1476 33.9888 16.9078C34.0178 16.8133 34.1777 16.2829 34.3375 15.7671L34.748 14.4157C34.9224 13.8417 35.2857 12.6501 35.3293 12.5012C36.2157 11.5094 37.1021 10.5213 37.9849 9.52954C38.043 9.58767 38.1229 9.67485 38.2065 9.7911C39.4489 11.5203 37.8323 14.6663 37.3201 15.6654C37.0585 16.1703 36.6625 16.8606 36.0813 17.6235Z" fill="#E7BFAD"/>
<path d="M37.1674 15.938C36.4953 15.9743 35.7288 15.9634 34.8896 15.8544C34.697 15.8326 34.5154 15.7999 34.3374 15.7708L34.7479 14.4194C35.5544 14.928 36.3609 15.433 37.1674 15.9416V15.938Z" fill="#0F0401"/>
<path d="M34.4429 14.8627C34.8861 15.2006 35.8342 15.8218 37.1639 15.9344C37.7378 15.9816 38.2319 15.9235 38.617 15.8436C38.5552 15.226 38.5371 14.7283 38.5334 14.4123C38.5007 12.0037 39.0239 10.6959 38.2319 9.66055C38.1011 9.4898 37.9703 9.37355 37.9049 9.31543C37.578 9.35539 36.4518 9.52977 35.5327 10.4997C34.7662 11.3062 34.57 12.2108 34.5119 12.5632L34.4429 14.8627Z" fill="#6366F1"/>
<path d="M42.5547 21.7868C42.5366 23.0001 42.4385 24.3624 42.1987 25.8519C42.1878 25.9282 42.1733 26.0045 42.1624 26.0844C41.9989 27.058 41.7955 27.9662 41.5666 28.8054C41.4576 29.2122 41.3414 29.5973 41.2215 29.9642C40.9781 30.7453 40.7129 31.4501 40.4586 32.0785C40.4513 32.0967 40.4404 32.1258 40.4295 32.1548C40.2515 32.598 39.6957 33.9785 38.9837 34.1093C38.446 34.211 37.8575 33.6988 37.6141 33.2265C37.3743 32.7724 37.4288 32.3183 37.4543 32.1185C37.6177 30.8688 37.7522 29.8153 37.872 28.9216C38.13 27.0071 38.3116 25.8301 38.5114 25.0163C38.6422 24.4714 38.8384 23.6976 39.0781 22.764C39.8374 22.1718 40.5894 21.5833 41.345 20.9875C41.8427 21.0965 42.2568 21.3872 42.5584 21.7904L42.5547 21.7868Z" fill="#E7BFAD"/>
<path d="M36.7534 18.6774C36.8079 18.9172 36.9241 19.4076 37.1566 20.3848C37.5235 21.9179 37.5562 22.0269 37.618 22.1649C38.0503 23.1603 39.1184 24.1739 39.9612 24.163C41.1891 24.1484 42.5841 21.9724 42.8202 18.6193C42.7839 17.8455 42.7512 17.1771 42.7148 16.4033C42.8347 16.109 42.951 15.8039 43.0563 15.4842C43.4341 14.3544 43.6521 13.2573 43.7575 12.2255C43.9318 10.5726 42.6894 9.09768 41.0328 8.99233C40.4988 8.95963 39.9176 8.96326 39.3 9.02502C39.0929 9.04682 38.8931 9.07225 38.6969 9.10131C38.1629 9.18487 37.6107 9.31928 37.4582 9.37377C36.5899 9.6753 36.3175 11.5571 36.2339 12.1856C35.8815 14.7903 36.3901 17.0681 36.7498 18.681L36.7534 18.6774Z" fill="#E7BFAD"/>
<path d="M43.0381 24.3445C42.8965 24.973 42.5986 25.5143 42.2062 25.9175C41.6395 26.5024 40.873 26.793 40.1174 26.6259C39.3545 26.4552 38.7805 25.8594 38.5153 25.082C38.3373 24.5589 38.2973 23.9486 38.4317 23.331C38.7696 21.7907 40.0774 20.7698 41.3489 21.0496C41.8466 21.1585 42.2607 21.4492 42.5622 21.8524C43.0418 22.4882 43.2452 23.4073 43.0381 24.3445Z" fill="#E7BFAD"/>
<path d="M39.2528 19.8035C39.1438 21.609 38.9404 23.5889 38.6025 25.7032C38.4499 26.6295 38.2828 27.5268 38.1012 28.3842C38.0394 28.6748 37.9813 28.9654 37.9159 29.2488C37.6652 30.3641 37.576 30.8647 37.3498 32.5616C37.219 32.834 36.3429 33.9351 35.7471 33.8479C35.1441 33.7607 34.9152 32.3512 34.8062 31.7118C34.5701 30.2841 34.4139 27.0655 36.5463 20.6899C37.4473 20.3956 38.3519 20.0977 39.2564 19.8035H39.2528Z" fill="#E7BFAD"/>
<path d="M38.6607 42.5851C38.6679 42.6614 38.6752 42.7304 38.6825 42.7886C38.3265 42.8721 37.9704 42.9557 37.6144 43.0429C37.6035 42.9738 37.5926 42.9121 37.5781 42.8431C37.1967 40.6924 36.7062 38.4147 36.0814 36.0424C35.9143 35.4139 35.7472 34.7964 35.5728 34.1897C35.3948 33.5685 35.2131 32.9618 35.0315 32.366C35.6999 32.2607 36.3684 32.1517 37.0404 32.0391C37.4582 32.5804 37.767 33.0962 38.0031 33.5757C38.3955 34.3931 38.5699 35.1088 38.6498 35.6755C38.8786 37.3284 38.41 38.4655 38.5699 41.4481C38.5917 41.8985 38.6316 42.2909 38.6607 42.5815V42.5851Z" fill="#E7BFAD"/>
<path d="M38.2718 8.23675C38.3081 7.72452 38.2645 7.27042 38.1882 6.89987C38.181 6.86355 38.1737 6.82722 38.1664 6.79452C38.1083 6.54023 38.0429 6.33315 37.9812 6.16968C38.5988 6.0171 39.2163 5.86815 39.8339 5.71558C40.0264 6.19874 40.2154 6.7037 40.4006 7.23409C40.6222 7.8662 40.8148 8.47652 40.9855 9.06503C40.5496 9.07593 40.0192 9.12679 39.427 9.26121C38.8131 9.39925 38.2936 9.58816 37.8867 9.7698C38.0102 9.48281 38.1519 9.0832 38.2246 8.58913C38.2318 8.5637 38.2355 8.53101 38.2391 8.50195C38.25 8.41839 38.2609 8.3312 38.2682 8.24038L38.2718 8.23675Z" fill="#E7BFAD"/>
<path d="M39.0201 7.19411C39.0564 7.92067 38.7041 8.53099 38.2245 8.58548C38.2318 8.56005 38.2354 8.52736 38.2391 8.49829C38.25 8.41474 38.2609 8.32755 38.2681 8.23673C38.3045 7.7245 38.2609 7.2704 38.1846 6.89985L38.9729 6.86353C38.9947 6.96888 39.0092 7.08149 39.0201 7.19774V7.19411Z" fill="#0F0401"/>
<path d="M35.9796 5.19249L35.9869 5.24335C36.0196 5.43589 36.0414 5.55214 36.0632 5.64659C36.0995 5.81007 36.1213 5.8355 36.1358 5.94085C36.1576 6.11159 36.1249 6.16972 36.1358 6.32593C36.1431 6.47487 36.1794 6.58023 36.2266 6.71827C36.4773 7.42304 36.6008 7.77906 36.8769 7.97886C37.5926 8.49109 38.973 7.69187 39.3763 7.15421C39.5688 6.89628 39.6778 6.60929 39.6778 6.60929C39.7432 6.43491 39.7795 6.27507 39.8013 6.14792C39.8413 5.84277 39.8595 5.45769 39.8086 5.01812C39.7214 4.26976 39.4671 3.68851 39.2673 3.32522C39.013 3.20897 38.2973 2.92561 37.3855 3.09272C36.5536 3.2453 36.0196 3.69214 35.8125 3.88831C35.8379 4.1862 35.8779 4.54222 35.936 4.94546C35.9469 5.02538 35.9614 5.10894 35.976 5.19249H35.9796Z" fill="#E7BFAD"/>
<path d="M31.0245 25.5759C30.8828 25.6667 30.6866 25.8084 30.4795 26.0046C30.3488 26.1281 30.2325 26.2044 30.2616 26.2625C30.287 26.317 30.4251 26.317 30.4759 26.317C30.8792 26.3134 31.3805 25.9137 31.6275 25.6994C31.8019 25.5686 31.9908 25.4124 32.1797 25.2199C32.325 25.0746 32.4485 24.9292 32.5503 24.7948C32.5866 24.6277 32.6556 24.2463 32.5103 24.1809C32.296 24.0864 31.7547 24.7258 31.7038 24.7876C31.4786 25.0528 31.2497 25.3143 31.0245 25.5795V25.5759Z" fill="#E7BFAD"/>
<path d="M29.9092 25.5433C29.8947 25.932 29.9455 26.2226 30.0436 26.2372C30.1381 26.2517 30.287 25.9901 30.4069 25.616C30.5776 25.5106 30.7484 25.4089 30.9191 25.3035C31.0644 25.2563 31.2097 25.2054 31.3587 25.1582C31.544 25.0601 32.4957 24.5406 32.394 24.3009C32.3214 24.1301 31.7292 24.1737 31.4059 24.2101C31.1589 24.359 30.9155 24.5079 30.6684 24.6569C30.4178 24.9511 30.1635 25.2454 29.9128 25.5433H29.9092Z" fill="#E7BFAD"/>
<path d="M30.385 23.999C30.2906 23.999 29.6003 24.0099 29.2661 24.4495C29.07 24.7074 29.0627 25.0235 29.0554 25.285C29.0554 25.3577 29.0554 25.5321 29.1135 25.75C29.168 25.9571 29.2334 26.1932 29.4441 26.2804C29.5277 26.3168 29.6112 26.3168 29.6694 26.3095C29.7021 26.0225 29.7311 25.7355 29.7638 25.4485C30.0762 25.1615 30.3887 24.8745 30.7011 24.5912C30.5957 24.395 30.494 24.1988 30.3887 23.999H30.385Z" fill="#E7BFAD"/>
<path d="M29.5278 24.2172C29.724 24.3988 30.1345 24.7222 30.7339 24.8239C30.941 24.8602 31.1299 24.8602 31.2898 24.8493C31.7039 24.6858 32.118 24.526 32.5322 24.3625C32.2706 24.0392 32.009 23.7159 31.7439 23.3889C31.0064 23.665 30.2653 23.9375 29.5278 24.2136V24.2172Z" fill="#E7BFAD"/>
<path d="M29.3787 26.255C29.3533 26.255 29.3351 26.2369 29.3351 26.2114L29.2915 25.1107C29.2915 25.0853 29.3097 25.0635 29.3351 25.0635C29.3605 25.0635 29.3823 25.0816 29.3823 25.1071L29.4259 26.2078C29.4259 26.2332 29.4078 26.255 29.3823 26.255H29.3787Z" fill="#210B04"/>
<path d="M29.3788 25.0889C29.3788 25.0889 29.3497 25.0817 29.3425 25.0708C29.3279 25.049 29.3316 25.0236 29.3534 25.009L30.2652 24.3805C30.287 24.366 30.3161 24.3696 30.3269 24.3914C30.3415 24.4132 30.3378 24.4387 30.3161 24.4532L29.4042 25.0817C29.4042 25.0817 29.386 25.0889 29.3788 25.0889Z" fill="#210B04"/>
<path d="M30.5451 24.7765C30.5451 24.7765 30.516 24.7693 30.5051 24.7547C30.4906 24.7329 30.4979 24.7039 30.5196 24.693L30.7921 24.5259C30.8139 24.5113 30.843 24.5186 30.8539 24.5404C30.8684 24.5622 30.8611 24.5913 30.8393 24.6022L30.5669 24.7693C30.5669 24.7693 30.5523 24.7765 30.5451 24.7765Z" fill="#210B04"/>
<path d="M31.4096 25.2091C31.4096 25.2091 31.395 25.2091 31.3842 25.2018C31.3624 25.1873 31.3551 25.1619 31.3696 25.1401L31.5694 24.8131C31.584 24.7913 31.6094 24.784 31.6312 24.7986C31.653 24.8131 31.6602 24.8385 31.6457 24.8603L31.4459 25.1873C31.4459 25.1873 31.4241 25.2091 31.4059 25.2091H31.4096Z" fill="#210B04"/>
<path d="M35.0643 3.37976C35.0752 3.76847 35.9035 4.15355 36.6264 4.10632C37.6618 4.0373 38.5845 3.07097 38.4319 2.6641C38.2902 2.28628 37.1931 2.34804 36.5428 2.50062C36.0706 2.6096 35.0534 2.94746 35.0643 3.38339V3.37976Z" fill="#0F0401"/>
<path d="M37.7087 2.93273C37.7269 3.27422 38.072 3.53578 38.4789 3.51399C38.8858 3.49219 39.2018 3.19793 39.1873 2.85645C39.1691 2.51496 38.824 2.2534 38.4171 2.2752C38.0103 2.29699 37.6942 2.59125 37.7087 2.93273Z" fill="#0F0401"/>
<path d="M37.5634 3.39392C37.5852 3.83713 38.1809 4.16771 38.893 4.13138C39.605 4.09505 40.1645 3.70634 40.1427 3.26314C40.1209 2.81994 39.5251 2.48935 38.813 2.52568C38.101 2.56201 37.5416 2.95072 37.5634 3.39392Z" fill="#0F0401"/>
<path d="M34.6244 2.74039C34.6389 2.99468 35.0603 3.17996 35.5689 3.15089C36.0775 3.12546 36.4808 2.8966 36.4662 2.64593C36.4517 2.39164 36.0303 2.20636 35.5217 2.23542C35.0131 2.26085 34.6099 2.48972 34.6244 2.74039Z" fill="#0F0401"/>
<path d="M35.4164 2.47867C35.4273 2.7039 35.925 2.86374 36.5244 2.83468C37.1239 2.80562 37.6034 2.59492 37.5925 2.36968C37.5816 2.14445 37.0839 1.9846 36.4845 2.01367C35.8851 2.04273 35.4055 2.25343 35.4164 2.47867Z" fill="#0F0401"/>
<path d="M36.9604 2.34424C36.9749 2.65303 37.3527 2.88553 37.7996 2.86373C38.2464 2.84193 38.5988 2.57311 38.5843 2.26432C38.5697 1.95553 38.1919 1.72303 37.7451 1.74482C37.2982 1.76662 36.9459 2.03545 36.9604 2.34424Z" fill="#0F0401"/>
<path d="M35.3802 3.33242C35.3983 3.68117 35.8779 3.9391 36.4518 3.91004C37.0258 3.88097 37.4799 3.57582 37.4618 3.22707C37.4436 2.87832 36.9641 2.62039 36.3901 2.64945C35.8161 2.67851 35.362 2.98367 35.3802 3.33242Z" fill="#0F0401"/>
<path d="M33.7236 45.0403C34.3993 45.0839 34.9442 45.0657 35.3039 45.0439C36.8732 44.9531 37.2038 44.637 37.9776 44.7969C38.112 44.8259 38.4898 44.9131 38.9403 44.8005C39.1546 44.746 39.3181 44.6661 39.4162 44.6116C39.4525 44.39 39.4707 44.063 39.3145 43.7397C39.2636 43.6307 39.2091 43.5617 39.1583 43.4891C39.013 43.2784 38.8313 42.955 38.6969 42.4646C38.2719 42.4028 37.8468 42.3447 37.4218 42.283C36.9677 42.7298 36.3537 43.3001 35.6344 43.8596C34.9914 44.3609 34.6608 44.6116 34.3702 44.6189C34.254 44.6225 33.9452 44.6116 33.7962 44.8041C33.7381 44.8804 33.7199 44.9712 33.7163 45.0366L33.7236 45.0403Z" fill="#E9F3FC"/>
<path d="M38.6533 45.1095C38.7441 45.0441 38.9548 44.9133 39.2273 44.9387C39.2854 44.9424 39.3363 44.9569 39.3835 44.9714C39.4307 44.8988 39.6814 44.4774 39.547 43.9361C39.4162 43.4202 39.0238 43.1695 38.9439 43.1187C38.6424 43.798 38.3699 43.9833 38.152 43.9942C37.5635 44.0196 37.1675 42.7554 36.6516 42.8462C36.4663 42.8789 36.3428 43.0678 36.2593 43.2495C35.9069 43.6273 35.5727 43.838 35.3438 43.9579C34.5991 44.3466 33.9016 44.332 33.7054 44.8116C33.6618 44.9169 33.6545 45.0186 33.6545 45.0804C35.322 45.0913 36.9858 45.0986 38.6533 45.1095Z" fill="#0F0401"/>
<path d="M39.4634 45.0004C39.4634 44.9314 39.4052 44.8733 39.3362 44.8733L33.6835 44.8806C33.6145 44.8806 33.5564 44.9387 33.5564 45.0077C33.5564 45.0767 33.6145 45.1349 33.6835 45.1349L39.3362 45.1276C39.4052 45.1276 39.4634 45.0695 39.4634 45.0004Z" fill="#0F0401"/>
<path d="M36.3502 44.067C36.3901 44.0452 36.4083 43.9943 36.3865 43.9544L36.0777 43.3513C36.0559 43.3114 36.005 43.2932 35.9651 43.315C35.9251 43.3368 35.907 43.3876 35.9288 43.4276L36.2375 44.0307C36.2593 44.0706 36.3102 44.0888 36.3502 44.067Z" fill="#E9F3FC"/>
<path d="M36.0958 44.2301C36.1357 44.2083 36.1539 44.1574 36.1321 44.1175L35.8233 43.5144C35.8015 43.4744 35.7507 43.4563 35.7107 43.4781C35.6707 43.4999 35.6526 43.5507 35.6744 43.5907L35.9832 44.1937C36.005 44.2337 36.0558 44.2519 36.0958 44.2301Z" fill="#E9F3FC"/>
<path d="M41.574 28.8674C41.465 29.2743 41.3488 29.6594 41.2289 30.0263C40.11 29.6776 38.9947 29.3324 37.8758 28.9837C37.8685 28.98 37.8613 28.9801 37.854 28.9764H37.8758C39.1073 28.9401 40.3425 28.9038 41.574 28.8674Z" fill="#0F0401"/>
<path d="M38.1012 28.3845C38.0394 28.6751 37.9813 28.9658 37.9159 29.2491C36.8696 28.8858 35.8234 28.5189 34.7808 28.152C35.2276 28.1484 35.6744 28.1447 36.1213 28.1411H37.8578C37.9413 28.2247 38.0212 28.3046 38.1048 28.3881L38.1012 28.3845Z" fill="#0F0401"/>
<path d="M42.2898 29.623C40.7749 29.4014 39.26 29.1798 37.7451 28.9582C37.8069 28.1263 37.8904 27.258 38.0139 26.3535C38.2247 24.7695 38.5116 23.3055 38.835 21.9723C40.1936 21.7761 41.5487 21.5763 42.9074 21.3801C43.1072 21.787 43.594 22.9277 43.3106 24.3409C43.1544 25.1183 42.8202 25.6959 42.5768 26.0447C42.4823 27.2362 42.3879 28.4278 42.2934 29.6194L42.2898 29.623Z" fill="#6366F1"/>
<path d="M38.359 28.537C37.0403 28.3953 35.7216 28.2536 34.4065 28.112C34.5227 26.9168 34.7625 25.5145 35.2202 23.996C35.4564 23.2186 35.7179 22.5065 35.9904 21.8635C37.0948 22.0997 38.1992 22.3358 39.3035 22.5756C38.9875 24.5627 38.6714 26.5535 38.3554 28.5406L38.359 28.537Z" fill="#6366F1"/>
<path d="M46.0316 21.0061C44.949 21.6055 42.9837 22.5137 40.3644 22.7426C38.014 22.9496 36.1104 22.5246 34.9661 22.1758C35.0642 19.9635 35.1622 17.7511 35.2567 15.5387C35.2894 14.5724 35.3838 13.7768 35.471 13.2173C35.7544 11.3646 35.9433 10.2275 36.8188 9.6172C37.2802 9.29751 37.7779 9.22849 38.0867 9.21396C38.2102 9.78431 38.5553 10.2675 39.0203 10.3983C39.7178 10.5981 40.7023 10.0023 40.9275 8.86157C41.4434 8.98509 42.3952 9.28661 43.2997 10.0822C43.8846 10.5944 44.2479 11.1393 44.4695 11.5353C44.989 14.6922 45.5121 17.8492 46.0316 21.0061Z" fill="#E9F3FC"/>
<path d="M37.7887 28.45C37.7596 28.45 37.7415 28.4282 37.7451 28.4027L38.0575 23.8327C38.0575 23.8072 38.0793 23.7927 38.1047 23.7891C38.1302 23.7891 38.1483 23.8109 38.1483 23.8363L37.8359 28.4064C37.8359 28.4318 37.8141 28.45 37.7923 28.45H37.7887Z" fill="#210B04"/>
<path d="M47.5793 15.6441C46.9835 16.08 46.3914 16.5159 45.7956 16.9519C45.7338 16.8756 45.3887 16.4396 45.0618 16.011L44.1863 14.8993C43.8157 14.4307 43.0456 13.4498 42.9511 13.3263C42.646 12.0294 42.3408 10.7398 42.0356 9.44647C42.1156 9.43194 42.2318 9.41741 42.3771 9.41378C44.506 9.38471 46.1589 12.5126 46.6856 13.5043C46.9508 14.0093 47.2887 14.7286 47.583 15.6404L47.5793 15.6441Z" fill="#E7BFAD"/>
<path d="M46.8162 13.7878C46.4602 14.3582 46.0133 14.9794 45.4466 15.6079C45.3195 15.7532 45.1887 15.884 45.0615 16.0148L44.186 14.9031C45.0652 14.5326 45.9407 14.162 46.8198 13.7878H46.8162Z" fill="#0F0401"/>
<path d="M44.3788 15.4078C44.9092 15.2371 45.9627 14.8157 46.8164 13.7912C47.1833 13.348 47.4195 12.9085 47.572 12.5488C47.0307 12.2473 46.613 11.9748 46.3514 11.7968C44.357 10.4454 43.5868 9.26837 42.2827 9.32286C42.0683 9.33376 41.8976 9.37372 41.814 9.39552C41.6578 9.68615 41.1601 10.7106 41.4253 12.0184C41.6469 13.1083 42.279 13.7876 42.5333 14.0346C43.1473 14.4924 43.7648 14.9501 44.3788 15.4078Z" fill="#6366F1"/>
<path d="M38.5698 41.4514C38.5916 41.9019 38.6316 42.2942 38.6606 42.5849C38.4499 42.6938 38.1956 42.781 37.9014 42.821C37.7887 42.8355 37.6834 42.8428 37.5744 42.8428C37.193 40.6922 36.7025 38.4144 36.0777 36.0422C35.9106 35.4137 35.7435 34.7961 35.5691 34.1894C36.3792 33.986 37.1857 33.7789 37.9958 33.5791C38.3882 34.3965 38.5625 35.1121 38.6425 35.6789C38.8713 37.3318 38.4027 38.4689 38.5625 41.4514H38.5698Z" fill="#E9F3FC"/>
<path d="M44.5162 41.353C44.1638 41.5455 43.8078 41.738 43.4518 41.9342C43.4009 41.8507 43.3501 41.7671 43.2956 41.6799C42.2166 39.9107 40.9669 38.0435 39.5211 36.129C39.1868 35.6858 38.8526 35.2571 38.522 34.8357C38.0607 34.2472 37.5993 33.6841 37.1379 33.1392C37.8391 32.8958 38.5438 32.656 39.245 32.4126C39.7899 32.7432 40.2295 33.0847 40.5891 33.4153C41.1377 33.9202 41.501 34.407 41.7516 34.8066C42.6671 36.2815 42.6162 37.5022 43.895 40.165C43.9022 40.1796 43.9095 40.1941 43.9168 40.2123C44.1565 40.7099 44.3672 41.1023 44.5126 41.3566L44.5162 41.353Z" fill="#E7BFAD"/>
<path d="M39.714 33.4884V33.4817L39.6849 33.5174C39.6958 33.5283 39.714 33.5283 39.714 33.5283C39.7285 33.5283 39.7503 33.5101 39.7503 33.5101L39.7177 33.4846L39.714 33.4817C39.714 33.4839 39.714 33.4861 39.714 33.4884ZM39.714 33.4884C39.714 33.4891 39.714 33.4899 39.714 33.4906V33.4884Z" fill="#210B04" stroke="black" stroke-width="0.363282"/>
<path d="M43.9281 40.2743C43.7211 40.7648 43.5104 41.2516 43.3033 41.7456C42.2244 39.9764 40.9747 38.1092 39.5288 36.1947C39.1946 35.7515 38.8604 35.3228 38.5298 34.9014C39.22 34.4255 39.9103 33.9496 40.5969 33.481C41.1454 33.9859 41.5087 34.4727 41.7594 34.8723C42.6748 36.3472 42.624 37.5679 43.9027 40.2307C43.91 40.2453 43.9173 40.2598 43.9245 40.278L43.9281 40.2743Z" fill="#E9F3FC"/>
<path d="M43.0742 45.008C43.4738 44.4595 43.7499 43.9908 43.9243 43.6784C44.6872 42.3052 44.6 41.8584 45.1485 41.288C45.243 41.1899 45.5191 40.9175 45.668 40.4779C45.737 40.2672 45.7588 40.0855 45.7661 39.9729C45.599 39.824 45.3302 39.6351 44.9778 39.5915C44.8579 39.577 44.7743 39.5842 44.6835 39.5915C44.4292 39.6024 44.0587 39.5806 43.5719 39.4316L42.7363 40.4125C42.8707 41.0373 43.0233 41.862 43.1105 42.7666C43.1868 43.5803 43.2231 43.9908 43.0742 44.2415C43.0161 44.3432 42.8417 44.5975 42.9252 44.8264C42.9579 44.9172 43.027 44.9789 43.0778 45.0189L43.0742 45.008Z" fill="#E9F3FC"/>
<path d="M45.7736 40.8806C45.7663 40.768 45.7736 40.5209 45.9371 40.3066C45.9734 40.2594 46.0097 40.223 46.0461 40.1904C46.0097 40.1141 45.7881 39.6709 45.2614 39.4965C44.7564 39.3294 44.3314 39.5255 44.2478 39.5691C44.662 40.1867 44.6729 40.5173 44.5639 40.7062C44.2696 41.2148 42.9909 40.8733 42.7911 41.3565C42.7184 41.5309 42.8129 41.7379 42.9182 41.905C43.049 42.4027 43.049 42.7987 43.0272 43.0566C42.9582 43.8958 42.5695 44.4771 42.871 44.8985C42.9364 44.9929 43.0163 45.0511 43.0708 45.0838C43.9717 43.6815 44.8727 42.2829 45.7736 40.8806Z" fill="#0F0401"/>
<path d="M46.115 40.1398C46.0569 40.1035 45.977 40.1217 45.9407 40.1798L42.9182 44.9533C42.8818 45.0114 42.9 45.0914 42.9581 45.1277C43.0162 45.164 43.0962 45.1459 43.1325 45.0877L46.155 40.3142C46.1913 40.2561 46.1732 40.1762 46.115 40.1398Z" fill="#0F0401"/>
<path d="M43.6593 42.2683C43.6629 42.2211 43.6302 42.1811 43.583 42.1775L42.9073 42.1158C42.86 42.1121 42.8201 42.1448 42.8164 42.192C42.8128 42.2393 42.8455 42.2792 42.8927 42.2829L43.5684 42.3446C43.6157 42.3483 43.6556 42.3156 43.6593 42.2683Z" fill="#E9F3FC"/>
<path d="M43.6593 42.5735C43.6629 42.5263 43.6302 42.4863 43.583 42.4827L42.9073 42.4209C42.86 42.4173 42.8201 42.45 42.8164 42.4972C42.8128 42.5444 42.8455 42.5844 42.8927 42.588L43.5684 42.6498C43.6157 42.6534 43.6556 42.6207 43.6593 42.5735Z" fill="#E9F3FC"/>
<path d="M39.7214 20.1305C39.9939 20.541 40.2664 20.9515 40.5425 21.362C41.4398 20.9951 42.1918 20.7444 42.7185 20.5809C44.9309 19.898 45.7047 19.7526 46.6056 19.0225C46.9943 18.71 47.5356 18.1724 47.9934 17.2569C48.0261 17.0426 48.066 16.5812 47.8589 16.0581C47.6955 15.6512 47.4521 15.3824 47.3031 15.2371C46.9689 15.5531 46.6311 15.8655 46.2968 16.1816C45.6066 16.4468 45.0907 16.7301 44.7674 16.9191C42.9873 17.9689 42.4606 19.0116 40.7023 19.7781C40.2845 19.9597 39.9285 20.0687 39.7214 20.1268V20.1305Z" fill="#E7BFAD"/>
<path d="M45.5011 16.6102C45.4793 16.6102 45.4611 16.5957 45.4575 16.5702C45.4539 16.5448 45.472 16.523 45.4938 16.5194L46.1659 16.414C46.195 16.4068 46.2131 16.4286 46.2168 16.4504C46.2204 16.4758 46.2022 16.4976 46.1804 16.5012L45.5084 16.6066C45.5084 16.6066 45.5047 16.6066 45.5011 16.6066V16.6102Z" fill="#210B04"/>
<path d="M34.6282 17.0974L34.0687 17.061C34.0433 17.061 34.0251 17.0392 34.0251 17.0138C34.0251 16.9884 34.0506 16.9738 34.0724 16.9702L34.6282 17.0065C34.6536 17.0065 34.6718 17.0283 34.6718 17.0538C34.6718 17.0792 34.65 17.0974 34.6282 17.0974Z" fill="#210B04"/>
<path d="M40.5097 19.9568C40.8112 20.2837 41.1091 20.6107 41.4106 20.9376C41.0946 21.4353 40.6804 21.9657 40.1246 22.4562C40.0374 22.5325 39.9502 22.6087 39.863 22.6778C39.7177 22.656 39.2237 22.5615 38.8386 22.1256C38.3445 21.5734 38.4063 20.8977 38.4172 20.7887C38.726 20.5925 39.1256 20.3782 39.6124 20.2038C39.9393 20.0876 40.2445 20.0076 40.5097 19.9568Z" fill="#E7BFAD"/>
<path d="M38.8024 21.6025L39.1621 22.3218L38.1303 22.8377C37.8506 22.7105 37.5673 22.5834 37.2875 22.4563C37.0732 22.2782 36.9896 22.0639 37.0478 21.984C37.1059 21.9041 37.3457 21.9113 37.5963 22.0784C37.7307 22.1402 37.8688 22.1983 38.0032 22.2601C38.2684 22.0421 38.5372 21.8205 38.8024 21.6025Z" fill="#E7BFAD"/>
<path d="M39.2055 22.0562L39.4089 22.463C39.5651 22.5284 39.7214 22.5974 39.8776 22.6628C39.8558 22.681 39.547 22.9171 39.2672 22.7972C39.2273 22.7791 39.1728 22.75 39.1219 22.6919C38.9657 22.9426 38.6751 23.0261 38.4789 22.9208C38.29 22.819 38.261 22.5756 38.2573 22.5538C38.5734 22.3867 38.8894 22.2233 39.2091 22.0562H39.2055Z" fill="#E7BFAD"/>
<path d="M38.7588 20.8684L39.0603 21.4751L37.9559 22.0273C36.9206 21.8747 36.7026 21.7149 36.6953 21.595C36.6881 21.4969 36.8261 21.4097 36.8734 21.377C37.2076 21.159 37.6326 21.4097 37.6508 21.4206C38.0177 21.2353 38.3882 21.0537 38.7552 20.8684H38.7588Z" fill="#E7BFAD"/>
<path d="M40.2846 20.0039C39.9359 20.1965 39.5907 20.3854 39.242 20.5779C38.8315 20.7269 38.4173 20.8758 38.0068 21.0211C37.9487 21.0502 37.6 21.2137 37.5164 21.1156C37.4401 21.0248 37.5709 20.7632 37.7416 20.5961C37.9087 20.4362 38.0577 20.4253 38.4173 20.32C39.0494 20.1347 39.0313 20.0403 39.4018 19.9785C39.598 19.9458 39.8959 19.924 40.2773 20.0039H40.2846Z" fill="#E7BFAD"/>
<path d="M39.1039 22.7612C39.1039 22.7612 39.0821 22.7576 39.0712 22.7467C39.0531 22.7285 39.0531 22.6995 39.0712 22.6813L39.4854 22.2744C39.4854 22.2744 39.5326 22.2563 39.5508 22.2744C39.5689 22.2926 39.5689 22.3217 39.5508 22.3398L39.1366 22.7467C39.1366 22.7467 39.1148 22.7612 39.1039 22.7612Z" fill="#210B04"/>
<path d="M38.3263 22.7833C38.3263 22.7833 38.3009 22.7761 38.29 22.7652C38.2754 22.747 38.2791 22.7179 38.2972 22.7034L39.1255 22.0495C39.1437 22.035 39.1727 22.0386 39.1873 22.0568C39.2018 22.0749 39.1982 22.104 39.18 22.1185L38.3517 22.7724C38.3517 22.7724 38.3336 22.7833 38.3227 22.7833H38.3263Z" fill="#210B04"/>
<path d="M38.5297 21.7877C38.5297 21.7877 38.497 21.7804 38.4897 21.7623C38.4788 21.7405 38.4897 21.7114 38.5079 21.7005L38.7767 21.5625C38.7985 21.5516 38.8276 21.5625 38.8385 21.5806C38.8494 21.6024 38.8385 21.6315 38.8203 21.6424L38.5515 21.7804C38.5515 21.7804 38.5369 21.7841 38.5297 21.7841V21.7877Z" fill="#210B04"/>
<path d="M24.3501 40.1003C24.1394 40.1476 23.925 40.173 23.7143 40.1803C23.0786 40.1984 22.4646 40.0313 21.9379 39.7153C21.1823 39.2684 20.6046 38.5237 20.3939 37.601V37.5792C20.2523 36.9652 20.2958 36.3585 20.4811 35.8027C20.7027 35.127 21.1423 34.5385 21.7344 34.128C22.0759 33.8882 22.4719 33.7102 22.9042 33.6158C23.1185 33.5685 23.3329 33.5431 23.5472 33.5395C24.2302 33.5177 24.8877 33.7139 25.4363 34.0735C25.9703 34.4186 26.4062 34.9163 26.6714 35.5266C26.755 35.7228 26.824 35.9262 26.8712 36.1369C27.0057 36.7473 26.9657 37.3539 26.7804 37.9025C26.5734 38.531 26.1774 39.0868 25.6543 39.4973C25.2837 39.7807 24.8405 39.9914 24.3537 40.1003H24.3501Z" fill="#E9F3FC"/>
<path d="M24.423 36.2165L23.1733 35.8206L22.4067 36.8886L23.1878 37.9458L24.4339 37.5316L24.423 36.2165Z" fill="#0F0401"/>
<path d="M23.7147 40.1801C23.079 40.1982 22.465 40.0311 21.9383 39.715L21.8801 39.3191L23.0608 38.7415L23.0899 38.7742L23.9763 39.6824L23.7147 40.1801Z" fill="#0F0401"/>
<path d="M20.8374 37.7935L20.6993 37.7354L20.3905 37.601V37.5792C20.2488 36.9652 20.2924 36.3585 20.4777 35.8027L21.0372 35.6792L21.7056 36.8126L21.6802 36.8417L20.8374 37.7935Z" fill="#0F0401"/>
<path d="M22.9153 34.92L21.7092 34.3969L21.7347 34.1281C22.0761 33.8883 22.4721 33.7103 22.9044 33.6158C23.1188 33.5686 23.3331 33.5432 23.5474 33.5396L23.7436 33.8665L23.7836 33.9355L22.9371 34.8946L22.9153 34.92Z" fill="#0F0401"/>
<path d="M25.6511 39.4971L25.3786 39.4099V39.2937L25.3713 38.1021C25.3713 38.0985 26.6065 37.688 26.6065 37.688C26.6174 37.688 26.7809 37.906 26.7809 37.906C26.5738 38.5344 26.1778 39.0903 25.6547 39.5008L25.6511 39.4971Z" fill="#0F0401"/>
<path d="M26.5371 35.785L25.262 35.5634H25.2402L25.0586 34.2701C25.0586 34.2629 25.4364 34.074 25.4364 34.074C25.9704 34.4191 26.4064 34.9168 26.6716 35.5271C26.6716 35.5307 26.5335 35.785 26.5335 35.785H26.5371Z" fill="#0F0401"/>
<path d="M24.423 36.2641C24.423 36.2641 24.3975 36.2569 24.3867 36.246C24.3721 36.2278 24.3758 36.1987 24.3939 36.1806L25.5964 35.2397C25.6145 35.2251 25.6436 35.2288 25.6618 35.2469C25.6763 35.2651 25.6727 35.2942 25.6545 35.3123L24.452 36.2532C24.452 36.2532 24.4339 36.2641 24.423 36.2641Z" fill="#210B04"/>
<path d="M25.8507 38.4471C25.8507 38.4471 25.8325 38.4471 25.8252 38.4399L24.3322 37.5099C24.3104 37.4953 24.3031 37.4699 24.3176 37.4481C24.3321 37.4263 24.3576 37.4191 24.3794 37.4336L25.8725 38.3636C25.8943 38.3781 25.9015 38.4035 25.887 38.4253C25.8797 38.4399 25.8652 38.4471 25.847 38.4471H25.8507Z" fill="#210B04"/>
<path d="M22.9736 39.6716C22.9409 39.668 22.9264 39.6462 22.93 39.6207L23.1734 37.8334C23.1734 37.808 23.1988 37.7898 23.2242 37.7934C23.2497 37.7934 23.2678 37.8189 23.2642 37.8443L23.0208 39.6316C23.0208 39.6534 22.999 39.6716 22.9772 39.6716H22.9736Z" fill="#210B04"/>
<path d="M22.7739 36.9141L20.6015 36.8523C20.576 36.8523 20.5579 36.8305 20.5579 36.8051C20.5579 36.7796 20.5797 36.7615 20.6015 36.7615L22.7739 36.8232C22.7993 36.8232 22.8175 36.845 22.8175 36.8705C22.8175 36.8959 22.7957 36.9141 22.7739 36.9141Z" fill="#210B04"/>
<path d="M23.2931 36.3148C23.2713 36.3148 23.2531 36.3003 23.2495 36.2821L22.6828 34.0915C22.6755 34.0661 22.69 34.0443 22.7155 34.037C22.7373 34.0298 22.7627 34.0443 22.77 34.0697L23.3367 36.2603C23.344 36.2857 23.3294 36.3075 23.304 36.3148C23.3004 36.3148 23.2967 36.3148 23.2931 36.3148Z" fill="#210B04"/>
<path d="M25.3239 34.3932L23.6782 33.8919C23.6528 33.8846 23.6419 33.8592 23.6492 33.8338C23.6564 33.8083 23.6819 33.7974 23.7073 33.8047L25.3384 34.3024C25.3639 34.3097 25.3748 34.3351 25.3675 34.3605C25.3602 34.3787 25.3421 34.3932 25.3239 34.3932Z" fill="#210B04"/>
<path d="M26.6135 37.975C26.5881 37.975 26.5699 37.9568 26.5699 37.9314L26.49 35.6791C26.49 35.6536 26.5082 35.6318 26.5336 35.6318C26.5626 35.6318 26.5808 35.65 26.5808 35.6754L26.6607 37.9314C26.6607 37.9568 26.6426 37.9786 26.6171 37.9786L26.6135 37.975Z" fill="#210B04"/>
<path d="M23.6746 39.8136C23.6564 39.8136 23.6383 39.7991 23.631 39.7809C23.6238 39.7555 23.6383 39.7337 23.6637 39.7264L25.5528 39.2033C25.5782 39.196 25.6036 39.2106 25.6073 39.236C25.6145 39.2614 25.6 39.2832 25.5746 39.2905L23.6855 39.8136C23.6855 39.8136 23.6782 39.8136 23.6746 39.8136Z" fill="#210B04"/>
<path d="M21.9963 39.5048C21.9963 39.5048 21.9672 39.4975 21.9599 39.4866L20.3615 37.3505C20.347 37.3287 20.3506 37.3033 20.3688 37.2888C20.3906 37.2742 20.416 37.2779 20.4342 37.296L22.0326 39.4321C22.0471 39.4539 22.0435 39.4793 22.0253 39.4939C22.0181 39.5011 22.0072 39.5048 21.9963 39.5048Z" fill="#210B04"/>
<path d="M20.8338 35.9878C20.8338 35.9878 20.8193 35.9878 20.812 35.9805C20.7902 35.9696 20.7829 35.9405 20.7938 35.9187L21.7856 34.1714C21.7965 34.1496 21.8255 34.1423 21.8473 34.1532C21.8691 34.1641 21.8764 34.1932 21.8655 34.215L20.8737 35.9623C20.8737 35.9623 20.8483 35.9841 20.8338 35.9841V35.9878Z" fill="#210B04"/>
<path d="M7.51218 14.7689C8.06073 15.2847 8.61292 15.8006 9.16148 16.3128C10.2077 15.4773 11.0178 14.7217 11.5846 14.1658C11.5846 14.1658 14.5998 11.2051 14.2874 9.86458C14.2583 9.74107 14.2111 9.62482 14.2111 9.62482C14.1966 9.59212 14.1857 9.56669 14.1711 9.54126C12.9905 10.1479 11.8098 10.7546 10.6255 11.3613C9.58652 12.4984 8.54753 13.6318 7.50854 14.7689H7.51218Z" fill="#E7BFAD"/>
<path d="M11.501 14.6489C10.7672 14.0386 10.0297 13.4283 9.2959 12.8216C9.94617 11.8153 10.5964 10.809 11.2467 9.8027C11.3521 9.69372 12.4673 8.56391 13.7933 8.86543C14.1348 8.94172 14.4109 9.09794 14.6252 9.25778C14.6579 9.42852 14.6834 9.65739 14.6543 9.92258C14.5998 10.4239 14.3891 10.7908 14.2583 10.9797C13.3392 12.204 12.4201 13.4283 11.501 14.6525V14.6489Z" fill="#6366F1"/>
<path d="M12.4709 18.0314C12.5036 18.2748 12.5762 18.7725 12.7252 19.7642C12.9577 21.3227 12.9831 21.4353 13.0303 21.577C13.3754 22.6051 14.3527 23.7095 15.1919 23.7712C16.4161 23.8657 17.9964 21.8168 18.5195 18.4964C18.5522 17.7226 18.5776 17.0541 18.6103 16.2804C18.7556 15.997 18.8973 15.7027 19.0317 15.3939C19.504 14.3005 19.8164 13.2252 20.0126 12.208C20.3287 10.5768 19.2206 9.00019 17.5786 8.74952C17.0482 8.6696 16.4706 8.62237 15.8494 8.62964C15.6423 8.62964 15.4389 8.64054 15.2427 8.65507C14.7014 8.6914 14.142 8.77859 13.9858 8.81855C13.0921 9.04015 12.6598 10.8929 12.5217 11.5141C11.9477 14.0752 12.2529 16.3893 12.4745 18.0277L12.4709 18.0314Z" fill="#E7BFAD"/>
<path d="M23.075 25.0461C23.5364 25.0025 23.9941 24.9589 24.4555 24.9117C24.5536 23.9454 24.6807 23.1643 24.7825 22.6194C25.2075 20.3307 25.3746 19.6042 25.2329 18.4489C25.1312 17.6025 24.8805 16.905 24.6371 16.3855L22.759 17.3664C22.6718 18.1002 22.6718 18.6887 22.6827 19.0665C22.7517 21.1372 23.3729 22.0963 23.224 24.0144C23.1876 24.4721 23.1186 24.8354 23.075 25.0461Z" fill="#E7BFAD"/>
<path d="M2.2009 21.3549C2.56418 21.6382 2.92746 21.9216 3.29438 22.2086C4.0282 21.5765 4.66032 21.097 5.11078 20.77C6.99622 19.4004 7.61379 18.9899 8.30766 18.0563C8.81626 17.3733 9.11415 16.6903 9.29579 16.1491C8.70001 15.6913 8.10786 15.23 7.51208 14.7722C6.72012 15.5097 6.1861 16.1854 5.85188 16.6431C4.69664 18.2488 4.43508 19.4295 3.01828 20.7082C2.68406 21.0098 2.38254 21.2277 2.19727 21.3549H2.2009Z" fill="#E7BFAD"/>
<path d="M6.36786 27.4981C6.12083 28.0975 5.56501 29.4562 6.00095 29.8013C6.50954 30.2046 8.07165 28.9876 8.30415 28.8023C9.75365 28.0975 16.1256 21.0026 16.5579 19.8946C15.2138 19.8292 13.8733 19.7638 12.5291 19.6948C8.56572 23.1351 7.0363 25.8706 6.36786 27.4945V27.4981Z" fill="#E7BFAD"/>
<path d="M18.6177 6.87471C18.5377 6.94373 18.4469 7.03092 18.3525 7.12901C18.3125 7.16897 18.2689 7.21256 18.2289 7.25615L18.1599 7.33608C18.0836 7.42326 18.0037 7.51772 17.9311 7.62307C17.7712 7.82651 17.6186 8.06627 17.4842 8.3351C17.4515 8.40412 17.4152 8.48041 17.3825 8.55307C17.3462 8.63662 17.3098 8.72018 17.2808 8.8001C17.2735 8.81826 17.2699 8.8328 17.2626 8.85459C17.1536 9.16338 17.081 9.45401 17.0447 9.70467C17.0192 9.84635 17.0047 9.9735 16.9938 10.0861C16.1001 9.78823 15.2101 9.4867 14.3164 9.18881C15.0829 8.01178 15.8458 6.83475 16.6123 5.65771L17.0301 5.90838L18.4687 6.78389L18.6213 6.87471H18.6177Z" fill="#E7BFAD"/>
<path d="M2.27018 23.3642C2.13214 23.4622 1.9396 23.6148 1.74342 23.8255C1.61991 23.9599 1.50729 24.0435 1.52909 24.1053C1.55452 24.1634 1.6853 24.1634 1.73616 24.1634C2.1285 24.1597 2.6153 23.7274 2.85143 23.4949C3.01854 23.3533 3.20382 23.1825 3.38546 22.9754C3.52714 22.8156 3.64702 22.663 3.74511 22.5177C3.78143 22.3361 3.84682 21.9256 3.70514 21.8529C3.49807 21.7476 2.97495 22.4414 2.92409 22.5068C2.70612 22.7938 2.48452 23.0772 2.26655 23.3642H2.27018Z" fill="#E7BFAD"/>
<path d="M1.19117 23.3276C1.17664 23.7491 1.2275 24.0651 1.32195 24.0796C1.41278 24.0942 1.55809 23.8108 1.67434 23.4076C1.84145 23.295 2.00492 23.1823 2.17203 23.0697C2.31371 23.0152 2.45539 22.9644 2.59707 22.9099C2.77508 22.8045 3.70145 22.2414 3.60336 21.9835C3.53434 21.7982 2.96035 21.8455 2.6443 21.8854C2.40453 22.0453 2.1684 22.2087 1.92864 22.3686C1.68524 22.6883 1.4382 23.008 1.19481 23.3276H1.19117Z" fill="#E7BFAD"/>
<path d="M1.64878 21.6562C1.55796 21.6562 0.889522 21.6671 0.562569 22.143C0.373662 22.4227 0.366396 22.7606 0.359131 23.0476C0.359131 23.1239 0.359131 23.3164 0.413623 23.5489C0.468115 23.7705 0.529873 24.0284 0.733311 24.1193C0.813233 24.1556 0.896788 24.1592 0.95128 24.152C0.980342 23.8432 1.01304 23.5308 1.0421 23.222C1.34362 22.9132 1.64878 22.6044 1.9503 22.292C1.84859 22.0776 1.74687 21.8669 1.64878 21.6526V21.6562Z" fill="#E7BFAD"/>
<path d="M0.668061 21.8566C1.02408 21.882 1.38009 21.9111 1.73974 21.9365C1.75064 21.773 1.76517 21.6096 1.77607 21.4425C1.51814 21.3952 1.26021 21.348 1.00228 21.3008C0.824272 21.3589 0.555444 21.4788 0.326576 21.7295C0.224857 21.8421 0.0686463 22.0455 0.11224 22.0964C0.141303 22.1291 0.257553 22.1073 0.668061 21.853V21.8566Z" fill="#E7BFAD"/>
<path d="M1.59801 21.4277C1.4745 21.9291 1.65977 22.3904 1.99399 22.5503C2.2047 22.652 2.4263 22.6084 2.53165 22.5757C2.93126 22.4013 3.3345 22.2269 3.73411 22.0526C3.47981 21.7038 3.22552 21.3514 2.97122 21.0027C2.51348 21.1444 2.05575 21.286 1.59801 21.4314V21.4277Z" fill="#E7BFAD"/>
<path d="M0.675352 24.0942C0.649922 24.0942 0.631758 24.076 0.631758 24.0506L0.591797 22.859C0.591797 22.8336 0.609961 22.8118 0.635391 22.8118C0.66082 22.8118 0.682617 22.8299 0.682617 22.8554L0.722578 24.0469C0.722578 24.0724 0.704414 24.0942 0.678984 24.0942H0.675352Z" fill="#210B04"/>
<path d="M0.675177 22.8336C0.675177 22.8336 0.649748 22.8264 0.638849 22.8155C0.624318 22.7973 0.627951 22.7682 0.646115 22.7501L1.52889 22.0707C1.55069 22.0562 1.57612 22.0598 1.59428 22.078C1.61244 22.0962 1.60518 22.1252 1.58701 22.1434L0.70424 22.8227C0.70424 22.8227 0.686076 22.8336 0.675177 22.8336Z" fill="#210B04"/>
<path d="M0.864305 21.9584C0.864305 21.9584 0.83161 21.9475 0.824344 21.933C0.813445 21.9112 0.824344 21.8822 0.846141 21.8713L1.29661 21.6642C1.31841 21.6533 1.34747 21.6642 1.35837 21.686C1.36927 21.7078 1.35837 21.7368 1.33657 21.7477L0.886102 21.9548C0.886102 21.9548 0.875203 21.9584 0.867938 21.9584H0.864305Z" fill="#210B04"/>
<path d="M1.80504 22.4959C1.80504 22.4959 1.77598 22.4886 1.76872 22.4777C1.75419 22.4559 1.76145 22.4305 1.77962 22.4159L2.04481 22.2343C2.06661 22.2198 2.09204 22.227 2.10657 22.2452C2.1211 22.267 2.11383 22.2924 2.09567 22.3069L1.83047 22.4886C1.83047 22.4886 1.81231 22.4959 1.80504 22.4959Z" fill="#210B04"/>
<path d="M2.64433 22.9609C2.64433 22.9609 2.6298 22.9609 2.62254 22.9537C2.60074 22.9428 2.59347 22.9137 2.60437 22.8919L2.79691 22.5395C2.80781 22.5177 2.83687 22.5105 2.85867 22.5214C2.88047 22.5323 2.88773 22.5613 2.87683 22.5831L2.68429 22.9355C2.68429 22.9355 2.65886 22.9573 2.64433 22.9573V22.9609Z" fill="#210B04"/>
<path d="M23.2639 23.8326C23.689 23.829 24.114 23.8217 24.5391 23.8181C24.8079 24.2504 25.0622 24.7626 25.262 25.3548C25.2983 25.4638 25.331 25.5728 25.3637 25.6818C25.2874 25.8053 25.0077 26.223 24.4555 26.4119C23.7507 26.6517 23.1549 26.332 23.0605 26.2775C23.0387 25.6672 23.0133 25.2494 22.9878 24.9479C22.9806 24.8535 22.966 24.7009 22.9987 24.5011C23.046 24.2032 23.1731 23.9743 23.2676 23.8326H23.2639Z" fill="#E7BFAD"/>
<path d="M23.9578 26.2376L24.7606 26.1868L24.8333 27.3384L24.1503 27.9668C23.8997 28.094 23.6744 28.0867 23.6236 28.0032C23.5727 27.9196 23.6744 27.7017 23.9251 27.5345C24.0341 27.4328 24.1431 27.3311 24.252 27.2294C24.154 26.8988 24.0559 26.5682 23.9578 26.2376Z" fill="#E7BFAD"/>
<path d="M24.5356 26.0452L24.9897 26.0162C25.1133 25.8963 25.2331 25.78 25.3567 25.6602C25.3639 25.6856 25.462 26.0634 25.2404 26.2741C25.2077 26.3068 25.1569 26.3431 25.0878 26.3686C25.2586 26.612 25.2222 26.9135 25.0479 27.0515C24.8808 27.1859 24.6446 27.1205 24.6228 27.1133C24.5938 26.7573 24.5647 26.4013 24.5356 26.0452Z" fill="#E7BFAD"/>
<path d="M23.2676 25.994L23.947 25.9504L24.0233 27.1856C23.4784 28.0793 23.2459 28.2173 23.1332 28.1774C23.0388 28.1447 23.0134 27.9848 23.0025 27.9303C22.9334 27.538 23.3294 27.2437 23.3476 27.2292C23.3221 26.8187 23.2967 26.4082 23.2713 25.994H23.2676Z" fill="#E7BFAD"/>
<path d="M23.0641 24.2473C23.1041 24.6433 23.144 25.0393 23.1876 25.4316C23.1622 25.8675 23.1404 26.3071 23.115 26.7431C23.115 26.8084 23.1331 27.1935 23.0096 27.2299C22.897 27.2626 22.7044 27.0409 22.6209 26.8193C22.541 26.605 22.5882 26.4633 22.6318 26.0892C22.7081 25.4352 22.6136 25.4134 22.7008 25.0465C22.748 24.854 22.8425 24.5706 23.0641 24.2473Z" fill="#E7BFAD"/>
<path d="M25.1059 26.4445C25.1059 26.4445 25.0696 26.4336 25.0623 26.4154L24.848 25.8778C24.8371 25.856 24.848 25.8269 24.8734 25.8196C24.8952 25.8087 24.9242 25.8196 24.9315 25.8451L25.1458 26.3827C25.1567 26.4045 25.1458 26.4336 25.1204 26.4408C25.1132 26.4408 25.1095 26.4408 25.1023 26.4408L25.1059 26.4445Z" fill="#210B04"/>
<path d="M24.8188 27.1675C24.797 27.1675 24.7789 27.153 24.7753 27.1348L24.4955 26.1176C24.4883 26.0922 24.5028 26.0668 24.5282 26.0631C24.5536 26.0559 24.5791 26.0704 24.5827 26.0958L24.8624 27.113C24.8697 27.1385 24.8552 27.1639 24.8297 27.1675C24.8261 27.1675 24.8225 27.1675 24.8188 27.1675Z" fill="#210B04"/>
<path d="M23.9834 26.5859C23.9616 26.5859 23.9398 26.5678 23.9398 26.5423L23.918 26.2372C23.918 26.2117 23.9361 26.1899 23.9579 26.1899C23.9834 26.1899 24.0052 26.2081 24.0052 26.2335L24.027 26.5387C24.027 26.5641 24.0088 26.5859 23.987 26.5859H23.9834Z" fill="#210B04"/>
<path d="M10.6547 27.8943C10.7164 27.8943 10.7709 27.898 10.8291 27.9052C10.9489 27.9125 11.0616 27.927 11.1669 27.9379C11.1814 27.9379 11.196 27.9379 11.2105 27.9452C11.2686 27.9525 11.3195 27.9634 11.374 27.9706C11.5048 27.9888 11.6283 28.0142 11.7482 28.0433C13.1395 28.3593 14.1422 29.0714 16.6743 29.6926C17.2265 29.827 17.6878 29.9178 17.9857 29.9687C17.9639 30.3356 17.9421 30.7025 17.9203 31.0658C15.806 30.8078 13.5573 30.6153 11.1742 30.5172C11.0434 30.51 10.9199 30.5027 10.7927 30.4991C10.7237 30.4991 10.6729 30.4954 10.622 30.4954C10.4948 30.4918 10.3641 30.4845 10.2369 30.4809C10.1098 30.4773 9.98262 30.4736 9.85547 30.47C8.87098 30.4409 7.90465 30.4337 6.96012 30.4409C6.30258 30.2411 5.84121 29.7761 5.84847 29.3656C5.85937 28.8389 6.63679 28.1995 7.73754 28.3521C8.94 27.927 9.92449 27.8507 10.6656 27.8943H10.6547Z" fill="#E7BFAD"/>
<path d="M20.3035 34.6551C20.3326 33.9794 20.3035 33.4344 20.2744 33.0784C20.1473 31.5127 19.8276 31.1894 19.9656 30.4119C19.9911 30.2775 20.071 29.8961 19.9475 29.4492C19.8893 29.2349 19.8058 29.0714 19.7477 28.977C19.5261 28.9443 19.1991 28.937 18.8794 29.0969C18.7559 29.1586 18.6796 29.2204 18.6324 29.2567C18.4144 29.4274 18.0548 29.649 17.4408 29.8707C17.4408 30.2267 17.4336 30.5791 17.4299 30.9351C17.8513 31.3637 18.4617 32.014 19.0829 32.7733C19.8203 33.6778 19.8639 33.874 19.8712 34.0193C19.8785 34.1356 19.8712 34.4444 20.071 34.586C20.1509 34.6442 20.2381 34.6587 20.3035 34.6587V34.6551Z" fill="#E9F3FC"/>
<path d="M20.26 29.7292C20.1946 29.6384 20.0565 29.4313 20.0783 29.1588C20.082 29.1007 20.0929 29.0498 20.1074 29.0026C20.0347 28.959 19.6061 28.7156 19.0684 28.8609C18.5526 29.0026 18.3128 29.4022 18.2656 29.4822C18.9522 29.7655 19.1447 30.038 19.1592 30.2523C19.1956 30.8408 17.9422 31.2622 18.044 31.7781C18.0803 31.9634 18.2728 32.0832 18.4545 32.1632C18.8395 32.5047 19.0575 32.8352 19.1847 33.0605C19.5915 33.7979 19.5915 34.4954 20.0747 34.6807C20.1837 34.7207 20.2818 34.7279 20.3472 34.7243C20.3217 33.0605 20.2927 31.393 20.2672 29.7292H20.26Z" fill="#0F0401"/>
<path d="M20.1325 28.9192C20.0635 28.9192 20.009 28.9773 20.009 29.0463L20.1434 34.6954C20.1434 34.7644 20.2016 34.8189 20.2706 34.8189C20.3396 34.8189 20.3941 34.7608 20.3941 34.6917L20.2597 29.0427C20.2597 28.9737 20.2016 28.9192 20.1325 28.9192Z" fill="#0F0401"/>
<path d="M19.2717 32.0541C19.2499 32.0141 19.199 31.9996 19.1591 32.0214L18.5597 32.3447C18.5197 32.3665 18.5052 32.4173 18.527 32.4573C18.5488 32.4973 18.5996 32.5118 18.6396 32.49L19.239 32.1667C19.279 32.1449 19.2935 32.094 19.2717 32.0541Z" fill="#E9F3FC"/>
<path d="M19.4389 32.305C19.4171 32.2651 19.3663 32.2505 19.3263 32.2723L18.7269 32.5957C18.6869 32.6174 18.6724 32.6683 18.6942 32.7083C18.716 32.7482 18.7669 32.7628 18.8068 32.741L19.4062 32.4176C19.4462 32.3958 19.4607 32.345 19.4389 32.305Z" fill="#E9F3FC"/>
<path d="M19.5622 32.6212C19.5404 32.5812 19.4896 32.5667 19.4496 32.5885L18.8502 32.9118C18.8102 32.9336 18.7957 32.9845 18.8175 33.0244C18.8393 33.0644 18.8902 33.0789 18.9301 33.0571L19.5295 32.7338C19.5695 32.712 19.584 32.6611 19.5622 32.6212Z" fill="#E9F3FC"/>
<path d="M19.7297 32.933C19.7079 32.893 19.657 32.8785 19.6171 32.9003L19.0177 33.2236C18.9777 33.2454 18.9632 33.2962 18.985 33.3362C19.0068 33.3762 19.0576 33.3907 19.0976 33.3689L19.697 33.0456C19.737 33.0238 19.7515 32.9729 19.7297 32.933Z" fill="#E9F3FC"/>
<path d="M10.6547 27.8943C10.7164 27.8943 10.7709 27.8979 10.8291 27.9052C10.9489 27.9124 11.0616 27.927 11.1669 27.9379C11.1814 27.9379 11.196 27.9378 11.2105 27.9451C11.2686 27.9524 11.3195 27.9633 11.374 27.9705C11.5048 27.9887 11.6283 28.0141 11.7482 28.0432C13.1395 28.3593 14.1422 29.0713 16.6743 29.6925C17.2265 29.8269 17.6878 29.9177 17.9857 29.9686C17.9639 30.3355 17.9421 30.7024 17.9203 31.0657C15.806 30.8078 13.5573 30.6152 11.1742 30.5171C11.0434 30.5099 10.9199 30.5026 10.7927 30.499C10.7237 30.499 10.6729 30.4954 10.622 30.4954C10.4948 30.4917 10.3641 30.4845 10.2369 30.4808C10.1098 30.4772 9.98262 30.4736 9.85547 30.4699C10.1243 29.6126 10.3931 28.748 10.6656 27.8906L10.6547 27.8943Z" fill="#E9F3FC"/>
<path d="M10.8292 27.905C10.949 27.9123 11.0617 27.9268 11.167 27.9377C11.1815 27.9377 11.1961 27.9377 11.2106 27.945L10.6148 30.4989C10.4877 30.4952 10.3569 30.488 10.2297 30.4843L10.8328 27.905H10.8292Z" fill="#0F0401"/>
<path d="M11.3739 27.9744C11.5047 27.9925 11.6282 28.018 11.7481 28.047L11.1705 30.5246C11.0397 30.5173 10.9162 30.5101 10.7891 30.5064L11.3776 27.978L11.3739 27.9744Z" fill="#0F0401"/>
<path d="M16.8448 34.6876C16.8775 34.7384 16.9066 34.7893 16.932 34.8401C16.9938 34.9455 17.041 35.0436 17.0919 35.1417C17.0991 35.1562 17.1064 35.1671 17.11 35.1816C17.1355 35.2325 17.1573 35.2833 17.1791 35.3342C17.2336 35.4541 17.2844 35.5703 17.328 35.6829C17.833 37.0162 17.8003 38.2441 18.6867 40.6962C18.8792 41.2303 19.0609 41.6626 19.1807 41.9387C18.8611 42.1239 18.545 42.3092 18.2326 42.4908C17.2735 40.5909 16.1873 38.611 14.9485 36.573C14.8831 36.4604 14.8177 36.355 14.7523 36.2424C14.716 36.1843 14.6906 36.1371 14.6615 36.0971C14.5925 35.9881 14.5271 35.8755 14.4581 35.7665C14.3891 35.6575 14.3237 35.5522 14.2546 35.4432C13.7315 34.6076 13.2011 33.7975 12.6744 33.0165C12.4782 32.3589 12.6053 31.7195 12.9541 31.4979C13.3973 31.2146 14.3636 31.5052 14.8468 32.5079C15.8676 33.2744 16.4743 34.0518 16.8521 34.6876H16.8448Z" fill="#E7BFAD"/>
<path d="M16.5685 46.4655C17.1461 46.1131 17.5821 45.7861 17.8654 45.5645C19.097 44.5909 19.1878 44.1441 19.9143 43.828C20.0415 43.7736 20.4011 43.6282 20.7063 43.2795C20.8516 43.1124 20.9388 42.9525 20.9897 42.8508C20.8916 42.6474 20.7208 42.3713 20.4084 42.1933C20.2885 42.1243 20.1941 42.0952 20.1359 42.077C19.8744 41.9898 19.4893 41.8155 18.9625 41.4268C18.6646 41.6193 18.3704 41.8155 18.0725 42.008C17.949 42.5965 17.7492 43.4648 17.4586 44.402C17.1134 45.5173 16.9754 45.6626 16.8591 45.7498C16.7647 45.8188 16.5068 45.9859 16.4959 46.2293C16.4922 46.3274 16.5286 46.4073 16.5649 46.4655H16.5685Z" fill="#E9F3FC"/>
<path d="M20.6483 43.6973C20.6846 43.592 20.7863 43.3631 21.0188 43.2287C21.0697 43.1996 21.1169 43.1814 21.1641 43.1669C21.1605 43.0797 21.1242 42.5893 20.7064 42.226C20.3031 41.8773 19.8381 41.8954 19.7437 41.9027C19.8854 42.6329 19.7691 42.9417 19.5984 43.0725C19.1297 43.4285 18.0835 42.622 17.7093 42.9925C17.5749 43.1233 17.5822 43.3522 17.6185 43.5484C17.5495 44.0606 17.3933 44.4239 17.277 44.6527C16.8883 45.3975 16.307 45.7862 16.4233 46.2911C16.4487 46.4038 16.4996 46.4873 16.5359 46.5418C17.9055 45.5973 19.2787 44.6491 20.6483 43.7046V43.6973Z" fill="#0F0401"/>
<path d="M21.2514 43.1446C21.2115 43.0865 21.1315 43.0756 21.077 43.1156L16.4488 46.3597C16.3907 46.3996 16.3798 46.4796 16.4198 46.5341C16.4597 46.5922 16.5397 46.6031 16.5941 46.5631L21.2224 43.319C21.2805 43.279 21.2914 43.1991 21.2514 43.1446Z" fill="#0F0401"/>
<path d="M18.1634 44.166C18.1852 44.126 18.1707 44.0751 18.1271 44.0533L17.5277 43.7336C17.4877 43.7118 17.4368 43.7264 17.415 43.77C17.3932 43.8136 17.4078 43.8608 17.4514 43.8826L18.0508 44.2023C18.0907 44.2241 18.1416 44.2095 18.1634 44.166Z" fill="#E9F3FC"/>
<path d="M18.0472 44.4455C18.069 44.4055 18.0545 44.3547 18.0109 44.3329L17.4114 44.0132C17.3715 43.9914 17.3206 44.0059 17.2988 44.0495C17.277 44.0895 17.2916 44.1403 17.3352 44.1621L17.9346 44.4818C17.9745 44.5036 18.0254 44.4891 18.0472 44.4455Z" fill="#E9F3FC"/>
<path d="M17.949 44.6889C17.9708 44.6489 17.9563 44.5981 17.9127 44.5763L17.3133 44.2566C17.2733 44.2348 17.2225 44.2493 17.2007 44.2929C17.1789 44.3329 17.1934 44.3837 17.237 44.4055L17.8364 44.7252C17.8764 44.747 17.9273 44.7325 17.949 44.6889Z" fill="#E9F3FC"/>
<path d="M17.8182 44.9831C17.84 44.9431 17.8255 44.8923 17.7819 44.8705L17.1824 44.5508C17.1425 44.529 17.0916 44.5435 17.0698 44.5871C17.048 44.6271 17.0626 44.6779 17.1062 44.6997L17.7056 45.0194C17.7455 45.0412 17.7964 45.0267 17.8182 44.9831Z" fill="#E9F3FC"/>
<path d="M16.8448 34.6877C16.8775 34.7386 16.9066 34.7895 16.932 34.8403C16.9938 34.9457 17.041 35.0438 17.0919 35.1418C17.0991 35.1564 17.1064 35.1673 17.11 35.1818C17.1355 35.2327 17.1573 35.2835 17.1791 35.3344C17.2335 35.4543 17.2844 35.5705 17.328 35.6831C17.833 37.0164 17.8003 38.2443 18.6867 40.6964C18.8792 41.2304 19.0609 41.6628 19.1807 41.9388C18.861 42.1241 18.545 42.3094 18.2326 42.491C17.2735 40.5911 16.1873 38.6112 14.9485 36.5732C14.8831 36.4606 14.8177 36.3552 14.7523 36.2426C14.716 36.1845 14.6906 36.1372 14.6615 36.0973C14.5925 35.9883 14.5271 35.8793 14.4581 35.7667C14.3891 35.6577 14.3237 35.5524 14.2546 35.4434C15.1192 35.1927 15.9839 34.9348 16.8521 34.6877H16.8448Z" fill="#E9F3FC"/>
<path d="M16.9319 34.8403C16.9937 34.9457 17.0409 35.0438 17.0918 35.1419C17.099 35.1564 17.1063 35.1673 17.1099 35.1818L14.6578 36.1009C14.5888 35.9919 14.5234 35.8829 14.4543 35.7703L16.9356 34.8403H16.9319Z" fill="#0F0401"/>
<path d="M17.1789 35.3308C17.2334 35.4507 17.2843 35.5669 17.3279 35.6796L14.9484 36.5732C14.883 36.4606 14.8176 36.3553 14.7522 36.2426L17.1826 35.3308H17.1789Z" fill="#0F0401"/>
<path d="M12.2675 31.1054C12.2966 31.832 12.3656 33.2233 12.8924 33.3541C13.5208 33.5103 14.4363 31.752 14.5707 31.4868C15.359 30.0083 16.2237 28.0647 16.8812 25.6998C17.5133 23.4184 17.7712 21.3767 17.8657 19.7419C16.6305 20.5194 15.3917 21.3004 14.1566 22.0778C12.4056 26.3718 12.1949 29.3398 12.2712 31.1054H12.2675Z" fill="#E7BFAD"/>
<path d="M13.4517 22.5103C12.954 24.0071 13.5571 25.551 14.7922 25.9615C16.0274 26.372 17.4333 25.4892 17.931 23.9962C18.4287 22.4994 17.8256 20.9555 16.5905 20.545C15.3553 20.1345 13.9494 21.0172 13.4517 22.5103Z" fill="#FFB19F"/>
<path d="M10.7016 27.2113C10.4982 27.3058 10.3056 27.3494 10.1349 27.3675C8.53281 27.5419 7.26133 25.4894 7.15234 25.3077C7.82078 24.3196 8.68176 23.1934 9.77887 22.0418C10.8033 20.9665 11.8132 20.1019 12.7142 19.4153C13.3281 20.5197 13.9457 21.624 14.5597 22.7284C13.2736 24.2215 11.9876 25.7182 10.7016 27.2113Z" fill="#6366F1"/>
<path d="M16.1002 29.7833C15.7987 29.9032 14.756 30.281 13.5427 29.8778C12.718 29.6053 12.2022 29.1003 11.9624 28.8351C12.3838 26.9824 12.8052 25.1297 13.2266 23.2806C13.0559 21.9909 12.8851 20.7013 12.7144 19.4116C14.371 19.6913 16.0239 19.9711 17.6805 20.2472C17.913 20.6795 18.6141 22.0999 18.1854 23.7819C18.0292 24.4031 17.7604 24.8899 17.5242 25.235C17.052 26.7499 16.5761 28.2648 16.1038 29.7797L16.1002 29.7833Z" fill="#6366F1"/>
<path d="M20.187 22.1831C19.6101 23.0126 19.337 23.5236 18.5269 23.2802C18.4433 23.2584 18.3634 23.2294 18.2871 23.1967C18.229 23.1712 18.1781 23.1458 18.1272 23.1167C17.5932 22.8334 17.5097 22.4483 16.7722 22.1831C16.2781 22.0051 15.8567 22.0087 15.439 22.0814C15.2973 22.1032 15.1629 22.1359 15.0212 22.1722C14.4617 22.303 13.8768 22.4992 13.114 22.4592C12.7725 22.4447 12.3474 22.3829 11.8715 22.2049C11.7553 22.165 11.6281 22.1141 11.5046 22.056C11.1014 21.8707 10.6691 21.6055 10.2004 21.235C10.2041 21.2132 10.2041 21.195 10.2077 21.1696C10.2368 20.9189 10.2658 20.6682 10.2949 20.4212C10.64 17.4605 10.9815 14.4888 11.3266 11.5244C11.4392 10.5145 12.0168 9.58814 12.9178 9.11225C12.9759 9.08318 13.0304 9.05412 13.0922 9.02869C13.2484 8.95603 13.4155 8.89064 13.5935 8.84342C13.7025 8.81072 13.8224 8.78166 13.9386 8.7635C14.0549 8.74533 14.1711 8.7308 14.2801 8.72353C14.3963 8.71627 14.5126 8.71264 14.6179 8.71627C14.607 8.81799 14.5998 8.91607 14.5961 9.01779C14.5162 10.173 14.6615 11.1248 15.0866 11.2665C15.6024 11.4481 16.576 10.4419 17.4116 8.7199C17.5206 8.7308 17.7276 8.75623 17.9819 8.82889C18.1018 8.86158 18.2399 8.90518 18.3779 8.95967C18.436 8.98146 18.4942 9.00689 18.5559 9.03596C18.6794 9.09408 18.8138 9.15947 18.941 9.23939C19.188 9.39197 19.4387 9.58814 19.6639 9.84244C20.1108 10.3401 20.3106 10.8669 20.4014 11.1902C22.0289 14.4924 21.8908 16.3307 21.3968 17.4169C21.2515 17.7293 20.9717 18.2197 20.9681 18.9317C20.9645 20.2105 20.876 20.3847 20.6517 21.2981L20.187 22.1831Z" fill="#E9F3FC"/>
<path d="M22.7408 17.6099C23.3729 17.2031 24.0086 16.7962 24.6407 16.3857C24.0849 15.1687 23.5509 14.1951 23.1476 13.5121C23.1476 13.5121 21.0115 9.86479 19.6347 9.83936C19.5075 9.83936 19.384 9.85752 19.384 9.85752C19.3513 9.86115 19.3186 9.86842 19.2932 9.87568C19.5947 11.169 19.8926 12.4622 20.1942 13.7555C21.0406 15.0415 21.8907 16.3239 22.7371 17.6099H22.7408Z" fill="#E7BFAD"/>
<path d="M23.5945 13.7081C22.69 14.3693 21.789 15.0305 20.8845 15.6916C20.0852 14.9469 19.2824 14.2022 18.4832 13.4611C18.3524 13.145 17.7094 11.4921 18.5413 10.0753C18.712 9.78832 18.9155 9.55219 19.1262 9.36328C19.3006 9.37418 19.5258 9.40324 19.7801 9.4977C20.2523 9.67207 20.5575 9.96633 20.7065 10.1407C21.6691 11.3286 22.6318 12.5202 23.5945 13.7081Z" fill="#6366F1"/>
<path d="M9.29604 16.1931L8.64577 16.0914C8.62034 16.0878 8.60581 16.066 8.60944 16.0405C8.61307 16.0151 8.6385 16.0006 8.6603 16.0042L9.30331 16.1059C9.32874 16.1096 9.34327 16.1314 9.33964 16.1568C9.33964 16.1786 9.31784 16.1968 9.29604 16.1968V16.1931Z" fill="#210B04"/>
<path d="M22.7409 17.6532C22.7409 17.6532 22.7191 17.6495 22.7082 17.6386C22.69 17.6205 22.69 17.5914 22.7082 17.5733L23.1441 17.1192C23.1441 17.1192 23.1914 17.101 23.2095 17.1192C23.2277 17.1373 23.2277 17.1664 23.2095 17.1845L22.7736 17.6386C22.7736 17.6386 22.7518 17.6532 22.7409 17.6532Z" fill="#210B04"/>
<path d="M14.8395 32.5552H13.964C13.9386 32.5552 13.9204 32.5334 13.9204 32.5116C13.9204 32.4898 13.9422 32.468 13.964 32.468H14.8395C14.8649 32.468 14.8831 32.4898 14.8831 32.5116C14.8831 32.5334 14.8613 32.5552 14.8395 32.5552Z" fill="#210B04"/>
<path d="M7.39577 28.8606C7.39577 28.8606 7.35679 28.8483 7.349 28.8278C7.3373 28.8032 7.349 28.7704 7.37628 28.7622L9.41852 27.9095C9.4419 27.8972 9.47308 27.9095 9.48088 27.9382C9.49257 27.9628 9.48088 27.9956 9.45359 28.0038L7.41136 28.8565C7.41136 28.8565 7.39966 28.8565 7.39187 28.8565L7.39577 28.8606Z" fill="#210B04"/>
<path d="M18.6904 6.51173L18.6213 6.59165C18.5668 6.65341 18.516 6.71517 18.4651 6.78419C18.2835 7.00943 18.1055 7.27825 17.9456 7.59068C17.942 7.60157 17.9347 7.61247 17.9311 7.62337C17.7713 7.82681 17.6187 8.06657 17.4843 8.3354C17.4516 8.40443 17.4152 8.48072 17.3825 8.55337C17.3462 8.63693 17.3099 8.72048 17.2808 8.8004C17.2736 8.81857 17.2699 8.8331 17.2627 8.8549C16.8521 8.6006 16.5615 7.99392 16.5615 7.28189C16.5615 6.7188 16.7432 6.21747 17.0265 5.90505C17.2118 5.69798 17.4443 5.57446 17.6877 5.57446C18.1236 5.57446 18.5014 5.95228 18.6867 6.5081L18.6904 6.51173Z" fill="#0F0401"/>
<path d="M20.0491 6.12638L20.0274 6.1736C19.9474 6.35161 19.8966 6.45696 19.853 6.54415C19.7767 6.6931 19.7476 6.71489 19.7077 6.81298C19.6423 6.97282 19.6604 7.03458 19.6132 7.18353C19.5696 7.32521 19.5079 7.41966 19.4243 7.53954C19.0065 8.16075 18.7922 8.47318 18.4761 8.59306C17.6515 8.90548 16.5217 7.78657 16.2674 7.16173C16.1475 6.86384 16.1112 6.55505 16.1112 6.55505C16.093 6.37341 16.0966 6.2063 16.1112 6.07915C16.1511 5.77399 16.2274 5.39618 16.3873 4.98204C16.6597 4.27727 17.0521 3.78321 17.3354 3.48169C17.6115 3.43446 18.3744 3.34001 19.2136 3.73235C19.9801 4.092 20.3834 4.65872 20.5359 4.89849C20.4379 5.17821 20.3071 5.51606 20.1472 5.89024C20.1145 5.96653 20.0818 6.04282 20.0455 6.12274L20.0491 6.12638Z" fill="#E7BFAD"/>
<path d="M20.3432 3.61984C20.3432 4.12481 19.584 4.53168 18.6467 4.53168C17.7095 4.53168 16.9502 4.12117 16.9502 3.61984C16.9502 3.11852 17.7095 2.70801 18.6467 2.70801C19.584 2.70801 20.3432 3.11852 20.3432 3.61984Z" fill="#0F0401"/>
<path d="M19.7002 3.77951C19.7002 4.28447 18.9409 4.69135 18.0037 4.69135C17.0664 4.69135 16.3071 4.28084 16.3071 3.77951C16.3071 3.27818 17.0664 2.86768 18.0037 2.86768C18.9409 2.86768 19.7002 3.27818 19.7002 3.77951Z" fill="#0F0401"/>
<path d="M20.8412 4.38279C20.8412 4.75334 20.3217 5.05123 19.6823 5.05123C19.0429 5.05123 18.5234 4.75334 18.5234 4.38279C18.5234 4.01225 19.0429 3.71436 19.6823 3.71436C20.3217 3.71436 20.8412 4.01225 20.8412 4.38279Z" fill="#0F0401"/>
<path d="M21.2551 3.87385C21.2551 4.23713 20.9246 4.53139 20.514 4.53139C20.1035 4.53139 19.7729 4.23713 19.7729 3.87385C19.7729 3.51057 20.1035 3.21631 20.514 3.21631C20.9246 3.21631 21.2551 3.51057 21.2551 3.87385Z" fill="#0F0401"/>
<path d="M21.455 4.88029C21.455 5.20361 20.9646 5.46518 20.3615 5.46518C19.7585 5.46518 19.2681 5.20361 19.2681 4.88029C19.2681 4.55697 19.7585 4.29541 20.3615 4.29541C20.9646 4.29541 21.455 4.55697 21.455 4.88029Z" fill="#0F0401"/>
<path d="M18.12 3.62693C17.942 3.80494 17.615 3.76498 17.3898 3.53611C17.1645 3.31088 17.1209 2.98029 17.2989 2.80592C17.477 2.62791 17.8039 2.66787 18.0291 2.89674C18.2544 3.12561 18.298 3.45256 18.12 3.62693Z" fill="#0F0401"/>
<path d="M18.0038 4.45549C18.0038 4.82967 17.6586 5.13119 17.2372 5.13119C16.8158 5.13119 16.4707 4.82967 16.4707 4.45549C16.4707 4.08131 16.8158 3.77979 17.2372 3.77979C17.6586 3.77979 18.0038 4.08131 18.0038 4.45549Z" fill="#0F0401"/>
<path d="M16.5326 5.05098C16.8717 5.05098 17.1466 4.83954 17.1466 4.57871C17.1466 4.31789 16.8717 4.10645 16.5326 4.10645C16.1936 4.10645 15.9187 4.31789 15.9187 4.57871C15.9187 4.83954 16.1936 5.05098 16.5326 5.05098Z" fill="#0F0401"/>
<path d="M16.9465 5.20005C16.9465 5.61056 16.5796 5.94478 16.1292 5.94478C15.6787 5.94478 15.3118 5.61056 15.3118 5.20005C15.3118 4.78954 15.6787 4.45532 16.1292 4.45532C16.5796 4.45532 16.9465 4.78954 16.9465 5.20005Z" fill="#0F0401"/>
<path d="M16.2236 4.86959C16.5426 4.86959 16.8012 4.61098 16.8012 4.29197C16.8012 3.97296 16.5426 3.71436 16.2236 3.71436C15.9046 3.71436 15.646 3.97296 15.646 4.29197C15.646 4.61098 15.9046 4.86959 16.2236 4.86959Z" fill="#0F0401"/>
</g>
<defs>
<clipPath id="clip0_2250_15917">
<rect width="48" height="48" fill="white"/>
</clipPath>
</defs>
</svg>
