<svg width="55" height="55" viewBox="0 0 55 55" fill="none" xmlns="http://www.w3.org/2000/svg">
<path d="M27.6744 6.11641C27.2905 5.79772 26.756 5.72997 26.3068 5.94075C25.8552 6.15153 25.5667 6.60572 25.5667 7.10376C25.5667 13.3818 21.4942 17.9454 17.5573 22.1923C13.9165 26.1204 10.1501 30.1828 10.1501 35.5387C10.1501 44.1239 16.7067 49.6705 26.8514 49.6705C36.0602 49.6705 43.5526 42.1781 43.5526 32.9693C43.5526 19.673 28.3218 6.6571 27.6744 6.11641Z" fill="url(#paint0_linear_2053_9264)"/>
<path d="M21.7126 5.81897C21.0025 5.81897 20.4279 6.39358 20.4279 7.10368C20.4279 11.363 17.5022 14.6922 13.7986 18.6906L13.7886 18.6994C13.3068 19.22 13.342 20.028 13.8639 20.5098C14.3891 20.9975 15.2052 20.9528 15.683 20.437C19.4443 16.3759 22.9973 12.3705 22.9973 7.10368C22.9973 6.39358 22.4227 5.81897 21.7126 5.81897ZM34.6425 36.186L27.9631 24.6186C27.5064 23.8232 26.1966 23.8232 25.7399 24.6186L19.0605 36.186C18.275 37.5447 17.8585 39.0979 17.8585 40.6774C17.8585 45.6357 21.8933 49.6704 26.8515 49.6704C31.8097 49.6704 35.8444 45.6357 35.8444 40.6774C35.8444 39.0979 35.4279 37.5447 34.6425 36.186Z" fill="url(#paint1_linear_2053_9264)"/>
<defs>
<linearGradient id="paint0_linear_2053_9264" x1="26.8514" y1="49.6705" x2="26.8514" y2="5.81956" gradientUnits="userSpaceOnUse">
<stop stop-color="#FD5900"/>
<stop offset="1" stop-color="#FFDE00"/>
</linearGradient>
<linearGradient id="paint1_linear_2053_9264" x1="24.6466" y1="49.6704" x2="24.6466" y2="5.81897" gradientUnits="userSpaceOnUse">
<stop stop-color="#FFE59A"/>
<stop offset="1" stop-color="#FFFFD5"/>
</linearGradient>
</defs>
</svg>
