
<svg width="23" height="35" viewBox="0 0 23 35" fill="none" xmlns="http://www.w3.org/2000/svg">
<path fill-rule="evenodd" clip-rule="evenodd" d="M6.87995 17.63C5.50995 17.74 2.73995 17.75 1.32995 17.68C1.16995 17.68 1.03995 17.6 0.949951 17.47C1.11995 17.79 1.82995 18.76 2.18995 19.12C2.27995 19.25 3.17995 20.32 3.32995 20.33C3.93995 20.36 4.80995 20.38 5.69995 20.38C6.08995 19.44 6.47995 18.52 6.86995 17.64L6.87995 17.63Z" fill="url(#paint0_radial_15_3239)"/>
<path fill-rule="evenodd" clip-rule="evenodd" d="M19.83 1.54996C17.9 4.62996 15.48 8.28996 13.38 11.36C14.48 11.31 15.91 11.27 17.23 11.27C18.81 8.89996 20.44 6.40996 21.83 4.19996C21.92 4.05996 21.9 3.83996 21.86 3.73996C21.64 3.24996 20.16 1.33996 19.77 0.959961C19.84 1.11996 19.83 1.27996 19.74 1.41996L19.83 1.54996Z" fill="url(#paint1_radial_15_3239)"/>
<path fill-rule="evenodd" clip-rule="evenodd" d="M20.0399 12.08C15.0499 18.56 9.50991 24.92 4.25991 30.33C3.49991 31.11 2.20991 32.28 1.93991 32.14C1.93991 32.14 1.93991 32.14 1.92991 32.14C1.92991 32.14 1.91991 32.13 1.90991 32.12C2.01991 32.34 3.59991 34.45 3.89991 34.75C3.91991 34.77 3.92991 34.78 3.93991 34.79C4.20991 34.93 5.50991 33.76 6.25991 32.98C11.5199 27.57 17.0499 21.21 22.0399 14.73C22.1499 14.58 22.1399 14.33 22.0899 14.23C22.0399 14.13 22.0599 14.17 22.0299 14.14C21.8099 13.77 20.4499 11.97 20.0599 11.54C20.0599 11.54 20.0599 11.54 20.0599 11.55C20.1399 11.72 20.1199 11.9 20.0099 12.05L20.0399 12.08Z" fill="url(#paint2_radial_15_3239)"/>
<path style="mix-blend-mode:multiply" opacity="0.5" fill-rule="evenodd" clip-rule="evenodd" d="M19.75 1.67996C20.22 2.07996 20.81 2.77996 20.88 3.27996C21.15 5.33996 19.18 8.03996 18.1 9.53996C17.26 10.71 16.63 11.12 15.87 11.29C16.33 11.29 16.79 11.28 17.23 11.27C18.81 8.89996 20.44 6.40996 21.83 4.19996C21.92 4.05996 21.9 3.83996 21.86 3.73996C21.64 3.24996 20.17 1.34996 19.77 0.959961C19.84 1.10996 19.83 1.27996 19.74 1.41996C19.71 1.45996 19.69 1.49996 19.66 1.53996L19.75 1.67996Z" fill="url(#paint3_radial_15_3239)"/>
<path style="mix-blend-mode:multiply" opacity="0.5" fill-rule="evenodd" clip-rule="evenodd" d="M22.0399 14.13C21.8499 13.82 20.8299 12.46 20.2999 11.8C21.3799 14.06 21.3799 14.8701 19.8999 16.8601C18.0799 19.3101 16.2099 21.72 14.2499 24.05C12.4499 26.18 10.5899 28.2601 8.6299 30.2401C7.7499 31.1301 6.7799 31.9301 5.7499 32.6501C4.5499 33.4901 3.3599 33.4701 2.5199 32.9901C3.0299 33.6801 3.7099 34.56 3.8899 34.75C3.9099 34.7701 3.9199 34.7801 3.9299 34.7901C4.1999 34.93 5.4999 33.76 6.2499 32.98C11.5099 27.57 17.0399 21.21 22.0299 14.73C22.1399 14.58 22.1299 14.33 22.0799 14.23C22.0299 14.13 22.0499 14.17 22.0199 14.14L22.0399 14.13Z" fill="url(#paint4_radial_15_3239)"/>
<path style="mix-blend-mode:screen" fill-rule="evenodd" clip-rule="evenodd" d="M5.3399 33.85C5.1099 33.97 4.8299 34.04 4.6899 33.94C4.4299 33.75 3.4699 32.48 3.2999 32.2C3.2799 32.18 3.2699 32.15 3.2499 32.13C3.0999 31.88 3.1599 31.54 3.2799 31.25C2.6799 31.78 2.0999 32.22 1.9299 32.13C1.9199 32.13 1.9099 32.11 1.8999 32.1C2.0099 32.32 3.5899 34.43 3.8899 34.73C3.9099 34.75 3.9199 34.76 3.9299 34.77C4.0999 34.87 4.7199 34.39 5.3299 33.84L5.3399 33.85ZM19.4699 12.92C19.6799 12.83 19.8999 12.78 20.0199 12.88C20.0399 12.9 20.0599 12.91 20.0799 12.93C20.3299 13.14 21.2799 14.42 21.4499 14.69C21.5799 14.91 21.5499 15.21 21.4499 15.47C21.6399 15.22 21.8299 14.98 22.0199 14.73C22.1299 14.58 22.1199 14.33 22.0699 14.23C22.0199 14.13 22.0399 14.17 22.0099 14.14C21.7899 13.77 20.4299 11.97 20.0399 11.54C20.0399 11.55 20.0599 11.57 20.0599 11.58C20.1399 11.75 20.1199 11.93 20.0099 12.08C19.7899 12.36 19.5799 12.64 19.3599 12.92C19.3399 12.94 19.3299 12.96 19.3099 12.99C19.3499 12.97 19.3999 12.94 19.4399 12.92H19.4699Z" fill="url(#paint5_radial_15_3239)"/>
<path fill-rule="evenodd" clip-rule="evenodd" d="M9.38995 0.870072C11.43 0.440072 16.87 0.390072 19.5 0.820072C19.67 0.850072 19.79 0.950073 19.86 1.10007C19.93 1.25007 19.92 1.42007 19.83 1.56007C17.9 4.64007 15.48 8.30007 13.38 11.3701C15.25 11.2801 18.1 11.2501 19.67 11.3101C19.86 11.3101 20.01 11.4201 20.09 11.5901C20.17 11.7601 20.15 11.9401 20.04 12.0901C15.05 18.5701 9.50995 24.9301 4.25995 30.3401C3.49995 31.1201 2.20995 32.2901 1.93995 32.1501C1.66995 32.0101 2.07995 30.6001 2.24995 29.9001C2.75995 27.8001 4.90996 22.1201 6.88996 17.6401C5.51996 17.7501 2.74995 17.7601 1.33995 17.6901C1.17995 17.6901 1.04995 17.6101 0.959955 17.4801C0.869955 17.3501 0.849955 17.2001 0.899955 17.0501C2.26995 12.9701 6.70996 4.18007 8.79995 1.26007C8.94995 1.06007 9.13995 0.930072 9.38995 0.880072V0.870072Z" fill="url(#paint6_radial_15_3239)"/>
<path style="mix-blend-mode:multiply" fill-rule="evenodd" clip-rule="evenodd" d="M19.0699 8.5C17.7199 9.72 15.1099 10.52 14.5199 9.69C14.1399 10.26 13.7599 10.82 13.3899 11.36C14.4899 11.31 15.9199 11.27 17.2399 11.27C17.8499 10.36 18.4699 9.43 19.0699 8.5Z" fill="url(#paint7_radial_15_3239)"/>
<path style="mix-blend-mode:multiply" fill-rule="evenodd" clip-rule="evenodd" d="M4.9199 17.7101C5.6599 18.2901 4.5199 20.1001 3.0199 20.0701C3.1599 20.2201 3.2799 20.3201 3.3299 20.3201C3.9399 20.3501 4.8099 20.3701 5.6999 20.3701C6.0899 19.4301 6.4799 18.5101 6.8699 17.6301C6.3599 17.6701 5.6699 17.7001 4.9199 17.7101Z" fill="url(#paint8_radial_15_3239)"/>
<path style="mix-blend-mode:screen" fill-rule="evenodd" clip-rule="evenodd" d="M9.55992 3.13007C11.6999 2.78007 14.6099 2.74007 16.7799 2.98007C17.0899 3.01007 17.4099 3.11007 17.6499 3.31007C18.1299 3.71007 17.7999 4.59007 17.3899 5.37007C18.2499 4.06007 19.0799 2.77007 19.8299 1.56007C19.9199 1.42007 19.9299 1.26007 19.8599 1.10007C19.7899 0.940073 19.6599 0.850072 19.4999 0.820072C16.8699 0.390072 11.4299 0.440072 9.38992 0.870072C9.13992 0.920072 8.94992 1.05007 8.79992 1.25007C7.79992 2.64007 6.26992 5.36007 4.78992 8.27007C5.81992 6.52007 8.00992 3.38007 9.55992 3.12007V3.13007Z" fill="url(#paint9_radial_15_3239)"/>
<path style="mix-blend-mode:screen" fill-rule="evenodd" clip-rule="evenodd" d="M1.91995 32.13C1.91995 32.13 1.91995 32.13 1.92995 32.13C1.92995 32.13 1.92995 32.13 1.91995 32.13ZM19.67 11.3C19.16 11.28 18.5199 11.27 17.8199 11.27C18.9999 11.65 19 12.51 18.0499 13.74C15.5099 17.05 8.73995 25.28 5.41995 27.71C3.73995 28.94 3.18995 28.16 3.12995 27.06C2.71995 28.25 2.39995 29.23 2.24995 29.88C2.08995 30.55 1.70995 31.86 1.90995 32.1C1.90995 32.1 1.91995 32.11 1.92995 32.12C1.92995 32.12 1.92995 32.12 1.93995 32.12C2.10995 32.21 2.68995 31.77 3.28995 31.24C3.63995 30.93 3.98995 30.59 4.25995 30.31C9.26995 25.16 14.54 19.13 19.34 12.97C19.57 12.67 19.81 12.37 20.04 12.07C20.15 11.92 20.17 11.74 20.09 11.57C20.09 11.57 20.09 11.56 20.09 11.55C20.01 11.41 19.86 11.32 19.69 11.32L19.67 11.3Z" fill="url(#paint10_radial_15_3239)"/>
<path style="mix-blend-mode:screen" fill-rule="evenodd" clip-rule="evenodd" d="M9.90992 1.15018C9.64992 1.20018 9.37992 1.29018 9.18992 1.48018C7.54992 3.17018 3.57992 10.9402 2.99992 13.0002C2.95992 13.1402 2.90992 13.3802 3.01992 13.4802C3.17992 13.6102 3.42992 13.2702 3.50992 13.1402C4.96992 10.8302 6.27992 8.42018 7.71992 6.10018C8.43992 4.94018 9.29992 3.60018 10.1299 2.52018C10.6599 1.84018 11.6499 1.65018 12.4099 1.43018C13.5099 1.12018 13.0599 0.850177 12.2699 0.890177C11.5099 0.920177 10.6699 1.00018 9.89992 1.16018L9.90992 1.15018Z" fill="url(#paint11_linear_15_3239)"/>
<path style="mix-blend-mode:screen" fill-rule="evenodd" clip-rule="evenodd" d="M19.13 11.44C17.34 11.42 15.55 11.42 13.76 11.51C12.89 11.55 13.56 12.44 14.17 12.48C15.58 12.57 17.69 12.26 19.07 11.82C19.22 11.77 19.43 11.71 19.46 11.56C19.48 11.44 19.25 11.44 19.13 11.44Z" fill="url(#paint12_linear_15_3239)"/>
<path style="mix-blend-mode:screen" opacity="0.5" fill-rule="evenodd" clip-rule="evenodd" d="M3.84 30.7401C3.73 32.6901 8.22 29.0901 9.23 28.1601C12.68 24.9901 16.8 20.6101 19.14 16.5001C19.95 15.0901 20.05 13.2601 18.86 13.5901C14.22 19.4901 9.18 25.2501 4.37 30.2001C4.33 30.2401 4.3 30.2801 4.26 30.3101C4.13 30.4401 3.99 30.5901 3.84 30.7301V30.7401Z" fill="url(#paint13_radial_15_3239)"/>
<path style="mix-blend-mode:screen" fill-rule="evenodd" clip-rule="evenodd" d="M10.08 4.66C9.60996 5.01 9.13996 5.41 8.84996 5.92C7.19996 8.74 5.77995 11.68 4.27995 14.57C3.96995 15.17 3.61995 16.32 4.73995 16.42C6.04995 16.54 7.37995 16.42 8.68995 16.42C7.32995 19.4 5.67996 22.45 4.75996 25.59C4.47996 26.56 5.26996 26.58 5.88996 26C8.76996 23.33 13.81 17.81 15.85 14.29C16.38 13.37 15.48 12.93 14.72 12.9C13.62 12.86 12.51 12.93 11.41 12.95C12.69 10.86 14.04 8.81 15.26 6.68C15.44 6.38 15.55 6.03 15.59 5.68C15.66 5.17 15.45 4.71 15.08 4.37C14.51 3.85 12.94 3.82 11.66 4.07C10.99 4.2 10.4 4.4 10.07 4.65L10.08 4.66Z" fill="url(#paint14_radial_15_3239)"/>
<defs>
<radialGradient id="paint0_radial_15_3239" cx="0" cy="0" r="1" gradientUnits="userSpaceOnUse" gradientTransform="translate(-0.760049 15.89) scale(8.82)">
<stop stop-color="#FCAC00"/>
<stop offset="1" stop-color="#FF7300"/>
</radialGradient>
<radialGradient id="paint1_radial_15_3239" cx="0" cy="0" r="1" gradientUnits="userSpaceOnUse" gradientTransform="translate(16.61 3.27996) scale(21.6 21.6)">
<stop stop-color="#FCAC00"/>
<stop offset="1" stop-color="#FF7300"/>
</radialGradient>
<radialGradient id="paint2_radial_15_3239" cx="0" cy="0" r="1" gradientUnits="userSpaceOnUse" gradientTransform="translate(20.1899 28.6) scale(40.6 40.6)">
<stop stop-color="#FCAC00"/>
<stop offset="1" stop-color="#FF7300"/>
</radialGradient>
<radialGradient id="paint3_radial_15_3239" cx="0" cy="0" r="1" gradientUnits="userSpaceOnUse" gradientTransform="translate(18.88 6.12996) scale(4.23)">
<stop stop-color="white"/>
<stop offset="0.1" stop-color="#FEFCF9"/>
<stop offset="0.22" stop-color="#FDF5E9"/>
<stop offset="0.36" stop-color="#FCEACE"/>
<stop offset="0.51" stop-color="#FADAA9"/>
<stop offset="0.67" stop-color="#F8C67A"/>
<stop offset="0.84" stop-color="#F6AD40"/>
<stop offset="1" stop-color="#F39200"/>
</radialGradient>
<radialGradient id="paint4_radial_15_3239" cx="0" cy="0" r="1" gradientUnits="userSpaceOnUse" gradientTransform="translate(3.2499 14.05) scale(22.61)">
<stop stop-color="white"/>
<stop offset="0.1" stop-color="#FEFCF9"/>
<stop offset="0.22" stop-color="#FDF5E9"/>
<stop offset="0.36" stop-color="#FCEACE"/>
<stop offset="0.51" stop-color="#FADAA9"/>
<stop offset="0.67" stop-color="#F8C67A"/>
<stop offset="0.84" stop-color="#F6AD40"/>
<stop offset="1" stop-color="#F39200"/>
</radialGradient>
<radialGradient id="paint5_radial_15_3239" cx="0" cy="0" r="1" gradientUnits="userSpaceOnUse" gradientTransform="translate(13.0599 23.77) scale(14.57)">
<stop offset="0.58"/>
<stop offset="0.74" stop-color="#010101"/>
<stop offset="0.79" stop-color="#080804"/>
<stop offset="0.83" stop-color="#14130B"/>
<stop offset="0.87" stop-color="#252214"/>
<stop offset="0.89" stop-color="#3B3721"/>
<stop offset="0.92" stop-color="#565030"/>
<stop offset="0.94" stop-color="#776F42"/>
<stop offset="0.96" stop-color="#9C9257"/>
<stop offset="0.98" stop-color="#C7BA70"/>
<stop offset="1" stop-color="#FFEE8F"/>
</radialGradient>
<radialGradient id="paint6_radial_15_3239" cx="0" cy="0" r="1" gradientUnits="userSpaceOnUse" gradientTransform="translate(8.11995 0.880073) scale(31.4 31.4)">
<stop stop-color="#FCF800"/>
<stop offset="1" stop-color="#FC9700"/>
</radialGradient>
<radialGradient id="paint7_radial_15_3239" cx="0" cy="0" r="1" gradientUnits="userSpaceOnUse" gradientTransform="translate(12.6699 6.52) scale(8.28 8.28)">
<stop stop-color="white"/>
<stop offset="0.1" stop-color="#FFFCF9"/>
<stop offset="0.22" stop-color="#FFF6E9"/>
<stop offset="0.36" stop-color="#FFECCE"/>
<stop offset="0.51" stop-color="#FFDEA9"/>
<stop offset="0.67" stop-color="#FFCB7A"/>
<stop offset="0.84" stop-color="#FFB540"/>
<stop offset="1" stop-color="#FF9D00"/>
</radialGradient>
<radialGradient id="paint8_radial_15_3239" cx="0" cy="0" r="1" gradientUnits="userSpaceOnUse" gradientTransform="translate(3.0599 17.7601) scale(7.95 7.95)">
<stop stop-color="white"/>
<stop offset="0.1" stop-color="#FFFCF9"/>
<stop offset="0.22" stop-color="#FFF6E9"/>
<stop offset="0.36" stop-color="#FFECCE"/>
<stop offset="0.51" stop-color="#FFDEA9"/>
<stop offset="0.67" stop-color="#FFCB7A"/>
<stop offset="0.84" stop-color="#FFB540"/>
<stop offset="1" stop-color="#FF9D00"/>
</radialGradient>
<radialGradient id="paint9_radial_15_3239" cx="0" cy="0" r="1" gradientUnits="userSpaceOnUse" gradientTransform="translate(16.6099 7.79007) scale(16.66 16.66)">
<stop/>
<stop offset="0.08" stop-color="#222111"/>
<stop offset="0.22" stop-color="#5C582E"/>
<stop offset="0.36" stop-color="#8E8747"/>
<stop offset="0.5" stop-color="#B6AE5B"/>
<stop offset="0.64" stop-color="#D6CC6B"/>
<stop offset="0.77" stop-color="#ECE176"/>
<stop offset="0.89" stop-color="#FAEE7D"/>
<stop offset="1" stop-color="#FFF380"/>
</radialGradient>
<radialGradient id="paint10_radial_15_3239" cx="0" cy="0" r="1" gradientUnits="userSpaceOnUse" gradientTransform="translate(25.15 42.18) scale(33.5 33.5)">
<stop stop-color="#FFD000"/>
<stop offset="0.11" stop-color="#FACC00"/>
<stop offset="0.23" stop-color="#ECC100"/>
<stop offset="0.36" stop-color="#D6AE00"/>
<stop offset="0.5" stop-color="#B69500"/>
<stop offset="0.64" stop-color="#8E7300"/>
<stop offset="0.78" stop-color="#5C4B00"/>
<stop offset="0.92" stop-color="#221C00"/>
<stop offset="1"/>
</radialGradient>
<linearGradient id="paint11_linear_15_3239" x1="11.7199" y1="-0.349823" x2="2.32992" y2="17.5702" gradientUnits="userSpaceOnUse">
<stop stop-color="#FFFACF"/>
<stop offset="1"/>
</linearGradient>
<linearGradient id="paint12_linear_15_3239" x1="13.35" y1="11.96" x2="19.47" y2="11.96" gradientUnits="userSpaceOnUse">
<stop stop-color="#FFFACF"/>
<stop offset="1"/>
</linearGradient>
<radialGradient id="paint13_radial_15_3239" cx="0" cy="0" r="1" gradientUnits="userSpaceOnUse" gradientTransform="translate(1.31 7.80008) scale(24.49)">
<stop stop-color="#00FFFF"/>
<stop offset="0.11" stop-color="#00FAFA"/>
<stop offset="0.23" stop-color="#00ECEC"/>
<stop offset="0.36" stop-color="#00D6D6"/>
<stop offset="0.5" stop-color="#00B6B6"/>
<stop offset="0.64" stop-color="#008E8E"/>
<stop offset="0.78" stop-color="#005C5C"/>
<stop offset="0.92" stop-color="#002222"/>
<stop offset="1"/>
</radialGradient>
<radialGradient id="paint14_radial_15_3239" cx="0" cy="0" r="1" gradientUnits="userSpaceOnUse" gradientTransform="translate(-3.77005 4.6) scale(23.15)">
<stop stop-color="#FFF261"/>
<stop offset="0.11" stop-color="#FAED5F"/>
<stop offset="0.23" stop-color="#ECE05A"/>
<stop offset="0.36" stop-color="#D6CB51"/>
<stop offset="0.5" stop-color="#B6AD45"/>
<stop offset="0.64" stop-color="#8E8636"/>
<stop offset="0.78" stop-color="#5C5723"/>
<stop offset="0.92" stop-color="#22210D"/>
<stop offset="1"/>
</radialGradient>
</defs>
</svg>
