<svg width="32" height="53" viewBox="0 0 32 53" fill="none" xmlns="http://www.w3.org/2000/svg">
<path d="M28.0517 1.11923C27.7802 0.640219 27.2729 0.344849 26.7223 0.344849H8.38903C7.68779 0.344849 7.07759 0.82233 6.9075 1.5026L0.796394 26.0489C0.681505 26.5054 0.784477 26.9889 1.07394 27.3588C1.3634 27.7302 1.80799 27.9466 2.27793 27.9466H9.2395L0.847218 50.428C0.578635 51.1441 0.881542 51.9483 1.55437 52.3108C2.23026 52.673 3.06647 52.4792 3.51329 51.8632L31.3889 18.1503C31.7276 17.6862 31.7754 17.0716 31.5157 16.5583C31.2547 16.0466 30.728 15.7244 30.1536 15.7244H20.2547L28.0323 2.65882C28.3158 2.18592 28.3233 1.59813 28.0517 1.11923Z" fill="url(#paint0_linear_2053_10026)"/>
<defs>
<linearGradient id="paint0_linear_2053_10026" x1="14.5" y1="51.7477" x2="14.5" y2="-0.400119" gradientUnits="userSpaceOnUse">
<stop stop-color="#FBFE47"/>
<stop offset="1" stop-color="#FFAF25"/>
</linearGradient>
</defs>
</svg>
