<svg width="32" height="53" viewBox="0 0 32 53" fill="none" xmlns="http://www.w3.org/2000/svg">
<path d="M28.0517 1.61923C27.7802 1.14022 27.2729 0.844849 26.7223 0.844849H8.38903C7.68779 0.844849 7.07759 1.32233 6.9075 2.0026L0.796394 26.5489C0.681505 27.0054 0.784477 27.4889 1.07394 27.8588C1.3634 28.2302 1.80799 28.4466 2.27793 28.4466H9.2395L0.847218 50.928C0.578635 51.6441 0.881542 52.4483 1.55437 52.8108C2.23026 53.173 3.06647 52.9792 3.51329 52.3632L31.3889 18.6503C31.7276 18.1862 31.7754 17.5716 31.5157 17.0583C31.2547 16.5466 30.728 16.2244 30.1536 16.2244H20.2547L28.0323 3.15882C28.3158 2.68592 28.3233 2.09813 28.0517 1.61923Z" fill="url(#paint0_linear_2053_10162)"/>
<defs>
<linearGradient id="paint0_linear_2053_10162" x1="16.2156" y1="52.2477" x2="16.2156" y2="0.0998806" gradientUnits="userSpaceOnUse">
<stop stop-color="#DBDBDB"/>
<stop offset="1" stop-color="#929292"/>
</linearGradient>
</defs>
</svg>
