<svg width="36" height="36" viewBox="0 0 36 36" fill="none" xmlns="http://www.w3.org/2000/svg">
<path d="M16.4187 26.743V20.3117H12.4875C12.2625 20.3117 12.05 20.193 11.9375 19.993C11.8313 19.7992 11.8313 19.5555 11.95 19.3617L18.4187 8.76797C18.5687 8.53047 18.8563 8.41797 19.125 8.49297C19.3937 8.56797 19.5813 8.81172 19.5813 9.09298V15.5242H23.5125C23.7375 15.5242 23.95 15.643 24.0625 15.843C24.1687 16.0367 24.1687 16.2805 24.05 16.4742L17.5813 27.068C17.4625 27.2555 17.2562 27.368 17.0437 27.368C16.9875 27.368 16.9312 27.3555 16.875 27.3429C16.6063 27.2679 16.4187 27.0242 16.4187 26.743ZM5.65968 25.7467L6.7566 25.7466C-2.16167 12.2934 14.6138 -2.73289 27.0122 7.59842L25.6722 7.59834C24.8489 7.61601 24.8563 8.83331 25.6722 8.84479H30.3403C30.683 8.84479 30.9635 8.57059 30.9635 8.22159V3.55984C30.9439 2.74372 29.7362 2.73758 29.717 3.55984V4.99329C29.3181 4.6318 28.9006 4.28902 28.4705 3.96492C12.3091 -7.64473 -7.41797 11.5853 3.79003 28.034C3.65388 26.8501 4.4172 25.7539 5.65968 25.7467ZM32.21 7.80399C32.346 8.98773 31.5828 10.084 30.3402 10.0912H29.2433C30.8015 12.3162 31.7114 15.0147 31.7114 17.919C31.7521 29.6269 17.6982 35.9563 8.9877 28.2394L10.3278 28.2396C11.151 28.2219 11.1436 27.0046 10.3278 26.9931H5.65964C5.31689 26.9931 5.0364 27.2673 5.0364 27.6163V32.2781C5.056 33.0941 6.26374 33.1003 6.28293 32.278V30.8446C6.68179 31.2061 7.09935 31.5489 7.52941 31.873C23.6909 43.4826 43.4179 24.2526 32.21 7.80399Z" fill="url(#paint0_linear_2096_296)"/>
<defs>
<linearGradient id="paint0_linear_2096_296" x1="18" y1="34.9189" x2="18" y2="-0.0810538" gradientUnits="userSpaceOnUse">
<stop stop-color="#FBFE47"/>
<stop offset="1" stop-color="#FFAF25"/>
</linearGradient>
</defs>
</svg>
