
<svg width="19" height="19" viewBox="0 0 19 19" fill="none" xmlns="http://www.w3.org/2000/svg">
<g clip-path="url(#clip0_278_2525)">
<path d="M7.04726 14.9664C8.28775 14.5528 9.91258 14.5529 11.153 14.9663C11.4156 15.0539 11.5755 15.3194 11.53 15.5925L11.5298 15.5934C11.5297 15.8888 11.2569 16.4861 11.1205 16.7479C10.8065 17.3402 10.2299 18.0573 9.23142 18.297C9.14513 18.3177 9.05517 18.3177 8.96888 18.297C7.97043 18.0573 7.39385 17.3402 7.07977 16.7479C6.87035 16.4093 6.71953 15.8365 6.6703 15.5925C6.6248 15.3194 6.78468 15.0539 7.04726 14.9664Z" fill="url(#paint0_linear_278_2525)"/>
<path d="M16.2433 14.4583C16.4059 14.5755 16.6187 14.5973 16.8017 14.5155C16.9847 14.4336 17.1104 14.2606 17.1315 14.0612L17.132 14.0589C17.1818 13.8937 17.1598 13.5417 17.1426 13.386C17.1251 12.9928 17.0633 12.4539 16.8823 11.8816C16.6751 11.2263 16.308 10.5239 15.6808 9.95422C15.4477 9.74243 15.3311 9.63653 15.202 9.68574C15.0729 9.73495 15.0546 9.90802 15.018 10.2542C14.9209 11.1739 14.735 12.1538 14.4474 13.1955C14.3874 13.4126 14.3574 13.5212 14.4022 13.6017C14.4471 13.6822 14.5584 13.7149 14.7812 13.7803C15.317 13.9376 15.8264 14.1579 16.2433 14.4583Z" fill="url(#paint1_linear_278_2525)"/>
<path d="M1.95693 14.4582C1.79428 14.5755 1.58153 14.5973 1.39849 14.5154C1.21546 14.4336 1.08981 14.2606 1.06868 14.0612L1.06822 14.0589C1.01842 13.8937 1.04036 13.5417 1.0576 13.386C1.07511 12.9928 1.13692 12.4538 1.31789 11.8816C1.52513 11.2263 1.89221 10.5239 2.51931 9.95423C2.75247 9.74244 2.86905 9.63654 2.99817 9.68574C3.1273 9.73495 3.14558 9.90802 3.18213 10.2542C3.27925 11.1739 3.46511 12.1538 3.75279 13.1955C3.81274 13.4126 3.84272 13.5211 3.79791 13.6017C3.7531 13.6822 3.64171 13.7149 3.41893 13.7803C2.88312 13.9376 2.37374 14.1579 1.95693 14.4582Z" fill="url(#paint2_linear_278_2525)"/>
<path fill-rule="evenodd" clip-rule="evenodd" d="M8.91963 0.717232C9.03667 0.677589 9.16351 0.677589 9.28054 0.717232C10.596 1.1628 12.308 2.38184 13.3168 4.58153C14.331 6.79294 14.6083 9.93449 13.1615 14.1814C13.1062 14.3438 12.9797 14.4721 12.8181 14.5298C12.6564 14.5875 12.4773 14.5682 12.3316 14.4774C12.0013 14.2716 10.8031 13.7656 9.10009 13.7656C7.39703 13.7656 6.19891 14.2716 5.86856 14.4774C5.7229 14.5682 5.54377 14.5875 5.38212 14.5298C5.22047 14.4721 5.09399 14.3438 5.03865 14.1814C3.59192 9.93449 3.86917 6.79294 4.88336 4.58153C5.89218 2.38184 7.60415 1.1628 8.91963 0.717232ZM10.9751 6.5C10.9751 5.46447 10.1356 4.625 9.1001 4.625C8.06456 4.625 7.2251 5.46447 7.2251 6.5C7.2251 7.53553 8.06456 8.375 9.1001 8.375C10.1356 8.375 10.9751 7.53553 10.9751 6.5Z" fill="url(#paint3_linear_278_2525)"/>
</g>
<defs>
<linearGradient id="paint0_linear_278_2525" x1="9.10015" y1="14.6562" x2="9.10015" y2="18.3125" gradientUnits="userSpaceOnUse">
<stop stop-color="#ACB9C6"/>
<stop offset="1" stop-color="#F2F7F8"/>
</linearGradient>
<linearGradient id="paint1_linear_278_2525" x1="9.1001" y1="9.67383" x2="9.1001" y2="14.5644" gradientUnits="userSpaceOnUse">
<stop stop-color="#ACB9C6"/>
<stop offset="1" stop-color="#F2F7F8"/>
</linearGradient>
<linearGradient id="paint2_linear_278_2525" x1="9.1001" y1="9.67383" x2="9.1001" y2="14.5644" gradientUnits="userSpaceOnUse">
<stop stop-color="#ACB9C6"/>
<stop offset="1" stop-color="#F2F7F8"/>
</linearGradient>
<linearGradient id="paint3_linear_278_2525" x1="9.10009" y1="0.6875" x2="9.10009" y2="14.5625" gradientUnits="userSpaceOnUse">
<stop stop-color="#ACB9C6"/>
<stop offset="1" stop-color="#F2F7F8"/>
</linearGradient>
<clipPath id="clip0_278_2525">
<rect width="18" height="18" fill="white" transform="translate(0.100098 0.5)"/>
</clipPath>
</defs>
</svg>
