<svg width="25" height="25" viewBox="0 0 25 25" fill="none" xmlns="http://www.w3.org/2000/svg">
<g clip-path="url(#clip0_2153_2820)">
<path d="M21.8541 22.5058H3.54618C2.57043 22.5058 1.77942 21.7147 1.77942 20.739V5.4943C1.77942 4.51855 2.57043 3.72754 3.54618 3.72754H21.8541C22.8298 3.72754 23.6208 4.51855 23.6208 5.4943V20.739C23.6208 21.7147 22.8298 22.5058 21.8541 22.5058Z" fill="url(#paint0_linear_2153_2820)"/>
<path d="M21.4457 22.0867H3.95437C3.02212 22.0867 2.26636 21.331 2.26636 20.3987V5.83401C2.26636 4.90176 3.02208 4.146 3.95437 4.146H21.4456C22.3779 4.146 23.1337 4.90171 23.1337 5.83401V20.3988C23.1337 21.331 22.3779 22.0867 21.4457 22.0867Z" fill="url(#paint1_linear_2153_2820)"/>
<path d="M1.77942 14.7974H23.6208V9.01249C23.6208 8.28232 23.0289 7.69043 22.2988 7.69043H3.10148C2.37131 7.69043 1.77942 8.28232 1.77942 9.01249V14.7974Z" fill="url(#paint2_linear_2153_2820)"/>
<path d="M1.77942 12.6215V20.7389C1.77942 21.7146 2.57043 22.5057 3.54623 22.5057H21.8541C22.8298 22.5057 23.6208 21.7147 23.6208 20.7389V12.6215C23.6208 12.0189 23.1322 11.5303 22.5296 11.5303H2.87067C2.268 11.5303 1.77942 12.0188 1.77942 12.6215Z" fill="url(#paint3_linear_2153_2820)"/>
<path d="M20.3257 8.43506V22.506H21.854C22.8298 22.506 23.6208 21.715 23.6208 20.7393V11.7302L20.3257 8.43506Z" fill="url(#paint4_linear_2153_2820)"/>
<path d="M18.8359 24.4869L3.50372 22.7063C2.52084 22.5921 1.77942 21.7596 1.77942 20.7701V5.36279C1.77942 5.69392 2.02753 5.97245 2.35636 6.01065L19.2856 7.97687C20.2685 8.09106 21.0099 8.92351 21.0099 9.913V22.5509C21.0099 23.7164 19.9937 24.6215 18.8359 24.4869Z" fill="url(#paint5_linear_2153_2820)"/>
<path d="M18.8359 21.4092L3.50372 19.6285C2.52084 19.5143 1.77942 18.6819 1.77942 17.6924V20.7699C1.77942 21.7594 2.52084 22.5919 3.50372 22.706L18.8359 24.4867C19.9937 24.6212 21.0099 23.7162 21.0099 22.5506V19.4731C21.0099 20.6387 19.9937 21.5436 18.8359 21.4092Z" fill="url(#paint6_linear_2153_2820)"/>
<path d="M3.15401 7.76401C3.14116 7.76401 3.12813 7.76326 3.11505 7.76185L2.41343 7.6847C2.21965 7.66337 2.07982 7.48909 2.10115 7.29535C2.12248 7.10162 2.2969 6.96193 2.49049 6.98307L3.19212 7.06023C3.3859 7.08156 3.52573 7.25584 3.5044 7.44957C3.48452 7.63028 3.33162 7.76401 3.15401 7.76401Z" fill="url(#paint7_linear_2153_2820)"/>
<path d="M17.5711 23.3241C17.5563 23.3241 17.5412 23.3231 17.5261 23.3212L16.1625 23.1478C15.9692 23.1233 15.8323 22.9466 15.8569 22.7531C15.8815 22.5598 16.0582 22.4238 16.2516 22.4476L17.6152 22.621C17.8085 22.6455 17.9455 22.8222 17.9208 23.0156C17.8981 23.1939 17.7462 23.3241 17.5711 23.3241ZM18.9133 23.1494C18.781 23.1494 18.654 23.0745 18.5938 22.9467C18.5107 22.7704 18.5863 22.5601 18.7627 22.4771C19.1208 22.3084 19.3901 22.0285 19.5016 21.7092C19.5658 21.5253 19.7672 21.4282 19.9512 21.4924C20.1351 21.5566 20.2323 21.7579 20.168 21.9419C19.9919 22.4462 19.5997 22.8631 19.0635 23.1156C19.0149 23.1385 18.9638 23.1494 18.9133 23.1494ZM14.8439 22.9773C14.8291 22.9773 14.814 22.9763 14.7989 22.9744L13.4353 22.8011C13.2419 22.7765 13.105 22.5998 13.1297 22.4064C13.1543 22.2131 13.331 22.0769 13.5244 22.1008L14.888 22.2742C15.0813 22.2987 15.2182 22.4755 15.1936 22.6689C15.1708 22.847 15.0189 22.9773 14.8439 22.9773ZM12.1167 22.6305C12.1018 22.6305 12.0868 22.6295 12.0717 22.6276L10.708 22.4542C10.5147 22.4297 10.3778 22.2529 10.4024 22.0595C10.427 21.8662 10.6038 21.7294 10.7971 21.754L12.1608 21.9274C12.3541 21.9519 12.491 22.1286 12.4663 22.322C12.4436 22.5002 12.2916 22.6305 12.1167 22.6305ZM9.38933 22.2836C9.37452 22.2836 9.35947 22.2827 9.34433 22.2808L7.98064 22.1074C7.78728 22.0827 7.65041 21.9061 7.67506 21.7127C7.69967 21.5193 7.87644 21.3832 8.06975 21.4071L9.43344 21.5805C9.6268 21.6051 9.76367 21.7818 9.73902 21.9752C9.71638 22.1535 9.56441 22.2836 9.38933 22.2836ZM6.66209 21.9368C6.64728 21.9368 6.63223 21.9358 6.61709 21.934L5.25341 21.7605C5.06005 21.7359 4.92317 21.5592 4.94783 21.3658C4.97244 21.1725 5.1492 21.0363 5.34252 21.0603L6.7062 21.2337C6.89956 21.2583 7.03644 21.435 7.01178 21.6284C6.98909 21.8066 6.83717 21.9368 6.66209 21.9368ZM19.914 20.813C19.719 20.813 19.5611 20.655 19.5611 20.4601V19.0855C19.5611 18.8905 19.719 18.7325 19.914 18.7325C20.1089 18.7325 20.2669 18.8905 20.2669 19.0855V20.4601C20.267 20.655 20.109 20.813 19.914 20.813ZM19.914 18.0638C19.719 18.0638 19.5611 17.9059 19.5611 17.7109V16.3363C19.5611 16.1413 19.719 15.9834 19.914 15.9834C20.1089 15.9834 20.2669 16.1413 20.2669 16.3363V17.7109C20.267 17.9058 20.109 18.0638 19.914 18.0638ZM19.914 15.3146C19.719 15.3146 19.5611 15.1566 19.5611 14.9617V13.5871C19.5611 13.3921 19.719 13.2341 19.914 13.2341C20.1089 13.2341 20.2669 13.3921 20.2669 13.5871V14.9617C20.267 15.1566 20.109 15.3146 19.914 15.3146ZM19.914 12.5654C19.719 12.5654 19.5611 12.4074 19.5611 12.2125V10.8379C19.5611 10.6429 19.719 10.4849 19.914 10.4849C20.1089 10.4849 20.2669 10.6429 20.2669 10.8379V12.2125C20.267 12.4074 20.109 12.5654 19.914 12.5654ZM19.4204 9.95702C19.3332 9.95702 19.2459 9.92491 19.1777 9.86027C18.9161 9.6124 18.5531 9.45448 18.1553 9.41552L18.146 9.41454C17.9522 9.39368 17.812 9.21963 17.8329 9.02585C17.8537 8.83202 18.0277 8.69177 18.2216 8.71273L18.2276 8.71338C18.7773 8.76724 19.2883 8.99271 19.6632 9.34788C19.8048 9.48195 19.8108 9.70535 19.6767 9.84687C19.6072 9.92004 19.5139 9.95702 19.4204 9.95702ZM16.8177 9.26637C16.8049 9.26637 16.7919 9.26562 16.7788 9.26421L15.4124 9.11398C15.2187 9.09265 15.0788 8.91837 15.1002 8.72463C15.1215 8.5309 15.2959 8.39145 15.4895 8.41235L16.8559 8.56259C17.0496 8.58391 17.1895 8.75819 17.1681 8.95193C17.1483 9.13259 16.9954 9.26637 16.8177 9.26637ZM14.0851 8.9659C14.0722 8.9659 14.0592 8.96515 14.0461 8.96374L12.6797 8.81351C12.486 8.79218 12.3461 8.6179 12.3674 8.42416C12.3887 8.23038 12.5634 8.09079 12.7568 8.11188L14.1232 8.26212C14.3169 8.28345 14.4568 8.45773 14.4355 8.65146C14.4156 8.83216 14.2627 8.9659 14.0851 8.9659ZM11.3523 8.66548C11.3394 8.66548 11.3264 8.66473 11.3133 8.66332L9.94695 8.51309C9.75322 8.49176 9.61334 8.31748 9.63467 8.12374C9.65595 7.93001 9.83028 7.79041 10.024 7.81146L11.3904 7.96169C11.5841 7.98302 11.724 8.1573 11.7027 8.35104C11.6828 8.53169 11.5299 8.66548 11.3523 8.66548ZM8.6195 8.36505C8.60666 8.36505 8.59363 8.3643 8.58055 8.3629L7.21419 8.21266C7.02041 8.19134 6.88058 8.01705 6.90191 7.82332C6.92319 7.62963 7.09733 7.49009 7.29125 7.51104L8.65761 7.66127C8.85134 7.6826 8.99122 7.85688 8.96989 8.05062C8.95011 8.23127 8.79716 8.36505 8.6195 8.36505ZM5.88673 8.06459C5.87389 8.06459 5.86086 8.06384 5.84778 8.06243L4.48142 7.91219C4.28769 7.89087 4.14781 7.71659 4.16914 7.52285C4.19047 7.32916 4.36466 7.18966 4.55848 7.21057L5.92484 7.3608C6.11863 7.38213 6.25845 7.55641 6.23713 7.75015C6.2173 7.9308 6.06434 8.06459 5.88673 8.06459Z" fill="url(#paint8_linear_2153_2820)"/>
<path d="M3.93152 21.5894C3.91671 21.5894 3.90171 21.5885 3.88657 21.5866L3.1863 21.4975C2.99294 21.473 2.85602 21.2963 2.88068 21.1029C2.90524 20.9095 3.08196 20.7728 3.27532 20.7973L3.97558 20.8863C4.16894 20.9109 4.30587 21.0876 4.28121 21.2809C4.25852 21.4592 4.10655 21.5894 3.93152 21.5894Z" fill="url(#paint9_linear_2153_2820)"/>
</g>
<defs>
<linearGradient id="paint0_linear_2153_2820" x1="13.057" y1="2.64516" x2="12.9295" y2="6.38419" gradientUnits="userSpaceOnUse">
<stop stop-color="#FFB92D"/>
<stop offset="1" stop-color="#F59500"/>
</linearGradient>
<linearGradient id="paint1_linear_2153_2820" x1="13.6684" y1="5.12753" x2="13.3211" y2="7.99194" gradientUnits="userSpaceOnUse">
<stop stop-color="#FFB92D"/>
<stop offset="1" stop-color="#F59500"/>
</linearGradient>
<linearGradient id="paint2_linear_2153_2820" x1="12.6999" y1="8.98991" x2="12.6999" y2="15.1131" gradientUnits="userSpaceOnUse">
<stop stop-color="#FF4C54"/>
<stop offset="1" stop-color="#BE3F45"/>
</linearGradient>
<linearGradient id="paint3_linear_2153_2820" x1="12.6999" y1="13.5364" x2="12.6999" y2="22.9931" gradientUnits="userSpaceOnUse">
<stop stop-color="#FF4C54"/>
<stop offset="1" stop-color="#BE3F45"/>
</linearGradient>
<linearGradient id="paint4_linear_2153_2820" x1="22.3782" y1="15.4707" x2="20.7849" y2="15.4707" gradientUnits="userSpaceOnUse">
<stop stop-color="#BE3F45" stop-opacity="0"/>
<stop offset="1" stop-color="#BE3F45"/>
</linearGradient>
<linearGradient id="paint5_linear_2153_2820" x1="8.12793" y1="13.835" x2="16.2336" y2="17.574" gradientUnits="userSpaceOnUse">
<stop stop-color="#FFC72D"/>
<stop offset="1" stop-color="#F5B400"/>
</linearGradient>
<linearGradient id="paint6_linear_2153_2820" x1="11.1362" y1="22.1598" x2="10.8012" y2="24.7207" gradientUnits="userSpaceOnUse">
<stop stop-color="#BE3F45" stop-opacity="0"/>
<stop offset="1" stop-color="#BE3F45"/>
</linearGradient>
<linearGradient id="paint7_linear_2153_2820" x1="2.8027" y1="6.98128" x2="2.8027" y2="23.3579" gradientUnits="userSpaceOnUse">
<stop stop-color="#FFD665"/>
<stop offset="1" stop-color="#FFBB00"/>
</linearGradient>
<linearGradient id="paint8_linear_2153_2820" x1="12.2167" y1="6.98195" x2="12.2167" y2="23.3242" gradientUnits="userSpaceOnUse">
<stop stop-color="#FFF465"/>
<stop offset="1" stop-color="#FFE600"/>
</linearGradient>
<linearGradient id="paint9_linear_2153_2820" x1="3.58085" y1="6.98089" x2="3.58085" y2="23.357" gradientUnits="userSpaceOnUse">
<stop stop-color="#FFF465"/>
<stop offset="1" stop-color="#FFE600"/>
</linearGradient>
<clipPath id="clip0_2153_2820">
<rect width="24" height="24" fill="white" transform="translate(0.700073 0.5)"/>
</clipPath>
</defs>
</svg>
