
<svg width="19" height="19" viewBox="0 0 19 19" fill="none" xmlns="http://www.w3.org/2000/svg">
<path fill-rule="evenodd" clip-rule="evenodd" d="M2.95007 16.8125C2.95007 16.3983 3.28586 16.0625 3.70007 16.0625H15.7001C16.1143 16.0625 16.4501 16.3983 16.4501 16.8125C16.4501 17.2267 16.1143 17.5625 15.7001 17.5625H3.70007C3.28586 17.5625 2.95007 17.2267 2.95007 16.8125Z" fill="url(#paint0_linear_278_2579)"/>
<path d="M2.94258 12.1529C2.71184 12.3837 2.59647 12.4992 2.45042 12.4805C2.30436 12.4619 2.22817 12.3323 2.0758 12.073C1.82566 11.6475 1.67119 11.2121 1.64336 10.7269C1.63153 10.5204 1.63786 10.3127 1.66213 10.1062C1.74358 9.41284 2.07424 8.81398 2.57746 8.1826C3.0696 7.56512 3.77255 6.86217 4.66394 5.97079L6.17087 4.46386C7.06225 3.57248 7.76519 2.86952 8.38267 2.37739C9.01406 1.87417 9.61291 1.54351 10.3062 1.46206C10.5128 1.43779 10.7205 1.43145 10.9269 1.44329C11.412 1.4711 11.846 1.62449 12.2706 1.87388C12.5298 2.02607 12.6593 2.10216 12.678 2.2482C12.6967 2.39424 12.5814 2.50964 12.3507 2.74042L2.94258 12.1529Z" fill="url(#paint1_linear_278_2579)"/>
<path fill-rule="evenodd" clip-rule="evenodd" d="M2.45042 12.4805C2.59647 12.4992 2.71184 12.3837 2.94258 12.1529L12.3507 2.74042C12.5814 2.50964 12.6967 2.39424 12.678 2.2482C12.6593 2.10216 12.5298 2.02607 12.2706 1.87388C11.846 1.62449 11.412 1.4711 10.9269 1.44329C10.7205 1.43145 10.5128 1.43779 10.3062 1.46206C9.61291 1.54351 9.01406 1.87417 8.38267 2.37739C7.76519 2.86952 7.06225 3.57248 6.17087 4.46386L4.66394 5.97079C3.77255 6.86217 3.0696 7.56512 2.57746 8.1826C2.07424 8.81398 1.74358 9.41284 1.66213 10.1062C1.63786 10.3127 1.63153 10.5204 1.64336 10.7269C1.67119 11.2121 1.82566 11.6475 2.0758 12.073C2.22817 12.3323 2.30436 12.4619 2.45042 12.4805ZM13.6904 3.11885C13.8136 3.11815 13.911 3.21328 14.1056 3.40354C14.361 3.65316 14.6332 3.92528 14.9262 4.21834L14.9818 4.27388C15.8171 5.10924 16.4823 5.77436 16.9415 6.36779C17.4153 6.98018 17.7167 7.57351 17.7568 8.27314C17.7686 8.47961 17.7623 8.68729 17.738 8.89383C17.6566 9.58717 17.3259 10.186 16.8227 10.8174C16.3306 11.4349 15.6276 12.1378 14.7362 13.0292L13.2292 14.5362C12.3379 15.4276 11.6349 16.1305 11.0175 16.6226C10.3861 17.1258 9.78724 17.4565 9.0939 17.5379C8.88737 17.5622 8.67968 17.5685 8.47321 17.5567C7.77359 17.5166 7.18025 17.2153 6.56786 16.7414C5.97446 16.2822 5.30931 15.6171 4.47401 14.7817L4.47399 14.7817L4.47395 14.7817L4.4184 14.7261L4.4182 14.7259C4.12521 14.4329 3.85317 14.1609 3.60362 13.9056C3.41336 13.7109 3.31823 13.6136 3.31893 13.4903C3.31964 13.367 3.41709 13.2696 3.612 13.0747L3.612 13.0747L13.2747 3.41192C13.4697 3.21701 13.5671 3.11956 13.6904 3.11885ZM15.0621 9.18876C15.2818 8.96909 15.2818 8.61294 15.0621 8.39327C14.8424 8.1736 14.4863 8.1736 14.2666 8.39327L12.6119 10.048C12.3922 10.2676 12.3922 10.6238 12.6119 10.8435C12.8316 11.0631 13.1877 11.0631 13.4074 10.8435L15.0621 9.18876ZM11.9891 12.2618C12.2088 12.0421 12.2088 11.6859 11.9891 11.4663C11.7694 11.2466 11.4133 11.2466 11.1936 11.4663L10.4845 12.1754C10.2648 12.3951 10.2648 12.7513 10.4845 12.9709C10.7041 13.1906 11.0603 13.1906 11.2799 12.9709L11.9891 12.2618Z" fill="url(#paint2_linear_278_2579)"/>
<defs>
<linearGradient id="paint0_linear_278_2579" x1="9.70008" y1="10.0625" x2="9.70008" y2="23.5625" gradientUnits="userSpaceOnUse">
<stop stop-color="#ACB9C6"/>
<stop offset="1" stop-color="#F2F7F8"/>
</linearGradient>
<linearGradient id="paint1_linear_278_2579" x1="7.15878" y1="1.4375" x2="7.15878" y2="12.4825" gradientUnits="userSpaceOnUse">
<stop stop-color="#ACB9C6"/>
<stop offset="1" stop-color="#F2F7F8"/>
</linearGradient>
<linearGradient id="paint2_linear_278_2579" x1="9.70007" y1="1.4375" x2="9.70007" y2="17.5625" gradientUnits="userSpaceOnUse">
<stop stop-color="#ACB9C6"/>
<stop offset="1" stop-color="#F2F7F8"/>
</linearGradient>
</defs>
</svg>
