<svg width="25" height="25" viewBox="0 0 25 25" fill="none" xmlns="http://www.w3.org/2000/svg">
<path d="M18.8504 16.891C16.7869 20.0823 14.4946 19.8127 11.624 21.4273C10.061 22.3321 9.7653 23.0772 9.27763 23.0456C9.04777 23.048 8.78521 22.5559 8.93259 21.6932C9.07144 20.8946 9.27949 20.5627 9.01077 20.3639C8.56574 20.0111 7.83924 21.7777 5.38101 23.2506C3.95545 24.1082 2.96305 24.1734 2.28202 24.1162C1.14128 24.0638 0.530861 23.7219 0.472563 23.4202C0.405737 23.1827 0.672082 23.1524 1.76068 22.6098C2.82132 22.0309 4.30658 20.7238 4.01606 20.1953C3.7535 19.7033 2.67009 18.9723 1.118 20.0419C0.935541 20.1812 0.761611 20.2563 0.641233 20.1751C0.0113793 19.7326 -0.429411 17.126 2.97427 13.7193C4.9036 11.7846 6.6647 11.3633 6.28792 10.4968C6.1372 10.1502 5.23485 10.0312 4.59268 10.1752C3.88606 10.3108 3.66948 10.707 3.45668 10.5809C3.24389 10.4548 3.12729 9.85132 3.26852 9.28182C3.93813 6.46217 8.86075 3.22312 12.4626 4.74362C12.7484 4.81398 22.7327 10.8682 18.8504 16.891Z" fill="#F7524B"/>
<path d="M15.5097 13.9024C15.068 14.759 14.2979 15.8664 13.0852 16.8501C11.0051 18.4382 9.25872 18.5019 9.06299 18.2474C8.89521 18.0293 9.36108 17.7313 9.5606 17.4635C9.84163 17.0758 10.2407 16.5403 10.0535 16.2216C9.81033 15.8301 8.32648 16.3859 7.24878 17.0933C6.17108 17.8007 6.0237 18.6635 5.682 18.5204C5.27585 18.3688 5.18009 17.1146 5.27155 16.1791C5.32273 15.7938 5.46157 14.9953 6.36913 13.8407C7.48472 12.3541 8.99038 12.1279 9.20459 11.5027C9.25814 11.3464 9.2752 11.2179 9.16335 11.0725C8.88373 10.7089 8.33398 10.8978 8.23066 10.6881C8.12734 10.4784 8.4278 10.1913 8.47283 10.0992C9.11878 9.43292 10.56 9.1982 11.286 9.16325C12.6818 10.7523 14.0775 12.3413 15.5097 13.9024Z" fill="#FFDC6E"/>
<path d="M10.6752 10.0925C9.37813 6.57027 11.1675 2.62548 14.7024 1.33305C14.9161 1.22851 15.0927 1.15226 15.3348 1.08464C18.5757 0.251135 21.963 1.82592 23.3207 4.89165C23.3688 5.03071 23.417 5.16978 23.4651 5.30885C24.0032 6.77338 24.0003 8.2993 23.6134 9.70822C23.0176 11.6868 21.5314 13.349 19.4663 14.1052C18.0335 14.6131 16.5589 14.6841 15.182 14.2703C13.1962 13.6766 11.4626 12.1872 10.6752 10.0925Z" fill="#F0F0FC"/>
<path d="M16.7237 7.17371C16.7608 7.14542 16.7978 7.11712 16.8349 7.08883C17.0486 6.98428 17.3301 7.12095 17.3696 7.32524L19.4825 12.9791C19.5874 13.192 19.4502 13.4725 19.2452 13.5119C19.0315 13.6164 18.75 13.4797 18.7105 13.2754L16.5976 7.62161C16.5495 7.48254 16.6125 7.25859 16.7237 7.17371Z" fill="#82828E"/>
<path d="M18.3369 1.54783C18.4481 1.46295 18.5877 1.41499 18.7099 1.49747C18.9347 1.56029 19.068 1.81013 19.0049 2.03408L17.4572 7.66975C17.3942 7.8937 17.1434 8.02653 16.9187 7.96372C16.6939 7.9009 16.5606 7.65106 16.6237 7.42711L18.1714 1.79144C18.1887 1.66101 18.2628 1.60442 18.3369 1.54783Z" fill="#82828E"/>
<path d="M16.7236 7.17447C16.7977 7.11789 16.9002 7.09822 16.9657 7.10685L22.6221 6.89049C22.8555 6.88809 23.063 7.08135 23.0654 7.31393C23.0678 7.54651 22.8738 7.7532 22.6404 7.7556L16.984 7.97196C16.7505 7.97436 16.5431 7.7811 16.5407 7.54852C16.5951 7.38979 16.6495 7.23106 16.7236 7.17447Z" fill="#82828E"/>
<path d="M11.8907 3.94856C12.039 3.83538 12.2069 3.82435 12.3946 3.91546L17.2647 7.11253C17.4808 7.24057 17.5116 7.51007 17.3831 7.72539C17.2546 7.94071 16.9842 7.97141 16.7681 7.84337L11.898 4.6463C11.6819 4.51826 11.6511 4.24876 11.7796 4.03344C11.8166 4.00514 11.8537 3.97685 11.8907 3.94856Z" fill="#82828E"/>
<path d="M16.7233 7.17386C16.9086 7.0324 17.1704 7.06692 17.3124 7.25154C17.4544 7.43617 17.4197 7.69704 17.2344 7.83851L12.8443 11.3076C12.6219 11.4774 12.3972 11.4146 12.2552 11.2299C12.1132 11.0453 12.1479 10.7844 12.3332 10.643L16.7233 7.17386Z" fill="#82828E"/>
<path d="M18.1851 9.45799L19.2612 7.8745C19.4268 7.63089 19.4417 7.26787 19.2429 7.0094L18.0416 5.52378C17.8429 5.26531 17.4872 5.18523 17.2081 5.28114L15.4221 5.94151C15.1059 6.06571 14.9033 6.33762 14.9254 6.67234L15.0015 8.60684C15.0236 8.94156 15.2224 9.20003 15.541 9.30841L17.4045 9.81958C17.7034 9.82581 18.0196 9.7016 18.1851 9.45799Z" fill="#3B3B44"/>
<path d="M21.5627 12.855C20.9611 13.3729 20.2373 13.8084 19.4653 14.1048C18.6934 14.4011 17.8449 14.5215 17.0421 14.5484L18.4123 12.506C18.5778 12.2623 18.9311 12.1098 19.2213 12.1813L21.5627 12.855Z" fill="#3B3B44"/>
<path d="M13.4539 13.4796C12.2228 12.72 11.2116 11.5581 10.6735 10.0935C10.6254 9.95446 10.5772 9.81539 10.5291 9.67632L12.8138 10.2762C13.104 10.3476 13.3311 10.643 13.3533 10.9778L13.4539 13.4796Z" fill="#3B3B44"/>
<path d="M10.4084 6.07551C10.7842 4.49923 11.7405 3.06585 13.103 2.0842L13.1839 4.48385C13.206 4.81858 13.0034 5.09048 12.6872 5.21469L10.4084 6.07551Z" fill="#3B3B44"/>
<path d="M16.3869 0.925094C18.0753 0.749555 19.714 1.19791 21.05 2.17041L18.7058 3.0226C18.3896 3.14681 18.071 3.03844 17.8722 2.77996L16.3869 0.925094Z" fill="#3B3B44"/>
<path d="M23.3189 4.89234C23.3671 5.03141 23.4152 5.17048 23.4633 5.30955C24.0014 6.77408 23.9986 8.3 23.6116 9.70891L22.0412 7.74327C21.8424 7.4848 21.8203 7.15008 22.0229 6.87817L23.3189 4.89234Z" fill="#3B3B44"/>
<path opacity="0.1" d="M11.6368 11.879C9.33672 8.88811 9.90841 4.58368 12.9101 2.29188C13.0954 2.15041 13.2807 2.00894 13.4944 1.9044C11.5818 4.77116 11.0751 10.8427 17.2764 14.5471C15.1102 14.5601 12.9998 13.6514 11.6368 11.879Z" fill="black"/>
</svg>
