<svg width="25" height="25" viewBox="0 0 25 25" fill="none" xmlns="http://www.w3.org/2000/svg">
<g clip-path="url(#clip0_2153_2725)">
<path d="M16.1854 1.49219H13.4768V23.5082H16.1854C20.998 23.5082 24.9002 18.5796 24.9002 12.5002C24.9002 6.42086 20.998 1.49219 16.1854 1.49219Z" fill="url(#paint0_linear_2153_2725)"/>
<path d="M16.1854 1.49219H13.4768V23.5082H16.1854C20.998 23.5082 24.9002 18.5796 24.9002 12.5002C24.9002 6.42086 20.998 1.49219 16.1854 1.49219Z" fill="url(#paint1_linear_2153_2725)"/>
<path d="M13.4768 23.5084H16.1854C20.9981 23.5084 24.9002 18.5798 24.9002 12.5004C24.9002 11.9622 24.869 11.4331 24.8099 10.9155H13.4768V23.5084Z" fill="url(#paint2_linear_2153_2725)"/>
<path d="M13.4768 23.5086C18.2897 23.5086 22.1914 18.5801 22.1914 12.5006C22.1914 6.4211 18.2897 1.49268 13.4768 1.49268C8.66378 1.49268 4.76208 6.4211 4.76208 12.5006C4.76208 18.5801 8.66378 23.5086 13.4768 23.5086Z" fill="url(#paint3_linear_2153_2725)"/>
<path d="M13.5695 12.0444H4.7701C4.76523 12.1957 4.76208 12.3476 4.76208 12.5003C4.76208 18.5799 8.66377 23.5083 13.4768 23.5083C16.3682 23.5083 18.9303 21.729 20.5156 18.9905L13.5695 12.0444Z" fill="url(#paint4_linear_2153_2725)"/>
<path d="M4.76208 12.5004C4.76208 18.5799 8.66377 23.5083 13.4768 23.5083C18.2897 23.5083 22.1914 18.5799 22.1914 12.5004C22.1914 12.2802 22.1857 12.0617 22.1756 11.8447H4.77793C4.7678 12.0617 4.76208 12.2802 4.76208 12.5004Z" fill="url(#paint5_linear_2153_2725)"/>
<path d="M11.5992 11.8447H4.77788C4.7678 12.0617 4.76208 12.2802 4.76208 12.5004C4.76208 17.7656 7.68882 22.1666 11.5992 23.2513V11.8447Z" fill="url(#paint6_linear_2153_2725)"/>
<path d="M13.4767 1.49268C12.9874 1.49268 12.5077 1.54443 12.0404 1.64235V23.3589C12.5077 23.4568 12.9874 23.5086 13.4767 23.5086C18.2897 23.5086 22.1914 18.5802 22.1914 12.5007C22.1914 6.42116 18.2897 1.49268 13.4767 1.49268Z" fill="url(#paint7_linear_2153_2725)"/>
<path d="M13.4767 3.45752C9.52311 3.45752 6.31775 7.50649 6.31775 12.5006C6.31775 17.4946 9.52311 21.5436 13.4767 21.5436C17.4304 21.5436 20.6358 17.4946 20.6358 12.5006C20.6358 7.50649 17.4304 3.45752 13.4767 3.45752ZM13.4767 19.7353C10.3136 19.7353 7.74931 16.4959 7.74931 12.5006C7.74931 8.50521 10.3136 5.26582 13.4767 5.26582C16.6399 5.26582 19.2042 8.50516 19.2042 12.5006C19.2042 16.4959 16.6399 19.7353 13.4767 19.7353Z" fill="url(#paint8_linear_2153_2725)"/>
<path d="M13.4767 7.22754C11.1711 7.22754 9.30249 9.58826 9.30249 12.5004C9.30249 15.4126 11.1711 17.7733 13.4767 17.7733C15.7823 17.7733 17.6509 15.4126 17.6509 12.5004C17.6509 9.58826 15.7823 7.22754 13.4767 7.22754ZM13.4767 15.6599C12.0951 15.6599 10.9752 14.2453 10.9752 12.5004C10.9752 10.7555 12.095 9.3409 13.4767 9.3409C14.8583 9.3409 15.9781 10.7555 15.9781 12.5004C15.9781 14.2453 14.8583 15.6599 13.4767 15.6599Z" fill="url(#paint9_linear_2153_2725)"/>
<path d="M15.6316 14.1065C15.1961 15.0365 14.3941 15.6599 13.4767 15.6599C12.0953 15.6599 10.9755 14.2452 10.9755 12.5005C10.9755 12.3454 10.9844 12.193 11.0012 12.0444H9.31843C9.30765 12.1949 9.30249 12.3468 9.30249 12.5005C9.30249 15.4129 11.1714 17.7735 13.4767 17.7735C14.9261 17.7735 16.2025 16.8412 16.9501 15.4251L15.6316 14.1065Z" fill="url(#paint10_linear_2153_2725)"/>
<path d="M18.1708 16.6457C17.1353 18.5136 15.4188 19.7347 13.4767 19.7347C10.3136 19.7347 7.74956 16.4952 7.74956 12.5C7.74956 12.3468 7.75331 12.1949 7.76081 12.0439H6.3269C6.32081 12.1949 6.31799 12.3472 6.31799 12.5C6.31799 17.4941 9.52331 21.5432 13.4767 21.5432C15.8739 21.5432 17.9955 20.0549 19.2953 17.7702L18.1708 16.6457Z" fill="url(#paint11_linear_2153_2725)"/>
<path d="M9.50483 12.5H3.50108L0.979678 8.90703C0.777647 8.61922 0.983897 8.22266 1.33546 8.22266H1.59608C1.85062 8.22266 2.08921 8.34641 2.23499 8.555L2.81483 9.38094L2.58843 8.58688C2.5364 8.40453 2.67327 8.22266 2.86312 8.22266H3.89962C3.9493 8.22266 3.99716 8.24131 4.03372 8.27497L4.18312 8.41236C4.24762 8.4717 4.34343 8.48159 4.41871 8.43669C4.47894 8.40078 4.55366 8.39937 4.61521 8.43298L4.84907 8.56077C4.94094 8.61097 5.05504 8.59316 5.12722 8.51731C5.32091 8.31378 5.61079 8.23442 5.88187 8.30825C6.42027 8.45492 6.89821 8.7852 7.22624 9.25292L9.50483 12.5Z" fill="url(#paint12_linear_2153_2725)"/>
<path d="M3.50108 12.5002H9.50483L7.7225 9.96045H1.71875L3.50108 12.5002Z" fill="url(#paint13_linear_2153_2725)"/>
<path d="M7.22622 9.25297C6.89814 8.78525 6.42025 8.45497 5.88184 8.3083C5.61076 8.23447 5.32089 8.31383 5.1272 8.51736C5.05501 8.5932 4.94092 8.61102 4.84904 8.56081L4.61518 8.43303C4.55364 8.39938 4.47892 8.40078 4.41868 8.43669C4.3434 8.48155 4.24759 8.47166 4.18309 8.41236L4.0337 8.27497C3.99714 8.24131 3.94928 8.22266 3.89959 8.22266H2.86309C2.67325 8.22266 2.53637 8.40453 2.5884 8.58688L2.81017 9.36467L5.01034 12.5H9.50476L7.22622 9.25297Z" fill="url(#paint14_linear_2153_2725)"/>
<path d="M7.22629 9.25297C6.89821 8.78525 6.42032 8.45497 5.88191 8.3083C5.61084 8.23447 5.32096 8.31383 5.12727 8.51736C5.05509 8.5932 4.94099 8.61102 4.84912 8.56081L4.61526 8.43303C4.55371 8.39938 4.47899 8.40078 4.41876 8.43669C4.34348 8.48155 4.24766 8.47166 4.18316 8.41236L4.03377 8.27497C3.99721 8.24131 3.94935 8.22266 3.89966 8.22266H2.86316C2.79449 8.22266 2.73295 8.2467 2.68457 8.2857C2.72577 8.28997 2.76693 8.29719 2.80766 8.3083C3.34607 8.45497 3.82401 8.78525 4.15204 9.25297L6.43063 12.5H9.50488L7.22629 9.25297Z" fill="url(#paint15_linear_2153_2725)"/>
<path d="M7.22624 9.25303C6.89817 8.78531 6.42027 8.45503 5.88187 8.30836C5.61079 8.23453 5.32092 8.31389 5.12723 8.51742C5.05504 8.59326 4.94095 8.61108 4.84907 8.56087L4.61521 8.43309C4.55367 8.39944 4.47895 8.40084 4.41871 8.43675C4.36846 8.4667 4.30921 8.47172 4.2561 8.45447C4.63101 8.63123 4.9596 8.90376 5.20457 9.25303L7.48317 12.5001H9.50484L7.22624 9.25303Z" fill="url(#paint16_linear_2153_2725)"/>
<path d="M7.22624 9.25303C6.89817 8.78531 6.42027 8.45503 5.88187 8.30836C5.61079 8.23453 5.32092 8.31389 5.12723 8.51742C5.05504 8.59326 4.94095 8.61108 4.84907 8.56087L4.61521 8.43309C4.55367 8.39944 4.47895 8.40084 4.41871 8.43675C4.36846 8.4667 4.30921 8.47172 4.2561 8.45447C4.63101 8.63123 4.9596 8.90376 5.20457 9.25303L7.48317 12.5001H9.50484L7.22624 9.25303Z" fill="url(#paint17_linear_2153_2725)"/>
<path d="M9.50483 12.5H3.50108L0.979678 16.093C0.777647 16.3808 0.983897 16.7773 1.33546 16.7773H1.59608C1.85062 16.7773 2.08921 16.6536 2.23499 16.445L2.81483 15.6191L2.58843 16.4131C2.5364 16.5955 2.67327 16.7773 2.86312 16.7773H3.89962C3.9493 16.7773 3.99716 16.7587 4.03372 16.725L4.18312 16.5876C4.24762 16.5283 4.34343 16.5184 4.41871 16.5633C4.47894 16.5992 4.55366 16.6006 4.61521 16.567L4.84907 16.4392C4.94094 16.389 5.05504 16.4068 5.12722 16.4827C5.32091 16.6862 5.61079 16.7656 5.88187 16.6918C6.42027 16.5451 6.89821 16.2148 7.22624 15.7471L9.50483 12.5Z" fill="url(#paint18_linear_2153_2725)"/>
<path d="M2.09418 14.5049L0.979678 16.0931C0.777647 16.3809 0.983897 16.7775 1.33546 16.7775H1.59608C1.85062 16.7775 2.08921 16.6537 2.23499 16.4451L2.81483 15.6192L2.58843 16.4133C2.5364 16.5956 2.67327 16.7775 2.86312 16.7775H3.89962C3.9493 16.7775 3.99716 16.7588 4.03372 16.7252L4.18312 16.5878C4.24762 16.5284 4.34343 16.5185 4.41871 16.5634C4.47894 16.5994 4.55366 16.6008 4.61521 16.5671L4.84907 16.4394C4.94094 16.3892 5.05504 16.407 5.12722 16.4828C5.32091 16.6864 5.61079 16.7657 5.88187 16.6919C6.42027 16.5452 6.89821 16.2149 7.22624 15.7472L8.09797 14.5049H2.09418V14.5049Z" fill="url(#paint19_linear_2153_2725)"/>
<path d="M7.22622 15.747C6.89814 16.2147 6.42025 16.545 5.88184 16.6917C5.61076 16.7655 5.32089 16.6862 5.1272 16.4826C5.05501 16.4068 4.94092 16.389 4.84904 16.4392L4.61518 16.567C4.55364 16.6006 4.47892 16.5992 4.41868 16.5633C4.3434 16.5185 4.24759 16.5283 4.18309 16.5876L4.0337 16.725C3.99714 16.7587 3.94928 16.7773 3.89959 16.7773H2.86309C2.67325 16.7773 2.53637 16.5955 2.5884 16.4131L2.81017 15.6353L5.01034 12.5H9.50476L7.22622 15.747Z" fill="url(#paint20_linear_2153_2725)"/>
<path d="M7.22629 15.747C6.89821 16.2147 6.42032 16.545 5.88191 16.6917C5.61084 16.7655 5.32096 16.6862 5.12727 16.4826C5.05509 16.4068 4.94099 16.389 4.84912 16.4392L4.61526 16.567C4.55371 16.6006 4.47899 16.5992 4.41876 16.5633C4.34348 16.5185 4.24766 16.5283 4.18316 16.5876L4.03377 16.725C3.99721 16.7587 3.94935 16.7773 3.89966 16.7773H2.86316C2.79449 16.7773 2.73295 16.7533 2.68457 16.7143C2.72577 16.71 2.76693 16.7028 2.80766 16.6917C3.34607 16.545 3.82401 16.2147 4.15204 15.747L6.43063 12.5H9.50488L7.22629 15.747Z" fill="url(#paint21_linear_2153_2725)"/>
<path d="M7.22624 15.747C6.89817 16.2147 6.42027 16.545 5.88187 16.6917C5.61079 16.7655 5.32092 16.6862 5.12723 16.4826C5.05504 16.4068 4.94095 16.389 4.84907 16.4392L4.61521 16.567C4.55367 16.6006 4.47895 16.5992 4.41871 16.5633C4.36846 16.5334 4.30921 16.5283 4.2561 16.5456C4.63101 16.3688 4.9596 16.0963 5.20457 15.747L7.48317 12.5H9.50484L7.22624 15.747Z" fill="url(#paint22_linear_2153_2725)"/>
<path d="M7.22624 15.747C6.89817 16.2147 6.42027 16.545 5.88187 16.6917C5.61079 16.7655 5.32092 16.6862 5.12723 16.4826C5.05504 16.4068 4.94095 16.389 4.84907 16.4392L4.61521 16.567C4.55367 16.6006 4.47895 16.5992 4.41871 16.5633C4.36846 16.5334 4.30921 16.5283 4.2561 16.5456C4.63101 16.3688 4.9596 16.0963 5.20457 15.747L7.48317 12.5H9.50484L7.22624 15.747Z" fill="url(#paint23_linear_2153_2725)"/>
<path d="M13.7506 12.5V12.5068C13.7503 12.8653 13.4596 13.1558 13.101 13.1558H1.55593C1.19377 13.1558 0.900146 12.8622 0.900146 12.5C0.900146 12.1379 1.19377 11.8442 1.55593 11.8442H13.1011C13.4596 11.8442 13.7503 12.1347 13.7506 12.4933L13.7506 12.5Z" fill="url(#paint24_linear_2153_2725)"/>
</g>
<defs>
<linearGradient id="paint0_linear_2153_2725" x1="19.1885" y1="2.36655" x2="19.1885" y2="23.8204" gradientUnits="userSpaceOnUse">
<stop stop-color="#FFA1AE"/>
<stop offset="1" stop-color="#FF4565"/>
</linearGradient>
<linearGradient id="paint1_linear_2153_2725" x1="19.1568" y1="14.0704" x2="24.4468" y2="16.3848" gradientUnits="userSpaceOnUse">
<stop stop-color="#FE0364" stop-opacity="0"/>
<stop offset="0.2343" stop-color="#F90362" stop-opacity="0.234"/>
<stop offset="0.5173" stop-color="#EA035B" stop-opacity="0.517"/>
<stop offset="0.8243" stop-color="#D20250" stop-opacity="0.824"/>
<stop offset="1" stop-color="#C00148"/>
</linearGradient>
<linearGradient id="paint2_linear_2153_2725" x1="19.1885" y1="13.1122" x2="19.1885" y2="22.8458" gradientUnits="userSpaceOnUse">
<stop stop-color="#FE0364" stop-opacity="0"/>
<stop offset="0.2343" stop-color="#F90362" stop-opacity="0.234"/>
<stop offset="0.5173" stop-color="#EA035B" stop-opacity="0.517"/>
<stop offset="0.8243" stop-color="#D20250" stop-opacity="0.824"/>
<stop offset="1" stop-color="#C00148"/>
</linearGradient>
<linearGradient id="paint3_linear_2153_2725" x1="7.17924" y1="8.87783" x2="20.8452" y2="16.7395" gradientUnits="userSpaceOnUse">
<stop stop-color="#FFA1AE"/>
<stop offset="1" stop-color="#FF4565"/>
</linearGradient>
<linearGradient id="paint4_linear_2153_2725" x1="12.6219" y1="16.6982" x2="11.3521" y2="12.4544" gradientUnits="userSpaceOnUse">
<stop stop-color="#FE0364" stop-opacity="0"/>
<stop offset="0.2343" stop-color="#F90362" stop-opacity="0.234"/>
<stop offset="0.5173" stop-color="#EA035B" stop-opacity="0.517"/>
<stop offset="0.8243" stop-color="#D20250" stop-opacity="0.824"/>
<stop offset="1" stop-color="#C00148"/>
</linearGradient>
<linearGradient id="paint5_linear_2153_2725" x1="13.4768" y1="18.0165" x2="13.4768" y2="24.3134" gradientUnits="userSpaceOnUse">
<stop stop-color="#FE0364" stop-opacity="0"/>
<stop offset="0.2343" stop-color="#F90362" stop-opacity="0.234"/>
<stop offset="0.5173" stop-color="#EA035B" stop-opacity="0.517"/>
<stop offset="0.8243" stop-color="#D20250" stop-opacity="0.824"/>
<stop offset="1" stop-color="#C00148"/>
</linearGradient>
<linearGradient id="paint6_linear_2153_2725" x1="9.07632" y1="15.7976" x2="7.69515" y2="14.5278" gradientUnits="userSpaceOnUse">
<stop stop-color="#FE0364" stop-opacity="0"/>
<stop offset="0.2343" stop-color="#F90362" stop-opacity="0.234"/>
<stop offset="0.5173" stop-color="#EA035B" stop-opacity="0.517"/>
<stop offset="0.8243" stop-color="#D20250" stop-opacity="0.824"/>
<stop offset="1" stop-color="#C00148"/>
</linearGradient>
<linearGradient id="paint7_linear_2153_2725" x1="16.6353" y1="14.598" x2="21.209" y2="18.5105" gradientUnits="userSpaceOnUse">
<stop stop-color="#FE0364" stop-opacity="0"/>
<stop offset="0.2343" stop-color="#F90362" stop-opacity="0.234"/>
<stop offset="0.5173" stop-color="#EA035B" stop-opacity="0.517"/>
<stop offset="0.8243" stop-color="#D20250" stop-opacity="0.824"/>
<stop offset="1" stop-color="#C00148"/>
</linearGradient>
<linearGradient id="paint8_linear_2153_2725" x1="8.30342" y1="9.5245" x2="19.5298" y2="15.9827" gradientUnits="userSpaceOnUse">
<stop stop-color="#F5FBFF"/>
<stop offset="1" stop-color="#DBD5EF"/>
</linearGradient>
<linearGradient id="paint9_linear_2153_2725" x1="10.4602" y1="10.7651" x2="17.0062" y2="14.5308" gradientUnits="userSpaceOnUse">
<stop stop-color="#F5FBFF"/>
<stop offset="1" stop-color="#DBD5EF"/>
</linearGradient>
<linearGradient id="paint10_linear_2153_2725" x1="13.0973" y1="14.3987" x2="12.3398" y2="12.0819" gradientUnits="userSpaceOnUse">
<stop stop-color="#DBD5EF" stop-opacity="0"/>
<stop offset="0.2853" stop-color="#D9D2EE" stop-opacity="0.285"/>
<stop offset="0.4739" stop-color="#D4C9E9" stop-opacity="0.474"/>
<stop offset="0.6346" stop-color="#CBBAE2" stop-opacity="0.635"/>
<stop offset="0.7795" stop-color="#BFA5D7" stop-opacity="0.78"/>
<stop offset="0.9126" stop-color="#AF8ACA" stop-opacity="0.913"/>
<stop offset="1" stop-color="#A274BF"/>
</linearGradient>
<linearGradient id="paint11_linear_2153_2725" x1="10.1018" y1="15.3252" x2="8.60924" y2="14.1222" gradientUnits="userSpaceOnUse">
<stop stop-color="#DBD5EF" stop-opacity="0"/>
<stop offset="0.2853" stop-color="#D9D2EE" stop-opacity="0.285"/>
<stop offset="0.4739" stop-color="#D4C9E9" stop-opacity="0.474"/>
<stop offset="0.6346" stop-color="#CBBAE2" stop-opacity="0.635"/>
<stop offset="0.7795" stop-color="#BFA5D7" stop-opacity="0.78"/>
<stop offset="0.9126" stop-color="#AF8ACA" stop-opacity="0.913"/>
<stop offset="1" stop-color="#A274BF"/>
</linearGradient>
<linearGradient id="paint12_linear_2153_2725" x1="5.20246" y1="8.7433" x2="5.20246" y2="11.3791" gradientUnits="userSpaceOnUse">
<stop stop-color="#B3DAFE"/>
<stop offset="1" stop-color="#0182FC"/>
</linearGradient>
<linearGradient id="paint13_linear_2153_2725" x1="5.61177" y1="11.0298" x2="5.61177" y2="12.1998" gradientUnits="userSpaceOnUse">
<stop stop-color="#314DC9" stop-opacity="0"/>
<stop offset="0.2761" stop-color="#304BC4" stop-opacity="0.276"/>
<stop offset="0.5628" stop-color="#2B45B8" stop-opacity="0.563"/>
<stop offset="0.8535" stop-color="#243BA3" stop-opacity="0.854"/>
<stop offset="1" stop-color="#1F3596"/>
</linearGradient>
<linearGradient id="paint14_linear_2153_2725" x1="5.37048" y1="11.0623" x2="4.25106" y2="12.0982" gradientUnits="userSpaceOnUse">
<stop stop-color="#314DC9" stop-opacity="0"/>
<stop offset="0.2761" stop-color="#304BC4" stop-opacity="0.276"/>
<stop offset="0.5628" stop-color="#2B45B8" stop-opacity="0.563"/>
<stop offset="0.8535" stop-color="#243BA3" stop-opacity="0.854"/>
<stop offset="1" stop-color="#1F3596"/>
</linearGradient>
<linearGradient id="paint15_linear_2153_2725" x1="5.96563" y1="10.5672" x2="5.01327" y2="11.8537" gradientUnits="userSpaceOnUse">
<stop stop-color="#314DC9" stop-opacity="0"/>
<stop offset="0.2761" stop-color="#304BC4" stop-opacity="0.276"/>
<stop offset="0.5628" stop-color="#2B45B8" stop-opacity="0.563"/>
<stop offset="0.8535" stop-color="#243BA3" stop-opacity="0.854"/>
<stop offset="1" stop-color="#1F3596"/>
</linearGradient>
<linearGradient id="paint16_linear_2153_2725" x1="6.43898" y1="10.6548" x2="4.81832" y2="11.3064" gradientUnits="userSpaceOnUse">
<stop stop-color="#314DC9" stop-opacity="0"/>
<stop offset="0.2761" stop-color="#304BC4" stop-opacity="0.276"/>
<stop offset="0.5628" stop-color="#2B45B8" stop-opacity="0.563"/>
<stop offset="0.8535" stop-color="#243BA3" stop-opacity="0.854"/>
<stop offset="1" stop-color="#1F3596"/>
</linearGradient>
<linearGradient id="paint17_linear_2153_2725" x1="6.99665" y1="10.4135" x2="7.84874" y2="9.94565" gradientUnits="userSpaceOnUse">
<stop stop-color="#314DC9" stop-opacity="0"/>
<stop offset="0.2761" stop-color="#304BC4" stop-opacity="0.276"/>
<stop offset="0.5628" stop-color="#2B45B8" stop-opacity="0.563"/>
<stop offset="0.8535" stop-color="#243BA3" stop-opacity="0.854"/>
<stop offset="1" stop-color="#1F3596"/>
</linearGradient>
<linearGradient id="paint18_linear_2153_2725" x1="4.25802" y1="12.989" x2="5.97894" y2="15.7123" gradientUnits="userSpaceOnUse">
<stop stop-color="#B3DAFE"/>
<stop offset="1" stop-color="#0182FC"/>
</linearGradient>
<linearGradient id="paint19_linear_2153_2725" x1="4.49905" y1="15.6244" x2="4.49905" y2="16.9161" gradientUnits="userSpaceOnUse">
<stop stop-color="#314DC9" stop-opacity="0"/>
<stop offset="0.2761" stop-color="#304BC4" stop-opacity="0.276"/>
<stop offset="0.5628" stop-color="#2B45B8" stop-opacity="0.563"/>
<stop offset="0.8535" stop-color="#243BA3" stop-opacity="0.854"/>
<stop offset="1" stop-color="#1F3596"/>
</linearGradient>
<linearGradient id="paint20_linear_2153_2725" x1="5.37048" y1="13.9377" x2="4.25106" y2="12.9018" gradientUnits="userSpaceOnUse">
<stop stop-color="#314DC9" stop-opacity="0"/>
<stop offset="0.2761" stop-color="#304BC4" stop-opacity="0.276"/>
<stop offset="0.5628" stop-color="#2B45B8" stop-opacity="0.563"/>
<stop offset="0.8535" stop-color="#243BA3" stop-opacity="0.854"/>
<stop offset="1" stop-color="#1F3596"/>
</linearGradient>
<linearGradient id="paint21_linear_2153_2725" x1="5.96563" y1="14.4328" x2="5.01327" y2="13.1463" gradientUnits="userSpaceOnUse">
<stop stop-color="#314DC9" stop-opacity="0"/>
<stop offset="0.2761" stop-color="#304BC4" stop-opacity="0.276"/>
<stop offset="0.5628" stop-color="#2B45B8" stop-opacity="0.563"/>
<stop offset="0.8535" stop-color="#243BA3" stop-opacity="0.854"/>
<stop offset="1" stop-color="#1F3596"/>
</linearGradient>
<linearGradient id="paint22_linear_2153_2725" x1="6.43898" y1="14.3453" x2="4.81832" y2="13.6937" gradientUnits="userSpaceOnUse">
<stop stop-color="#314DC9" stop-opacity="0"/>
<stop offset="0.2761" stop-color="#304BC4" stop-opacity="0.276"/>
<stop offset="0.5628" stop-color="#2B45B8" stop-opacity="0.563"/>
<stop offset="0.8535" stop-color="#243BA3" stop-opacity="0.854"/>
<stop offset="1" stop-color="#1F3596"/>
</linearGradient>
<linearGradient id="paint23_linear_2153_2725" x1="6.99665" y1="14.5866" x2="7.84874" y2="15.0544" gradientUnits="userSpaceOnUse">
<stop stop-color="#314DC9" stop-opacity="0"/>
<stop offset="0.2761" stop-color="#304BC4" stop-opacity="0.276"/>
<stop offset="0.5628" stop-color="#2B45B8" stop-opacity="0.563"/>
<stop offset="0.8535" stop-color="#243BA3" stop-opacity="0.854"/>
<stop offset="1" stop-color="#1F3596"/>
</linearGradient>
<linearGradient id="paint24_linear_2153_2725" x1="7.3254" y1="12.0039" x2="7.3254" y2="12.8121" gradientUnits="userSpaceOnUse">
<stop stop-color="#5A5A5A"/>
<stop offset="1" stop-color="#444444"/>
</linearGradient>
<clipPath id="clip0_2153_2725">
<rect width="24" height="24" fill="white" transform="translate(0.900146 0.5)"/>
</clipPath>
</defs>
</svg>
