
<svg width="15" height="17" viewBox="0 0 15 17" fill="none" xmlns="http://www.w3.org/2000/svg">
<path d="M10.3231 0.940966C10.3518 0.708727 10.3661 0.592607 10.2994 0.516733C10.2327 0.44086 10.1165 0.440216 9.88391 0.438927C9.62503 0.437493 9.35303 0.437497 9.06748 0.4375H6.73004C6.44523 0.437497 6.17389 0.437493 5.91561 0.438916C5.68437 0.44019 5.56874 0.440827 5.50208 0.516172C5.43541 0.591517 5.44894 0.707075 5.47601 0.938193L5.51731 1.2909C5.59325 1.74639 5.64324 2.03863 5.70703 2.25289C5.76697 2.45421 5.82052 2.51821 5.863 2.5542C5.90548 2.59019 5.97741 2.63248 6.18585 2.65851C6.40986 2.68648 6.71 2.6875 7.1796 2.6875H8.61753C9.08713 2.6875 9.38727 2.68648 9.61129 2.65851C9.81972 2.63248 9.89165 2.59019 9.93413 2.5542C9.97662 2.51821 10.0302 2.45422 10.0901 2.25289C10.154 2.03835 10.204 1.74564 10.2801 1.28915L10.3231 0.940966Z" fill="url(#paint0_linear_278_933)"/>
<path fill-rule="evenodd" clip-rule="evenodd" d="M4.23064 0.557247C4.30515 0.615102 4.31724 0.718417 4.34144 0.925046L4.40135 1.43664L4.40491 1.45803C4.47387 1.87197 4.54324 2.28846 4.62862 2.57522C4.72219 2.88952 4.86341 3.1833 5.13564 3.41392C5.40787 3.64453 5.72088 3.73554 6.04628 3.77616C6.3483 3.81387 6.71947 3.81385 7.14622 3.81382H8.65054C9.07729 3.81385 9.44846 3.81387 9.75048 3.77616C10.0759 3.73554 10.3889 3.64453 10.6611 3.41392C10.9334 3.1833 11.0746 2.88952 11.1681 2.57522C11.2539 2.28731 11.3231 1.87194 11.3923 1.45646L11.395 1.44016L11.4589 0.922702C11.4843 0.717317 11.4969 0.614624 11.5713 0.557258C11.6457 0.499891 11.7443 0.513198 11.9413 0.539812L11.9827 0.545538C12.7654 0.656299 13.4075 0.891656 13.9125 1.42321C14.4136 1.95071 14.632 2.6147 14.7354 3.42444C14.8361 4.21253 14.8361 5.21898 14.8361 6.48748V10.5152C14.8361 11.7837 14.8361 12.7901 14.7354 13.5782C14.632 14.3879 14.4136 15.0519 13.9125 15.5794C13.4075 16.111 12.7654 16.3463 11.9827 16.4571C11.2285 16.5639 10.2676 16.5638 9.06733 16.5638H9.0673H6.72982H6.72979C5.5295 16.5638 4.56863 16.5639 3.8144 16.4571C3.03176 16.3463 2.38957 16.111 1.88459 15.5794C1.38348 15.0519 1.16512 14.3879 1.0617 13.5782C0.961041 12.7901 0.96105 11.7837 0.96106 10.5152V10.5152V6.48747V6.48746V6.48746C0.96105 5.21897 0.961041 4.21253 1.0617 3.42444C1.16512 2.6147 1.38348 1.95071 1.88459 1.42321C2.38957 0.891656 3.03176 0.656299 3.8144 0.545538L3.85893 0.539392C4.05706 0.512726 4.15612 0.499393 4.23064 0.557247ZM8.46252 7.75C8.46252 7.43934 8.71436 7.1875 9.02502 7.1875H11.65C11.9607 7.1875 12.2125 7.43934 12.2125 7.75C12.2125 8.06066 11.9607 8.3125 11.65 8.3125H9.02502C8.71436 8.3125 8.46252 8.06066 8.46252 7.75ZM7.33781 7.53038C7.63065 7.42667 7.78397 7.1052 7.68025 6.81236C7.57654 6.51953 7.25507 6.36621 6.96224 6.46993C6.60064 6.59799 6.26496 6.83788 5.98089 7.08701C5.69098 7.34125 5.42222 7.63431 5.19603 7.90545C5.08642 8.03684 4.98518 8.16506 4.89466 8.28394C4.82851 8.22201 4.7622 8.16973 4.69642 8.12587C4.57722 8.04641 4.46543 7.99856 4.36901 7.97101L4.35214 7.96606C4.30565 7.95222 4.24234 7.93337 4.15002 7.93765C3.83936 7.93765 3.58752 8.18949 3.58752 8.50015C3.58752 8.78119 3.79363 9.01409 4.06293 9.05595L4.06659 9.05818L4.07238 9.06193C4.11415 9.08978 4.24277 9.19344 4.39691 9.50171C4.48757 9.68304 4.6688 9.80155 4.87126 9.81192C5.07368 9.82228 5.26621 9.72264 5.37494 9.55159C5.4071 9.5033 5.50138 9.36192 5.56223 9.27571C5.68434 9.10273 5.85703 8.8693 6.0599 8.62611C6.26386 8.38162 6.49142 8.13562 6.72265 7.93283C6.95972 7.72493 7.16999 7.58982 7.33781 7.53038ZM8.46252 12.25C8.46252 11.9393 8.71436 11.6875 9.02502 11.6875H11.65C11.9607 11.6875 12.2125 11.9393 12.2125 12.25C12.2125 12.5607 11.9607 12.8125 11.65 12.8125H9.02502C8.71436 12.8125 8.46252 12.5607 8.46252 12.25ZM4.90002 11.5C4.48581 11.5 4.15002 11.8358 4.15002 12.25C4.15002 12.6642 4.48581 13 4.90002 13H5.65002C6.06424 13 6.40002 12.6642 6.40002 12.25C6.40002 11.8358 6.06424 11.5 5.65002 11.5H4.90002Z" fill="url(#paint1_linear_278_933)"/>
<defs>
<linearGradient id="paint0_linear_278_933" x1="7.90043" y1="0.4375" x2="7.90043" y2="2.6875" gradientUnits="userSpaceOnUse">
<stop stop-color="#ACB9C6"/>
<stop offset="1" stop-color="#F2F7F8"/>
</linearGradient>
<linearGradient id="paint1_linear_278_933" x1="7.89856" y1="0.516602" x2="7.89856" y2="16.5638" gradientUnits="userSpaceOnUse">
<stop stop-color="#ACB9C6"/>
<stop offset="1" stop-color="#F2F7F8"/>
</linearGradient>
</defs>
</svg>
