<svg width="25" height="25" viewBox="0 0 25 25" fill="none" xmlns="http://www.w3.org/2000/svg">
<g clip-path="url(#clip0_2153_2649)">
<path d="M0.355502 16.5648C0.576283 15.7785 1.39242 15.3199 2.17913 15.5409L2.77402 15.7079L3.98184 17.4216C4.93739 18.7773 6.50292 19.5681 8.13131 19.5681C8.19516 19.5681 8.25909 19.5664 8.32308 19.564C7.90683 19.6342 7.48317 19.6698 7.05544 19.6698C6.31997 19.6698 5.5726 19.5659 4.83131 19.3577L1.37949 18.3885C0.593158 18.1676 0.134673 17.3512 0.355502 16.5648Z" fill="url(#paint0_linear_2153_2649)"/>
<path d="M0.355502 16.5648C0.576283 15.7785 1.39242 15.3199 2.17913 15.5409L2.77402 15.7079L3.98184 17.4216C4.93739 18.7773 6.50292 19.5681 8.13131 19.5681C8.19516 19.5681 8.25909 19.5664 8.32308 19.564C7.90683 19.6342 7.48317 19.6698 7.05544 19.6698C6.31997 19.6698 5.5726 19.5659 4.83131 19.3577L1.37949 18.3885C0.593158 18.1676 0.134673 17.3512 0.355502 16.5648Z" fill="url(#paint1_linear_2153_2649)"/>
<path d="M6.58373 14.461C7.21406 13.9425 8.14608 14.0332 8.66531 14.6641L9.55922 15.7506C10.2237 15.4016 10.8179 14.9277 11.3332 14.3322L11.5028 14.137C10.6608 13.6224 9.84778 13.0631 9.06759 12.459C8.32223 11.8819 8.20458 10.8007 8.80336 10.0731C8.87236 9.98897 8.94797 9.91407 9.02813 9.84764C9.58613 9.38428 10.3959 9.32775 11.0223 9.74185C12.2645 10.5641 13.6678 11.1221 15.1427 11.3752C15.3924 11.4185 15.6468 11.435 15.8999 11.4317C16.7668 11.4218 18.972 11.41 19.691 11.5428C19.6975 11.5441 19.7935 11.5625 19.8343 11.5717C20.7137 11.763 21.4972 12.2612 22.0716 12.9546L22.7739 13.8007C22.986 14.0563 23.1022 14.378 23.1022 14.7102V20.4206C23.1022 21.0442 22.5967 21.5497 21.9731 21.5497C20.7195 21.5497 19.4794 21.2927 18.3291 20.7945C17.8322 20.5618 17.2755 20.4639 16.7136 20.5217C16.7136 20.5217 12.8541 20.9897 12.4433 20.9897C10.948 20.9897 9.4928 20.3258 8.52005 19.1434L6.38128 16.5426C5.86205 15.9123 5.95275 14.9803 6.58373 14.461Z" fill="url(#paint2_linear_2153_2649)"/>
<path d="M6.58373 14.461C7.21406 13.9425 8.14608 14.0332 8.66531 14.6641L9.55922 15.7506C10.2237 15.4016 10.8179 14.9277 11.3332 14.3322L11.5028 14.137C10.6608 13.6224 9.84778 13.0631 9.06759 12.459C8.32223 11.8819 8.20458 10.8007 8.80336 10.0731C8.87236 9.98897 8.94797 9.91407 9.02813 9.84764C9.58613 9.38428 10.3959 9.32775 11.0223 9.74185C12.2645 10.5641 13.6678 11.1221 15.1427 11.3752C15.3924 11.4185 15.6468 11.435 15.8999 11.4317C16.7668 11.4218 18.972 11.41 19.691 11.5428C19.6975 11.5441 19.7935 11.5625 19.8343 11.5717C20.7137 11.763 21.4972 12.2612 22.0716 12.9546L22.7739 13.8007C22.986 14.0563 23.1022 14.378 23.1022 14.7102V20.4206C23.1022 21.0442 22.5967 21.5497 21.9731 21.5497C20.7195 21.5497 19.4794 21.2927 18.3291 20.7945C17.8322 20.5618 17.2755 20.4639 16.7136 20.5217C16.7136 20.5217 12.8541 20.9897 12.4433 20.9897C10.948 20.9897 9.4928 20.3258 8.52005 19.1434L6.38128 16.5426C5.86205 15.9123 5.95275 14.9803 6.58373 14.461Z" fill="url(#paint3_linear_2153_2649)"/>
<path d="M22.0715 12.955C21.4971 12.2616 20.7136 11.7634 19.8342 11.5721C19.7935 11.5629 19.6975 11.5445 19.6909 11.5432C19.3777 11.4854 18.7826 11.455 18.1389 11.4399V20.7136C18.2032 20.7386 18.2666 20.7657 18.329 20.7949C19.4793 21.2931 20.7195 21.5501 21.973 21.5501C22.5966 21.5501 23.1021 21.0446 23.1021 20.421V14.7106C23.1021 14.3784 22.986 14.0567 22.7738 13.8011L22.0715 12.955Z" fill="url(#paint4_linear_2153_2649)"/>
<path d="M9.02792 9.84815C9.58615 9.3847 10.3962 9.32831 11.0224 9.74231C12.2645 10.5645 13.6677 11.1222 15.1424 11.3752C15.3924 11.4187 15.6465 11.4351 15.9001 11.4322C16.2642 11.4277 16.8652 11.4232 17.4927 11.4292V17.3339C17.155 17.1037 16.7241 17.0136 16.2968 17.1217L12.9499 17.969C12.1625 18.1684 11.3203 17.8919 10.8044 17.2646L9.55906 15.7507C10.2234 15.4017 10.818 14.9275 11.3332 14.3326L11.5028 14.1369C10.661 13.6226 9.84748 13.063 9.06743 12.459C8.32193 11.8822 8.20447 10.8006 8.80343 10.0731C8.87206 9.98943 8.94767 9.91443 9.02792 9.84815Z" fill="url(#paint5_linear_2153_2649)"/>
<path d="M9.06745 12.459C9.84764 13.0631 10.6607 13.6224 11.5027 14.1371L11.3331 14.3323C10.8178 14.9278 10.2236 15.4016 9.55908 15.7507L9.52697 15.7116C9.38212 15.8043 9.23367 15.8901 9.08147 15.9702L10.4016 17.5743C10.5143 17.7118 10.6418 17.8329 10.7804 17.9372C11.914 15.0941 14.1987 12.909 20.5551 13.5048C21.2731 13.5722 21.9816 13.5775 22.6691 13.6749L22.7739 13.8008C22.7749 13.8021 22.7759 13.8035 22.7769 13.8048C22.7758 13.8035 22.7749 13.802 22.7738 13.8007L22.0715 12.9546C21.497 12.2612 20.7135 11.763 19.8341 11.5717C19.7934 11.5625 19.6974 11.5441 19.6908 11.5428C18.9718 11.41 16.7666 11.4218 15.8997 11.4317C15.6466 11.435 15.3923 11.4185 15.1425 11.3752C13.6676 11.1221 12.2644 10.5641 11.0221 9.74184C10.3958 9.32775 9.58598 9.38428 9.02798 9.84769C8.94778 9.91406 8.87222 9.98901 8.80322 10.0731C8.20444 10.8007 8.32209 11.882 9.06745 12.459Z" fill="url(#paint6_linear_2153_2649)"/>
<path d="M12.2786 12.7336C12.2786 12.7081 12.2786 12.6825 12.2786 12.657C12.2842 10.3179 14.1824 8.41972 16.5215 8.4141C16.547 8.41405 16.5726 8.41405 16.5981 8.4141C18.9371 8.41972 20.8354 10.3179 20.841 12.657C20.841 12.6825 20.841 12.7081 20.841 12.7336C20.8354 15.0727 12.2842 15.0727 12.2786 12.7336Z" fill="url(#paint7_radial_2153_2649)"/>
<path opacity="0.25" d="M12.2786 12.7336C12.2786 12.7081 12.2786 12.6825 12.2786 12.657C12.2842 10.3179 14.1824 8.41972 16.5215 8.4141C16.547 8.41405 16.5726 8.41405 16.5981 8.4141C18.9371 8.41972 20.8354 10.3179 20.841 12.657C20.841 12.6825 20.841 12.7081 20.841 12.7336C20.8354 15.0727 12.2842 15.0727 12.2786 12.7336Z" fill="url(#paint8_radial_2153_2649)"/>
<path d="M12.2786 12.7336C12.2786 12.7081 12.2786 12.6825 12.2786 12.657C12.2842 10.3179 14.1824 8.41972 16.5215 8.4141C16.547 8.41405 16.5726 8.41405 16.5981 8.4141C18.9371 8.41972 20.8354 10.3179 20.841 12.657C20.841 12.6825 20.841 12.7081 20.841 12.7336C20.8354 15.0727 12.2842 15.0727 12.2786 12.7336Z" fill="url(#paint9_linear_2153_2649)"/>
<path d="M12.2786 12.7336C12.2786 12.7081 12.2786 12.6825 12.2786 12.657C12.2842 10.3179 14.1824 8.41972 16.5215 8.4141C16.547 8.41405 16.5726 8.41405 16.5981 8.4141C18.9371 8.41972 20.8354 10.3179 20.841 12.657C20.841 12.6825 20.841 12.7081 20.841 12.7336C20.8354 15.0727 12.2842 15.0727 12.2786 12.7336Z" fill="url(#paint10_linear_2153_2649)"/>
<path d="M16.5982 8.4141C16.5726 8.41405 16.5471 8.41405 16.5216 8.4141C15.9871 8.41536 15.4757 8.51577 15.0046 8.69736L20.0878 13.7805C20.5542 13.5094 20.8401 13.1605 20.8411 12.7336C20.8411 12.7081 20.8411 12.6825 20.8411 12.657C20.8354 10.3179 18.9372 8.41972 16.5982 8.4141Z" fill="url(#paint11_linear_2153_2649)"/>
<path d="M16.5873 9.10917C16.5689 9.10922 16.5505 9.10922 16.5321 9.10917C14.846 9.10509 13.4777 7.73681 13.4737 6.05072C13.4736 6.0323 13.4736 6.01387 13.4737 5.9955C13.4777 4.30941 14.846 2.94108 16.5321 2.93705C16.5505 2.937 16.5689 2.937 16.5873 2.93705C18.2734 2.94108 19.6418 4.30941 19.6458 5.9955C19.6458 6.01392 19.6458 6.03234 19.6458 6.05072C19.6418 7.73677 18.2734 9.10509 16.5873 9.10917Z" fill="url(#paint12_radial_2153_2649)"/>
<path opacity="0.25" d="M16.5873 9.10917C16.5689 9.10922 16.5505 9.10922 16.5321 9.10917C14.846 9.10509 13.4777 7.73681 13.4737 6.05072C13.4736 6.0323 13.4736 6.01387 13.4737 5.9955C13.4777 4.30941 14.846 2.94108 16.5321 2.93705C16.5505 2.937 16.5689 2.937 16.5873 2.93705C18.2734 2.94108 19.6418 4.30941 19.6458 5.9955C19.6458 6.01392 19.6458 6.03234 19.6458 6.05072C19.6418 7.73677 18.2734 9.10509 16.5873 9.10917Z" fill="url(#paint13_radial_2153_2649)"/>
<path d="M1.33744 12.7336C1.33739 12.7081 1.33739 12.6825 1.33744 12.657C1.34306 10.3179 3.24127 8.41972 5.58033 8.4141C5.60588 8.41405 5.63142 8.41405 5.65692 8.4141C7.99599 8.41972 9.89419 10.3179 9.89981 12.657C9.89986 12.6825 9.89986 12.7081 9.89981 12.7336C9.89419 15.0727 1.34306 15.0727 1.33744 12.7336Z" fill="url(#paint14_radial_2153_2649)"/>
<path d="M1.33744 12.7336C1.33739 12.7081 1.33739 12.6825 1.33744 12.657C1.34306 10.3179 3.24127 8.41972 5.58033 8.4141C5.60588 8.41405 5.63142 8.41405 5.65692 8.4141C7.99599 8.41972 9.89419 10.3179 9.89981 12.657C9.89986 12.6825 9.89986 12.7081 9.89981 12.7336C9.89419 15.0727 1.34306 15.0727 1.33744 12.7336Z" fill="url(#paint15_radial_2153_2649)"/>
<path d="M5.65699 8.4141C5.63145 8.41405 5.6059 8.41405 5.5804 8.4141C5.04593 8.41536 4.53457 8.51577 4.06348 8.69736L9.1466 13.7805C9.61301 13.5094 9.8989 13.1605 9.89993 12.7336C9.89998 12.7081 9.89998 12.6825 9.89993 12.657C9.89426 10.3179 7.99605 8.41972 5.65699 8.4141Z" fill="url(#paint16_linear_2153_2649)"/>
<path d="M5.64618 9.10917C5.62776 9.10922 5.60938 9.10922 5.59096 9.10917C3.90487 9.10509 2.53654 7.73681 2.53251 6.05072C2.53246 6.0323 2.53246 6.01392 2.53251 5.9955C2.53654 4.30941 3.90487 2.94108 5.59096 2.93705C5.60938 2.937 5.62776 2.937 5.64618 2.93705C7.33227 2.94108 8.7006 4.30941 8.70463 5.9955C8.70468 6.01392 8.70468 6.0323 8.70463 6.05072C8.7006 7.73677 7.33227 9.10509 5.64618 9.10917Z" fill="url(#paint17_radial_2153_2649)"/>
<path d="M5.64618 9.10917C5.62776 9.10922 5.60938 9.10922 5.59096 9.10917C3.90487 9.10509 2.53654 7.73681 2.53251 6.05072C2.53246 6.0323 2.53246 6.01392 2.53251 5.9955C2.53654 4.30941 3.90487 2.94108 5.59096 2.93705C5.60938 2.937 5.62776 2.937 5.64618 2.93705C7.33227 2.94108 8.7006 4.30941 8.70463 5.9955C8.70468 6.01392 8.70468 6.0323 8.70463 6.05072C8.7006 7.73677 7.33227 9.10509 5.64618 9.10917Z" fill="url(#paint18_radial_2153_2649)"/>
<path d="M6.80814 15.2453C6.80809 15.2198 6.80809 15.1943 6.80814 15.1687C6.81377 12.8296 8.71197 10.9314 11.051 10.9258C11.0766 10.9258 11.1021 10.9258 11.1276 10.9258C13.4667 10.9314 15.3649 12.8296 15.3705 15.1687C15.3706 15.1943 15.3706 15.2198 15.3705 15.2453C15.3649 17.5844 6.81377 17.5844 6.80814 15.2453Z" fill="url(#paint19_radial_2153_2649)"/>
<path opacity="0.25" d="M6.80814 15.2453C6.80809 15.2198 6.80809 15.1943 6.80814 15.1687C6.81377 12.8296 8.71197 10.9314 11.051 10.9258C11.0766 10.9258 11.1021 10.9258 11.1276 10.9258C13.4667 10.9314 15.3649 12.8296 15.3705 15.1687C15.3706 15.1943 15.3706 15.2198 15.3705 15.2453C15.3649 17.5844 6.81377 17.5844 6.80814 15.2453Z" fill="url(#paint20_radial_2153_2649)"/>
<path d="M11.1277 10.9258C11.1021 10.9258 11.0766 10.9258 11.0511 10.9258C10.5166 10.9271 10.0053 11.0275 9.53418 11.2091L14.6173 16.2922C15.0837 16.0211 15.3696 15.6722 15.3706 15.2453C15.3706 15.2198 15.3706 15.1942 15.3706 15.1687C15.365 12.8296 13.4668 10.9314 11.1277 10.9258Z" fill="url(#paint21_linear_2153_2649)"/>
<path d="M11.1169 11.6209C11.0985 11.6209 11.0801 11.6209 11.0617 11.6209C9.37557 11.6169 8.00724 10.2485 8.00321 8.56244C8.00316 8.54402 8.00316 8.52564 8.00321 8.50722C8.00724 6.82112 9.37557 5.4528 11.0617 5.44877C11.0801 5.44872 11.0985 5.44872 11.1169 5.44877C12.803 5.4528 14.1713 6.82112 14.1753 8.50722C14.1754 8.52564 14.1754 8.54406 14.1753 8.56244C14.1713 10.2485 12.803 11.6169 11.1169 11.6209Z" fill="url(#paint22_radial_2153_2649)"/>
<path opacity="0.25" d="M11.1169 11.6209C11.0985 11.6209 11.0801 11.6209 11.0617 11.6209C9.37557 11.6169 8.00724 10.2485 8.00321 8.56244C8.00316 8.54402 8.00316 8.52564 8.00321 8.50722C8.00724 6.82112 9.37557 5.4528 11.0617 5.44877C11.0801 5.44872 11.0985 5.44872 11.1169 5.44877C12.803 5.4528 14.1713 6.82112 14.1753 8.50722C14.1754 8.52564 14.1754 8.54406 14.1753 8.56244C14.1713 10.2485 12.803 11.6169 11.1169 11.6209Z" fill="url(#paint23_radial_2153_2649)"/>
<path d="M6.38068 16.5433L8.52029 19.1436C9.4929 20.326 10.9475 20.9901 12.4429 20.9901C12.854 20.9901 13.2676 20.94 13.6758 20.8364L14.2551 20.6896L11.2024 17.6369C11.0556 17.5322 10.9217 17.4078 10.8042 17.265L8.66509 14.6641C8.14632 14.0337 7.2144 13.943 6.58351 14.4617C5.95262 14.9805 5.86187 15.9124 6.38068 16.5433Z" fill="url(#paint24_linear_2153_2649)"/>
<path d="M8.01056 20.2418C8.29842 20.2389 8.58769 20.2113 8.87592 20.1578C9.67899 20.0087 10.2091 19.2369 10.06 18.4338C9.91092 17.6308 9.13885 17.1006 8.33606 17.2498C7.53703 17.3981 6.71485 17.0679 6.24028 16.4088L4.27289 13.676C3.79561 13.0131 2.87147 12.8626 2.20866 13.3398C1.54585 13.817 1.39533 14.7412 1.87252 15.404L3.83991 18.1368C4.80891 19.4829 6.38222 20.2581 8.01056 20.2418Z" fill="url(#paint25_linear_2153_2649)"/>
<path d="M8.01056 20.2418C8.29842 20.2389 8.58769 20.2113 8.87592 20.1578C9.67899 20.0087 10.2091 19.2369 10.06 18.4338C9.91092 17.6308 9.13885 17.1006 8.33606 17.2498C7.53703 17.3981 6.71485 17.0679 6.24028 16.4088L4.27289 13.676C3.79561 13.0131 2.87147 12.8626 2.20866 13.3398C1.54585 13.817 1.39533 14.7412 1.87252 15.404L3.83991 18.1368C4.80891 19.4829 6.38222 20.2581 8.01056 20.2418Z" fill="url(#paint26_linear_2153_2649)"/>
<path d="M4.03034 15.7242L5.88921 18.5318C6.94662 20.1293 8.83971 20.9973 10.7358 20.7632C10.7715 20.7587 10.8067 20.7538 10.8419 20.7488L13.5702 20.352C14.2423 20.2548 14.7427 19.7187 14.8241 19.0764H10.892V17.7527L10.4164 17.8216C9.61441 17.9382 8.80352 17.5766 8.35517 16.8991L6.49681 14.0915C6.04596 13.4105 5.12843 13.2235 4.44696 13.6748C3.76601 14.1256 3.57949 15.0432 4.03034 15.7242Z" fill="url(#paint27_linear_2153_2649)"/>
<path d="M4.03034 15.7242L5.88921 18.5318C6.94662 20.1293 8.83971 20.9973 10.7358 20.7632C10.7715 20.7587 10.8067 20.7538 10.8419 20.7488L13.5702 20.352C14.2423 20.2548 14.7427 19.7187 14.8241 19.0764H10.892V17.7527L10.4164 17.8216C9.61441 17.9382 8.80352 17.5766 8.35517 16.8991L6.49681 14.0915C6.04596 13.4105 5.12843 13.2235 4.44696 13.6748C3.76601 14.1256 3.57949 15.0432 4.03034 15.7242Z" fill="url(#paint28_linear_2153_2649)"/>
<path d="M12.4431 20.9895C12.8541 20.9895 13.268 20.9394 13.6759 20.8361L17.0228 19.9888C17.8145 19.7884 18.2939 18.984 18.0934 18.1922C17.8929 17.4004 17.0885 16.9212 16.2968 17.1216L12.95 17.9689C12.1625 18.1682 11.3204 17.8917 10.8044 17.2644L8.66517 14.6639C8.14627 14.0331 7.21425 13.9425 6.5836 14.4613C5.95285 14.9801 5.86214 15.9121 6.38095 16.5429L8.52014 19.1434C9.4928 20.3258 10.9478 20.9895 12.4431 20.9895Z" fill="url(#paint29_linear_2153_2649)"/>
<path d="M12.4431 20.9895C12.8541 20.9895 13.268 20.9394 13.6759 20.8361L17.0228 19.9888C17.8145 19.7884 18.2939 18.984 18.0934 18.1922C17.8929 17.4004 17.0885 16.9212 16.2968 17.1216L12.95 17.9689C12.1625 18.1682 11.3204 17.8917 10.8044 17.2644L8.66517 14.6639C8.14627 14.0331 7.21425 13.9425 6.5836 14.4613C5.95285 14.9801 5.86214 15.9121 6.38095 16.5429L8.52014 19.1434C9.4928 20.3258 10.9478 20.9895 12.4431 20.9895Z" fill="url(#paint30_linear_2153_2649)"/>
<path d="M6.65869 16.8799L8.52005 19.1433C9.4928 20.3258 10.948 20.9896 12.4433 20.9896C12.8541 20.9896 16.7136 20.5216 16.7136 20.5216C17.2755 20.4638 17.8322 20.5617 18.3291 20.7944C19.4794 21.2926 20.7196 21.5496 21.9731 21.5496C22.5967 21.5496 23.1022 21.0441 23.1022 20.4205V16.8799H6.65869Z" fill="url(#paint31_linear_2153_2649)"/>
<path d="M23.893 22.0627H22.1385C21.9135 22.0627 21.7312 21.8804 21.7312 21.6555V12.6807C21.7312 12.4558 21.9135 12.2734 22.1385 12.2734H23.893C24.1179 12.2734 24.3002 12.4558 24.3002 12.6807V21.6555C24.3002 21.8804 24.1179 22.0627 23.893 22.0627Z" fill="url(#paint32_linear_2153_2649)"/>
<path d="M24.3001 12.6806L24.2999 21.6555C24.2999 21.8803 24.1175 22.0627 23.8926 22.0627H22.678L22.6777 12.2734H23.8928C24.1178 12.2734 24.3001 12.4557 24.3001 12.6806Z" fill="url(#paint33_linear_2153_2649)"/>
<path d="M24.3001 18.1914L24.2999 21.6555C24.2999 21.8803 24.1176 22.0627 23.8926 22.0627H22.1384C21.9133 22.063 21.731 21.8806 21.7312 21.6555L21.731 18.1914H24.3001Z" fill="url(#paint34_linear_2153_2649)"/>
</g>
<defs>
<linearGradient id="paint0_linear_2153_2649" x1="4.72481" y1="16.8343" x2="3.97514" y2="19.224" gradientUnits="userSpaceOnUse">
<stop stop-color="#FFDFCF"/>
<stop offset="1" stop-color="#FFA78F"/>
</linearGradient>
<linearGradient id="paint1_linear_2153_2649" x1="2.13797" y1="18.8415" x2="4.05905" y2="17.92" gradientUnits="userSpaceOnUse">
<stop stop-color="#F89580" stop-opacity="0"/>
<stop offset="0.2859" stop-color="#EE8E79" stop-opacity="0.287"/>
<stop offset="0.7624" stop-color="#D57B65" stop-opacity="0.765"/>
<stop offset="0.9972" stop-color="#C5715A"/>
</linearGradient>
<linearGradient id="paint2_linear_2153_2649" x1="16.3251" y1="13.6067" x2="12.542" y2="23.0468" gradientUnits="userSpaceOnUse">
<stop stop-color="#FFDFCF"/>
<stop offset="1" stop-color="#FFA78F"/>
</linearGradient>
<linearGradient id="paint3_linear_2153_2649" x1="15.2362" y1="17.3258" x2="14.1001" y2="13.6167" gradientUnits="userSpaceOnUse">
<stop stop-color="#F89580" stop-opacity="0"/>
<stop offset="0.2859" stop-color="#EE8E79" stop-opacity="0.287"/>
<stop offset="0.7624" stop-color="#D57B65" stop-opacity="0.765"/>
<stop offset="0.9972" stop-color="#C5715A"/>
</linearGradient>
<linearGradient id="paint4_linear_2153_2649" x1="20.4297" y1="16.495" x2="22.2539" y2="16.495" gradientUnits="userSpaceOnUse">
<stop stop-color="#F89580" stop-opacity="0"/>
<stop offset="0.2859" stop-color="#EE8E79" stop-opacity="0.287"/>
<stop offset="0.7624" stop-color="#D57B65" stop-opacity="0.765"/>
<stop offset="0.9972" stop-color="#C5715A"/>
</linearGradient>
<linearGradient id="paint5_linear_2153_2649" x1="11.9738" y1="14.3247" x2="9.6455" y2="15.6766" gradientUnits="userSpaceOnUse">
<stop stop-color="#F89580" stop-opacity="0"/>
<stop offset="0.2859" stop-color="#EE8E79" stop-opacity="0.287"/>
<stop offset="0.7624" stop-color="#D57B65" stop-opacity="0.765"/>
<stop offset="0.9972" stop-color="#C5715A"/>
</linearGradient>
<linearGradient id="paint6_linear_2153_2649" x1="15.6041" y1="13.0727" x2="15.6417" y2="17.504" gradientUnits="userSpaceOnUse">
<stop stop-color="#F89580" stop-opacity="0"/>
<stop offset="0.2859" stop-color="#EE8E79" stop-opacity="0.287"/>
<stop offset="0.7624" stop-color="#D57B65" stop-opacity="0.765"/>
<stop offset="0.9972" stop-color="#C5715A"/>
</linearGradient>
<radialGradient id="paint7_radial_2153_2649" cx="0" cy="0" r="1" gradientUnits="userSpaceOnUse" gradientTransform="translate(15.5248 9.78027) scale(4.32047)">
<stop stop-color="#FBC9CF"/>
<stop offset="1" stop-color="#F28CC4"/>
</radialGradient>
<radialGradient id="paint8_radial_2153_2649" cx="0" cy="0" r="1" gradientUnits="userSpaceOnUse" gradientTransform="translate(13.8093 9.35075) scale(8.29238)">
<stop stop-color="#AF66DA" stop-opacity="0"/>
<stop offset="0.766" stop-color="#814AA0"/>
<stop offset="0.8291" stop-color="#844BA4" stop-opacity="0.73"/>
<stop offset="0.8889" stop-color="#8D51AF" stop-opacity="0.475"/>
<stop offset="0.9472" stop-color="#9C5AC2" stop-opacity="0.226"/>
<stop offset="1" stop-color="#AF66DA" stop-opacity="0"/>
</radialGradient>
<linearGradient id="paint9_linear_2153_2649" x1="15.5948" y1="12.6225" x2="14.2932" y2="13.6066" gradientUnits="userSpaceOnUse">
<stop stop-color="#AF66DA" stop-opacity="0"/>
<stop offset="0.237" stop-color="#AA63D4" stop-opacity="0.237"/>
<stop offset="0.5732" stop-color="#9B5AC1" stop-opacity="0.573"/>
<stop offset="0.967" stop-color="#834BA3" stop-opacity="0.967"/>
<stop offset="1" stop-color="#814AA0"/>
</linearGradient>
<linearGradient id="paint10_linear_2153_2649" x1="14.3556" y1="10.8262" x2="12.8636" y2="10.2866" gradientUnits="userSpaceOnUse">
<stop stop-color="#AF66DA" stop-opacity="0"/>
<stop offset="0.237" stop-color="#AA63D4" stop-opacity="0.237"/>
<stop offset="0.5732" stop-color="#9B5AC1" stop-opacity="0.573"/>
<stop offset="0.967" stop-color="#834BA3" stop-opacity="0.967"/>
<stop offset="1" stop-color="#814AA0"/>
</linearGradient>
<linearGradient id="paint11_linear_2153_2649" x1="17.955" y1="10.8666" x2="17.6799" y2="8.30577" gradientUnits="userSpaceOnUse">
<stop stop-color="#AF66DA" stop-opacity="0"/>
<stop offset="0.237" stop-color="#AA63D4" stop-opacity="0.237"/>
<stop offset="0.5732" stop-color="#9B5AC1" stop-opacity="0.573"/>
<stop offset="0.967" stop-color="#834BA3" stop-opacity="0.967"/>
<stop offset="1" stop-color="#814AA0"/>
</linearGradient>
<radialGradient id="paint12_radial_2153_2649" cx="0" cy="0" r="1" gradientUnits="userSpaceOnUse" gradientTransform="translate(16.0559 5.23659) scale(3.29587)">
<stop stop-color="#FBC9CF"/>
<stop offset="1" stop-color="#F28CC4"/>
</radialGradient>
<radialGradient id="paint13_radial_2153_2649" cx="0" cy="0" r="1" gradientUnits="userSpaceOnUse" gradientTransform="translate(15.4937 5.24855) scale(4.4662)">
<stop stop-color="#AF66DA" stop-opacity="0"/>
<stop offset="0.766" stop-color="#814AA0"/>
<stop offset="0.8291" stop-color="#844BA4" stop-opacity="0.73"/>
<stop offset="0.8889" stop-color="#8D51AF" stop-opacity="0.475"/>
<stop offset="0.9472" stop-color="#9C5AC2" stop-opacity="0.226"/>
<stop offset="1" stop-color="#AF66DA" stop-opacity="0"/>
</radialGradient>
<radialGradient id="paint14_radial_2153_2649" cx="0" cy="0" r="1" gradientUnits="userSpaceOnUse" gradientTransform="translate(4.58367 9.78027) scale(4.32047)">
<stop stop-color="#FEF0AE"/>
<stop offset="0.1187" stop-color="#FEEFA8"/>
<stop offset="0.2777" stop-color="#FDEB97"/>
<stop offset="0.4598" stop-color="#FDE47B"/>
<stop offset="0.659" stop-color="#FCDB54"/>
<stop offset="0.8695" stop-color="#FBCF22"/>
<stop offset="1" stop-color="#FAC600"/>
</radialGradient>
<radialGradient id="paint15_radial_2153_2649" cx="0" cy="0" r="1" gradientUnits="userSpaceOnUse" gradientTransform="translate(2.86819 9.35075) scale(8.29238)">
<stop stop-color="#FE9738" stop-opacity="0"/>
<stop offset="0.7195" stop-color="#FE9738" stop-opacity="0.855"/>
<stop offset="0.8412" stop-color="#FE9738"/>
<stop offset="1" stop-color="#FE9738" stop-opacity="0.012"/>
</radialGradient>
<linearGradient id="paint16_linear_2153_2649" x1="7.05101" y1="10.7554" x2="6.52545" y2="8.40777" gradientUnits="userSpaceOnUse">
<stop stop-color="#FE9738" stop-opacity="0"/>
<stop offset="1" stop-color="#FE9738"/>
</linearGradient>
<radialGradient id="paint17_radial_2153_2649" cx="0" cy="0" r="1" gradientUnits="userSpaceOnUse" gradientTransform="translate(5.11471 5.23659) scale(3.29587)">
<stop stop-color="#FEF0AE"/>
<stop offset="0.1187" stop-color="#FEEFA8"/>
<stop offset="0.2777" stop-color="#FDEB97"/>
<stop offset="0.4598" stop-color="#FDE47B"/>
<stop offset="0.659" stop-color="#FCDB54"/>
<stop offset="0.8695" stop-color="#FBCF22"/>
<stop offset="1" stop-color="#FAC600"/>
</radialGradient>
<radialGradient id="paint18_radial_2153_2649" cx="0" cy="0" r="1" gradientUnits="userSpaceOnUse" gradientTransform="translate(4.55254 5.24855) scale(4.4662)">
<stop stop-color="#FE9738" stop-opacity="0"/>
<stop offset="0.7195" stop-color="#FE9738" stop-opacity="0.855"/>
<stop offset="0.8412" stop-color="#FE9738"/>
<stop offset="1" stop-color="#FE9738" stop-opacity="0.012"/>
</radialGradient>
<radialGradient id="paint19_radial_2153_2649" cx="0" cy="0" r="1" gradientUnits="userSpaceOnUse" gradientTransform="translate(10.0522 12.2894) scale(4.31973 4.31973)">
<stop stop-color="#B3DAFE"/>
<stop offset="1" stop-color="#0182FC"/>
</radialGradient>
<radialGradient id="paint20_radial_2153_2649" cx="0" cy="0" r="1" gradientUnits="userSpaceOnUse" gradientTransform="translate(8.33704 11.86) scale(8.29093 8.29093)">
<stop stop-color="#0182FC" stop-opacity="0"/>
<stop offset="0.766" stop-color="#024C67"/>
<stop offset="0.8064" stop-color="#024D6B" stop-opacity="0.827"/>
<stop offset="0.8447" stop-color="#025176" stop-opacity="0.663"/>
<stop offset="0.8822" stop-color="#025889" stop-opacity="0.503"/>
<stop offset="0.9192" stop-color="#0262A4" stop-opacity="0.345"/>
<stop offset="0.9558" stop-color="#016FC7" stop-opacity="0.189"/>
<stop offset="0.9916" stop-color="#017EF1" stop-opacity="0.036"/>
<stop offset="1" stop-color="#0182FC" stop-opacity="0"/>
</radialGradient>
<linearGradient id="paint21_linear_2153_2649" x1="12.4595" y1="13.0197" x2="12.0151" y2="10.7763" gradientUnits="userSpaceOnUse">
<stop stop-color="#0182FC" stop-opacity="0"/>
<stop offset="0.127" stop-color="#0180F5" stop-opacity="0.127"/>
<stop offset="0.3107" stop-color="#0179E2" stop-opacity="0.311"/>
<stop offset="0.5288" stop-color="#016DC2" stop-opacity="0.529"/>
<stop offset="0.7712" stop-color="#025D97" stop-opacity="0.771"/>
<stop offset="1" stop-color="#024C67"/>
</linearGradient>
<radialGradient id="paint22_radial_2153_2649" cx="0" cy="0" r="1" gradientUnits="userSpaceOnUse" gradientTransform="translate(10.5832 7.7466) scale(3.29531)">
<stop stop-color="#B3DAFE"/>
<stop offset="1" stop-color="#0182FC"/>
</radialGradient>
<radialGradient id="paint23_radial_2153_2649" cx="0" cy="0" r="1" gradientUnits="userSpaceOnUse" gradientTransform="translate(10.0211 7.75856) scale(4.46545)">
<stop stop-color="#0182FC" stop-opacity="0"/>
<stop offset="0.766" stop-color="#024C67"/>
<stop offset="0.8064" stop-color="#024D6B" stop-opacity="0.827"/>
<stop offset="0.8447" stop-color="#025176" stop-opacity="0.663"/>
<stop offset="0.8822" stop-color="#025889" stop-opacity="0.503"/>
<stop offset="0.9192" stop-color="#0262A4" stop-opacity="0.345"/>
<stop offset="0.9558" stop-color="#016FC7" stop-opacity="0.189"/>
<stop offset="0.9916" stop-color="#017EF1" stop-opacity="0.036"/>
<stop offset="1" stop-color="#0182FC" stop-opacity="0"/>
</radialGradient>
<linearGradient id="paint24_linear_2153_2649" x1="9.39746" y1="18.577" x2="8.5629" y2="19.3984" gradientUnits="userSpaceOnUse">
<stop stop-color="#F89580" stop-opacity="0"/>
<stop offset="0.2859" stop-color="#EE8E79" stop-opacity="0.287"/>
<stop offset="0.7624" stop-color="#D57B65" stop-opacity="0.765"/>
<stop offset="0.9972" stop-color="#C5715A"/>
</linearGradient>
<linearGradient id="paint25_linear_2153_2649" x1="6.20447" y1="16.2888" x2="4.18917" y2="18.1273" gradientUnits="userSpaceOnUse">
<stop stop-color="#FFDFCF"/>
<stop offset="1" stop-color="#FFA78F"/>
</linearGradient>
<linearGradient id="paint26_linear_2153_2649" x1="5.22052" y1="17.1551" x2="3.68846" y2="18.4751" gradientUnits="userSpaceOnUse">
<stop stop-color="#F89580" stop-opacity="0"/>
<stop offset="0.2859" stop-color="#EE8E79" stop-opacity="0.287"/>
<stop offset="0.7624" stop-color="#D57B65" stop-opacity="0.765"/>
<stop offset="0.9972" stop-color="#C5715A"/>
</linearGradient>
<linearGradient id="paint27_linear_2153_2649" x1="9.02004" y1="17.1884" x2="6.85962" y2="19.3488" gradientUnits="userSpaceOnUse">
<stop stop-color="#FFDFCF"/>
<stop offset="1" stop-color="#FFA78F"/>
</linearGradient>
<linearGradient id="paint28_linear_2153_2649" x1="7.90221" y1="18.0718" x2="6.48799" y2="19.2503" gradientUnits="userSpaceOnUse">
<stop stop-color="#F89580" stop-opacity="0"/>
<stop offset="0.2859" stop-color="#EE8E79" stop-opacity="0.287"/>
<stop offset="0.7624" stop-color="#D57B65" stop-opacity="0.765"/>
<stop offset="0.9972" stop-color="#C5715A"/>
</linearGradient>
<linearGradient id="paint29_linear_2153_2649" x1="13.8763" y1="12.6254" x2="10.0932" y2="22.0654" gradientUnits="userSpaceOnUse">
<stop stop-color="#FFDFCF"/>
<stop offset="1" stop-color="#FFA78F"/>
</linearGradient>
<linearGradient id="paint30_linear_2153_2649" x1="10.9833" y1="18.17" x2="9.01538" y2="20.1067" gradientUnits="userSpaceOnUse">
<stop stop-color="#F89580" stop-opacity="0"/>
<stop offset="0.2859" stop-color="#EE8E79" stop-opacity="0.287"/>
<stop offset="0.7624" stop-color="#D57B65" stop-opacity="0.765"/>
<stop offset="0.9972" stop-color="#C5715A"/>
</linearGradient>
<linearGradient id="paint31_linear_2153_2649" x1="14.8514" y1="19.3324" x2="14.7387" y2="21.9236" gradientUnits="userSpaceOnUse">
<stop stop-color="#F89580" stop-opacity="0"/>
<stop offset="0.2859" stop-color="#EE8E79" stop-opacity="0.287"/>
<stop offset="0.7624" stop-color="#D57B65" stop-opacity="0.765"/>
<stop offset="0.9972" stop-color="#C5715A"/>
</linearGradient>
<linearGradient id="paint32_linear_2153_2649" x1="21.9373" y1="17.1672" x2="24.1775" y2="17.1672" gradientUnits="userSpaceOnUse">
<stop stop-color="#EAEAFF"/>
<stop offset="1" stop-color="#C8C9F9"/>
</linearGradient>
<linearGradient id="paint33_linear_2153_2649" x1="23.2493" y1="17.1672" x2="24.3639" y2="17.1672" gradientUnits="userSpaceOnUse">
<stop stop-color="#6366F1" stop-opacity="0"/>
<stop offset="1" stop-color="#6366F1"/>
</linearGradient>
<linearGradient id="paint34_linear_2153_2649" x1="23.0109" y1="20.9704" x2="23.0109" y2="22.385" gradientUnits="userSpaceOnUse">
<stop stop-color="#6366F1" stop-opacity="0"/>
<stop offset="1" stop-color="#6366F1"/>
</linearGradient>
<clipPath id="clip0_2153_2649">
<rect width="24" height="24" fill="white" transform="translate(0.300049 0.5)"/>
</clipPath>
</defs>
</svg>
