<svg width="36" height="30" viewBox="0 0 36 30" fill="none" xmlns="http://www.w3.org/2000/svg">
<path fill-rule="evenodd" clip-rule="evenodd" d="M6.75 0.75H29.25C32.696 0.75 35.5 3.55396 35.5 7V19.5C35.5 22.946 32.696 25.75 29.25 25.75H6.75C3.30396 25.75 0.5 22.946 0.5 19.5V7C0.5 3.55396 3.30396 0.75 6.75 0.75ZM31.75 29.5C32.4409 29.5 33 28.9409 33 28.25C33 27.5591 32.4409 27 31.75 27H4.25C3.55908 27 3 27.5591 3 28.25C3 28.9409 3.55908 29.5 4.25 29.5H31.75ZM16.2812 7.2735C15.9065 6.97321 15.3889 6.91461 14.958 7.12335C14.5259 7.33209 14.25 7.76911 14.25 8.25006V18.2501C14.25 18.731 14.5259 19.168 14.958 19.3768C15.1313 19.4598 15.3157 19.5001 15.5 19.5001C15.7783 19.5001 16.0554 19.4073 16.2812 19.2266L22.5312 14.2266C22.8279 13.9886 23 13.6297 23 13.2501C23 12.8704 22.8279 12.5115 22.5312 12.2735L16.2812 7.2735Z" fill="url(#paint0_linear_2075_2718)"/>
<defs>
<linearGradient id="paint0_linear_2075_2718" x1="18.5381" y1="27.1322" x2="18.5381" y2="3.12569" gradientUnits="userSpaceOnUse">
<stop stop-color="#4775EB"/>
<stop offset="1" stop-color="#23ECEC"/>
</linearGradient>
</defs>
</svg>
