
<svg width="65" height="65" viewBox="0 0 65 65" fill="none" xmlns="http://www.w3.org/2000/svg">
<path d="M60.027 46.5901C59.0817 50.2007 56.8261 53.2147 53.6758 55.0768L47.2572 58.8668C45.0877 60.1489 42.7581 60.7899 40.4291 60.79C38.0996 60.7902 35.7708 60.149 33.6008 58.8666L19.0065 50.2447C17.6282 49.4316 17.1535 47.6216 17.9489 46.21C18.8143 44.6771 20.1731 43.5705 21.7753 43.0937C23.4088 42.6077 25.1347 42.8286 26.6351 43.7158L30.5094 46.0039L19.0589 25.711C17.868 23.597 18.5777 20.8876 20.6408 19.6709C21.6375 19.0831 22.8015 18.9277 23.9187 19.2336C25.0369 19.5397 25.9691 20.2699 26.5436 21.2897L31.2037 29.5505C31.554 28.5888 32.2116 27.7902 33.0871 27.2738C34.0819 26.686 35.2453 26.5306 36.3622 26.8365C36.8921 26.9815 37.3802 27.2219 37.8082 27.5432C37.814 27.5192 37.8201 27.4952 37.8265 27.4711C38.1266 26.3275 38.8408 25.374 39.8375 24.7861C40.8323 24.1983 41.9956 24.0428 43.1126 24.3488C43.8383 24.5476 44.4857 24.925 45.0077 25.4444C45.3281 24.5092 45.9556 23.7319 46.7993 23.2343C47.7317 22.6822 48.8223 22.5359 49.8691 22.8227C50.916 23.1095 51.7892 23.7939 52.3279 24.7498L58.6712 35.9923C60.4909 39.215 60.9723 42.9787 60.0269 46.5899L60.027 46.5901ZM17.303 29.9738C16.6051 29.3532 16.0153 28.6201 15.5493 27.7939C14.4299 25.8113 14.1328 23.5012 14.7124 21.289C15.2921 19.077 16.6789 17.2286 18.6178 16.0838C20.5556 14.9383 22.8129 14.6336 24.974 15.2259C27.1347 15.8182 28.9406 17.2364 30.0588 19.2192C30.5286 20.0522 30.8547 20.9412 31.028 21.8614C31.2049 22.8011 32.0924 23.4161 33.011 23.235C33.9293 23.0539 34.5303 22.1455 34.3533 21.206C34.1086 19.9062 33.6506 18.6551 32.9921 17.4875C31.4216 14.7026 28.8852 12.7108 25.8504 11.8789C22.8152 11.0469 19.6451 11.4748 16.9244 13.083C14.2027 14.6899 12.2553 17.2855 11.4414 20.3915C10.6273 23.4982 11.0447 26.7426 12.6164 29.5265C13.2701 30.6855 14.0995 31.7159 15.0814 32.589C15.4019 32.8742 15.7975 33.0139 16.1914 33.0139C16.6646 33.0139 17.1353 32.812 17.4701 32.4178C18.0835 31.6956 18.0086 30.6014 17.3028 29.9737L17.303 29.9738ZM13.0937 35.0892C11.8131 33.9634 10.7364 32.6333 9.8927 31.1344C7.90086 27.6051 7.37168 23.4939 8.40249 19.5578C9.43318 15.6218 11.9003 12.3327 15.3499 10.2959C22.4698 6.08923 31.6075 8.59395 35.7183 15.8777C36.5663 17.3845 37.154 19.0044 37.4648 20.6922C37.6379 21.6326 38.5232 22.2513 39.4423 22.0741C40.3613 21.897 40.966 20.9911 40.7928 20.0507C40.4114 17.9793 39.6914 15.9935 38.652 14.1467C33.6064 5.20665 22.3932 2.13298 13.6567 7.29503C9.42393 9.79422 6.3962 13.8308 5.13123 18.661C3.86637 23.4912 4.51579 28.5365 6.95902 32.8655C7.99344 34.7032 9.31486 36.3357 10.8869 37.7176C11.2064 37.9986 11.599 38.136 11.9895 38.136C12.4661 38.136 12.9399 37.9313 13.2746 37.5325C13.8841 36.8067 13.803 35.713 13.0937 35.0894V35.0892Z" fill="url(#paint0_linear_139_13905)"/>
<defs>
<linearGradient id="paint0_linear_139_13905" x1="32.5" y1="4.79008" x2="32.5" y2="60.79" gradientUnits="userSpaceOnUse">
<stop stop-color="#FB80C2"/>
<stop offset="1" stop-color="#FCBA57"/>
</linearGradient>
</defs>
</svg>
