<svg width="36" height="29" viewBox="0 0 36 29" fill="none" xmlns="http://www.w3.org/2000/svg">
<path d="M35.5 14.9187C35.5 22.6505 34.5224 28.9185 18 28.9185C3.057 28.9185 0.82898 23.7916 0.539563 17.0916C0.508936 16.3834 0.5 15.6578 0.5 14.9187C0.5 8.80118 1.11207 3.60011 9.55115 1.69498C11.7781 1.1922 14.5503 0.918945 18 0.918945C21.671 0.918945 24.5747 1.22837 26.8706 1.79457C34.9086 3.7764 35.5 8.90465 35.5 14.9187Z" fill="#CBE8EA"/>
<path d="M18.0002 24.3536C25.7436 24.3536 32.0208 20.5799 32.0208 15.9248C32.0208 11.2698 25.7436 7.49609 18.0002 7.49609C10.2568 7.49609 3.97949 11.2698 3.97949 15.9248C3.97949 20.5799 10.2568 24.3536 18.0002 24.3536Z" fill="#123A39"/>
<path d="M13.6513 18.4198C13.6304 18.4198 13.6093 18.4192 13.5881 18.4179C12.9464 18.3822 12.454 17.8113 12.4884 17.1428C12.5163 16.6006 12.1492 16.1205 11.6346 16.0258C11.1204 15.9318 10.6174 16.2518 10.4656 16.7713C10.2784 17.4117 9.62825 17.7728 9.01339 17.5777C8.39862 17.3827 8.05205 16.7054 8.23925 16.065C8.73347 14.3745 10.3671 13.3312 12.0388 13.6385C13.7107 13.9456 14.9031 15.5078 14.8123 17.2725C14.779 17.9188 14.2654 18.4198 13.6513 18.4198Z" fill="#00FB9B"/>
<path d="M22.3494 18.4198C21.7352 18.4198 21.2217 17.9189 21.1884 17.2725C21.0977 15.5079 22.2901 13.9456 23.962 13.6385C25.6336 13.3311 27.2672 14.3746 27.7615 16.065C27.9487 16.7054 27.6022 17.3826 26.9874 17.5777C26.3724 17.7725 25.7225 17.4117 25.5352 16.7714C25.3834 16.2519 24.8805 15.9311 24.3662 16.0259C23.8516 16.1204 23.4844 16.6006 23.5123 17.1428C23.5467 17.8113 23.0543 18.3823 22.4127 18.418C22.3914 18.4191 22.3702 18.4198 22.3494 18.4198Z" fill="#00FB9B"/>
</svg>
