<svg width="36" height="36" viewBox="0 0 36 36" fill="none" xmlns="http://www.w3.org/2000/svg">
<path d="M35.2044 26.544C34.6135 28.8006 33.2038 30.6844 31.2349 31.8482L27.2232 34.2169C25.8673 35.0182 24.4113 35.4189 22.9557 35.4189C21.4997 35.419 20.0443 35.0183 18.688 34.2168L9.56655 28.8281C8.7051 28.3199 8.40845 27.1887 8.90558 26.3064C9.44645 25.3483 10.2957 24.6567 11.2971 24.3587C12.318 24.055 13.3967 24.193 14.3345 24.7475L16.7559 26.1776L9.5993 13.4946C8.85498 12.1733 9.29855 10.4799 10.588 9.71949C11.2109 9.35214 11.9384 9.25495 12.6367 9.44614C13.3356 9.63747 13.9182 10.0939 14.2772 10.7312L17.1898 15.8942C17.4088 15.2932 17.8197 14.794 18.3669 14.4713C18.9887 14.1039 19.7158 14.0068 20.4139 14.198C20.745 14.2886 21.0501 14.4389 21.3176 14.6397C21.3213 14.6247 21.3251 14.6096 21.329 14.5946C21.5166 13.8798 21.963 13.2839 22.5859 12.9165C23.2077 12.5491 23.9348 12.4519 24.6329 12.6432C25.0865 12.7674 25.4911 13.0033 25.8173 13.3279C26.0176 12.7434 26.4098 12.2576 26.9371 11.9466C27.5198 11.6015 28.2015 11.5101 28.8557 11.6893C29.51 11.8686 30.0558 12.2963 30.3924 12.8938L34.357 19.9204C35.4943 21.9345 35.7952 24.2868 35.2043 26.5438L35.2044 26.544ZM8.50188 16.1588C8.06572 15.7709 7.69709 15.3127 7.4058 14.7964C6.70622 13.5572 6.52049 12.1134 6.88277 10.7308C7.24505 9.34831 8.11179 8.19303 9.3236 7.47752C10.5348 6.76158 11.9456 6.57118 13.2962 6.94136C14.6467 7.31153 15.7754 8.19794 16.4743 9.43719C16.7679 9.95783 16.9717 10.5134 17.08 11.0886C17.1906 11.6758 17.7453 12.0602 18.3194 11.947C18.8933 11.8339 19.2689 11.2661 19.1583 10.6789C19.0053 9.86657 18.7191 9.08463 18.3075 8.35483C17.326 6.61429 15.7407 5.36941 13.844 4.84949C11.947 4.3295 9.96567 4.59693 8.26527 5.60204C6.56417 6.60635 5.34707 8.22862 4.83837 10.1699C4.32953 12.1116 4.59041 14.1393 5.57274 15.8792C5.98131 16.6036 6.49968 17.2476 7.11338 17.7933C7.31371 17.9715 7.56097 18.0589 7.8071 18.0589C8.1029 18.0589 8.39709 17.9327 8.60631 17.6863C8.98969 17.2349 8.94291 16.551 8.50173 16.1587L8.50188 16.1588ZM5.87109 19.3559C5.07067 18.6523 4.39777 17.821 3.87044 16.8842C2.62554 14.6784 2.2948 12.1088 2.93906 9.64881C3.58324 7.18879 5.12522 5.13309 7.28118 3.86012C11.7311 1.23094 17.4422 2.79639 20.0115 7.34871C20.5415 8.2905 20.9088 9.30289 21.103 10.3578C21.2112 10.9455 21.7645 11.3322 22.339 11.2215C22.9133 11.1108 23.2912 10.5446 23.183 9.95689C22.9446 8.66226 22.4946 7.42113 21.845 6.26686C18.6915 0.679325 11.6833 -1.24172 6.22292 1.98457C3.57745 3.54656 1.68512 6.06939 0.894517 9.08832C0.103982 12.1072 0.50987 15.2605 2.03689 17.9661C2.6834 19.1147 3.50929 20.135 4.49183 20.9987C4.69153 21.1743 4.93688 21.2602 5.18096 21.2602C5.47882 21.2602 5.77491 21.1322 5.98413 20.883C6.36504 20.4294 6.31437 19.7458 5.87109 19.356V19.3559Z" fill="url(#paint0_linear_2096_5082)"/>
<defs>
<linearGradient id="paint0_linear_2096_5082" x1="18" y1="0.418969" x2="18" y2="35.4189" gradientUnits="userSpaceOnUse">
<stop stop-color="#FB80C2"/>
<stop offset="1" stop-color="#FCBA57"/>
</linearGradient>
</defs>
</svg>
