
<svg width="19" height="19" viewBox="0 0 19 19" fill="none" xmlns="http://www.w3.org/2000/svg">
<path d="M6.91839 5.55529C6.91839 4.57551 7.71266 3.78125 8.69243 3.78125C9.6722 3.78125 10.4665 4.57551 10.4665 5.55529V8.54843C11.6841 8.6047 13.3755 8.99952 14.6978 10.2922C15.3424 10.9224 15.3751 11.8405 15.2614 12.578C15.1438 13.3413 14.8439 14.0943 14.5974 14.5943C14.5253 14.7406 14.4393 14.8902 14.361 15.0263C14.2824 15.1629 14.2015 15.3034 14.1358 15.4311C13.995 15.7045 13.9292 15.9068 13.9292 16.0623C13.9296 16.2671 13.9302 16.5353 13.8726 16.7251C13.7453 17.1443 13.4172 17.4724 12.998 17.5996C12.8082 17.6573 12.5942 17.6568 12.3893 17.6563L8.20245 17.6481C7.76175 17.6481 7.40019 17.3397 7.26787 17.1855C7.15103 17.0457 7.07783 16.8627 7.0237 16.7158C6.96396 16.5537 6.8728 16.2729 6.78882 16.0108C6.723 15.8314 6.60402 15.6686 6.20739 15.1595L4.05716 12.3998C3.56616 11.7899 3.56413 10.9198 4.053 10.3074C4.64256 9.56895 5.72626 9.46664 6.44324 10.0825L6.44428 10.0834L6.91839 10.4926V5.55529Z" fill="url(#paint0_linear_278_943)"/>
<path fill-rule="evenodd" clip-rule="evenodd" d="M8.75012 2.84375C7.50748 2.84375 6.50012 3.85111 6.50012 5.09375C6.50012 5.50796 6.16434 5.84375 5.75012 5.84375C5.33591 5.84375 5.00012 5.50796 5.00012 5.09375C5.00012 3.02268 6.67905 1.34375 8.75012 1.34375C10.8212 1.34375 12.5001 3.02268 12.5001 5.09375C12.5001 5.50796 12.1643 5.84375 11.7501 5.84375C11.3359 5.84375 11.0001 5.50796 11.0001 5.09375C11.0001 3.85111 9.99276 2.84375 8.75012 2.84375Z" fill="url(#paint1_linear_278_943)"/>
<defs>
<linearGradient id="paint0_linear_278_943" x1="9.49998" y1="3.78125" x2="9.49998" y2="17.6564" gradientUnits="userSpaceOnUse">
<stop stop-color="#ACB9C6"/>
<stop offset="1" stop-color="#F2F7F8"/>
</linearGradient>
<linearGradient id="paint1_linear_278_943" x1="8.75012" y1="1.34375" x2="8.75012" y2="5.84375" gradientUnits="userSpaceOnUse">
<stop stop-color="#ACB9C6"/>
<stop offset="1" stop-color="#F2F7F8"/>
</linearGradient>
</defs>
</svg>
