
<svg width="36" height="29" viewBox="0 0 36 29" fill="none" xmlns="http://www.w3.org/2000/svg">
<path d="M35.5 14.4998C35.5 22.2316 34.5224 28.4995 18 28.4995C3.057 28.4995 0.82898 23.3726 0.539563 16.6726C0.508936 15.9645 0.5 15.2388 0.5 14.4998C0.5 8.38224 1.11207 3.18117 9.55115 1.27603C11.7781 0.773256 14.5503 0.5 18 0.5C21.671 0.5 24.5747 0.809425 26.8706 1.37562C34.9086 3.35745 35.5 8.4857 35.5 14.4998Z" fill="#CBE8EA"/>
<path d="M18.0002 23.9346C25.7436 23.9346 32.0208 20.161 32.0208 15.5059C32.0208 10.8508 25.7436 7.07715 18.0002 7.07715C10.2568 7.07715 3.97949 10.8508 3.97949 15.5059C3.97949 20.161 10.2568 23.9346 18.0002 23.9346Z" fill="#030617"/>
<path d="M13.6514 18.0008C13.6305 18.0008 13.6095 18.0003 13.5882 17.999C12.9465 17.9632 12.4541 17.3924 12.4886 16.7239C12.5164 16.1816 12.1493 15.7015 11.6347 15.6069C11.1205 15.5128 10.6175 15.8328 10.4657 16.3524C10.2785 16.9928 9.62837 17.3539 9.01351 17.1588C8.39875 16.9638 8.05217 16.2864 8.23937 15.6461C8.73359 13.9555 10.3672 12.9122 12.0389 13.2195C13.7108 13.5266 14.9032 15.0889 14.8125 16.8535C14.7791 17.4999 14.2656 18.0008 13.6514 18.0008Z" fill="#6366F1"/>
<path d="M22.349 18.0009C21.7348 18.0009 21.2213 17.4999 21.1881 16.8535C21.0973 15.0889 22.2897 13.5267 23.9616 13.2196C25.6332 12.9122 27.2669 13.9556 27.7612 15.6461C27.9484 16.2865 27.6018 16.9637 26.987 17.1588C26.372 17.3536 25.7221 16.9928 25.5348 16.3524C25.383 15.8329 24.8801 15.5122 24.3658 15.6069C23.8512 15.7015 23.4841 16.1816 23.512 16.7239C23.5463 17.3924 23.054 17.9633 22.4123 17.999C22.391 18.0002 22.3699 18.0009 22.349 18.0009Z" fill="#6366F1"/>
</svg>
