<svg width="18" height="18" viewBox="0 0 13 17" fill="none" xmlns="http://www.w3.org/2000/svg">
<path d="M3.91827 4.55517C3.91827 3.57539 4.71253 2.78113 5.69231 2.78113C6.67208 2.78113 7.46635 3.57539 7.46635 4.55517V7.54831C8.68402 7.60457 10.3754 7.9994 11.6977 9.29206C12.3423 9.92226 12.375 10.8404 12.2613 11.5779C12.1437 12.3412 11.8438 13.0941 11.5973 13.5942C11.5252 13.7404 11.4392 13.8901 11.3609 14.0262C11.2822 14.1628 11.2013 14.3033 11.1356 14.4309C10.9949 14.7044 10.929 14.9067 10.929 15.0621C10.9295 15.267 10.9301 15.5351 10.8724 15.7249C10.7452 16.1442 10.4171 16.4722 9.99786 16.5995C9.80805 16.6571 9.59404 16.6567 9.38918 16.6562L5.20232 16.648C4.76163 16.648 4.40006 16.3396 4.26775 16.1854C4.15091 16.0456 4.07771 15.8626 4.02358 15.7157C3.96384 15.5535 3.87268 15.2728 3.7887 15.0106C3.72288 14.8313 3.6039 14.6685 3.20727 14.1594L1.05703 11.3997C0.566035 10.7897 0.564005 9.91967 1.05288 9.30731C1.64244 8.56883 2.72614 8.46652 3.44312 9.08235L3.44416 9.08324L3.91827 9.49249V4.55517Z" fill="url(#paint0_linear_2013_800)"/>
<path fill-rule="evenodd" clip-rule="evenodd" d="M5.75 1.84357C4.50736 1.84357 3.5 2.85093 3.5 4.09357C3.5 4.50778 3.16421 4.84357 2.75 4.84357C2.33579 4.84357 2 4.50778 2 4.09357C2 2.0225 3.67893 0.343567 5.75 0.343567C7.82107 0.343567 9.5 2.0225 9.5 4.09357C9.5 4.50778 9.16421 4.84357 8.75 4.84357C8.33579 4.84357 8 4.50778 8 4.09357C8 2.85093 6.99264 1.84357 5.75 1.84357Z" fill="url(#paint1_linear_2013_800)"/>
<defs>
<linearGradient id="paint0_linear_2013_800" x1="6.49986" y1="2.78113" x2="6.49986" y2="16.6563" gradientUnits="userSpaceOnUse">
<stop stop-color="#ACB9C6"/>
<stop offset="1" stop-color="#F2F7F8"/>
</linearGradient>
<linearGradient id="paint1_linear_2013_800" x1="5.75" y1="0.343567" x2="5.75" y2="4.84357" gradientUnits="userSpaceOnUse">
<stop stop-color="#ACB9C6"/>
<stop offset="1" stop-color="#F2F7F8"/>
</linearGradient>
</defs>
</svg>
