
<svg width="40" height="41" viewBox="0 0 40 41" fill="none" xmlns="http://www.w3.org/2000/svg">
<g clip-path="url(#clip0_105_1942)">
<path d="M20 23.575C25.3848 23.575 29.75 19.2099 29.75 13.8251C29.75 8.44038 25.3848 4.0752 20 4.0752C14.6153 4.0752 10.2501 8.44038 10.2501 13.8251C10.2501 19.2099 14.6153 23.575 20 23.575Z" fill="#FEF99C"/>
<path d="M25.7382 21.7088C24.1287 22.883 22.1457 23.5752 20.0003 23.5752C19.0298 23.5752 18.0926 23.4332 17.2078 23.1693V15.2643C17.2078 13.6739 18.5009 12.3799 20.0914 12.3799C21.682 12.3799 22.9751 13.6739 22.9751 15.2643V21.0753C23.236 20.9975 23.5127 20.9564 23.7981 20.9564C24.545 20.9563 25.226 21.2418 25.7382 21.7088Z" fill="#F3CF29"/>
<path d="M11.7794 24.1409C11.6437 24.1409 11.5072 24.0948 11.3955 24.0002C8.39543 21.4607 6.6748 17.7521 6.6748 13.8252C6.67488 6.47766 12.6525 0.5 20 0.5C27.3475 0.5 33.3252 6.47766 33.3252 13.8252C33.3252 16.4955 32.5382 19.0719 31.0491 21.2758C30.8653 21.5479 30.4957 21.6195 30.2235 21.4356C29.9513 21.2518 29.8798 20.8821 30.0636 20.61C31.4193 18.6034 32.1358 16.2573 32.1358 13.8252C32.1358 7.13336 26.6917 1.6893 20 1.6893C13.3082 1.6893 7.8641 7.13344 7.8641 13.8252C7.8641 17.4016 9.43129 20.7793 12.1639 23.0923C12.4146 23.3045 12.4457 23.6798 12.2336 23.9304C12.116 24.0694 11.9482 24.1409 11.7794 24.1409Z" fill="#FFF897"/>
<path d="M29.7498 13.8258C29.7498 19.21 25.3849 23.5757 20 23.5757C19.7853 23.5757 19.5722 23.5687 19.3606 23.5547C24.4471 23.2254 28.4711 18.9953 28.4711 13.8258C28.4711 8.65559 24.4471 4.42551 19.3606 4.09613C19.5722 4.08215 19.7853 4.0752 20 4.0752C25.3848 4.07527 29.7498 8.44098 29.7498 13.8258Z" fill="#F3CF29"/>
<path d="M20 20.3746C23.6173 20.3746 26.5497 17.4422 26.5497 13.825C26.5497 10.2078 23.6173 7.27539 20 7.27539C16.3828 7.27539 13.4504 10.2078 13.4504 13.825C13.4504 17.4422 16.3828 20.3746 20 20.3746Z" fill="#F3D02C"/>
<path d="M22.9751 15.2643V19.6615C22.0824 20.1182 21.0714 20.3751 20.0003 20.3751C19.0013 20.3751 18.0546 20.1515 17.2078 19.7511V15.2643C17.2078 13.6739 18.5009 12.3799 20.0914 12.3799C21.682 12.3799 22.9751 13.6739 22.9751 15.2643Z" fill="#EDA908"/>
<path d="M26.5499 13.8254C26.5499 17.442 23.6173 20.3746 19.9999 20.3746C19.7761 20.3746 19.5552 20.3636 19.3373 20.3415C22.6439 20.0095 25.2246 17.2181 25.2246 13.8254C25.2246 10.4319 22.6439 7.64063 19.3373 7.30852C19.5552 7.28641 19.7761 7.27539 19.9999 7.27539C23.6173 7.27539 26.5499 10.208 26.5499 13.8254Z" fill="#EDA908"/>
<path d="M31.2108 23.7091C30.1873 23.7091 29.3576 24.5387 29.3576 25.5623V24.6949C29.3576 23.6714 28.5279 22.8417 27.5044 22.8417C26.4809 22.8417 25.6512 23.6714 25.6512 24.6949V23.8393C25.6512 22.8158 24.8215 21.9861 23.798 21.9861C22.7745 21.9861 21.9448 22.8158 21.9448 23.8393V15.2634C21.9448 14.2398 21.1151 13.4102 20.0916 13.4102C19.0681 13.4102 18.2384 14.2398 18.2384 15.2634V28.8935L16.2615 26.9166C15.1367 25.7919 13.3135 25.7908 12.1876 26.9144C12.1762 26.9257 12.1649 26.9371 12.1535 26.9484C11.4123 27.688 11.4114 28.8883 12.1517 29.6287L15.1695 32.6464C16.3858 33.8627 17.3068 35.3186 17.8871 36.9028C18.676 39.0568 20.7116 40.4998 23.0055 40.4998H27.6232C30.6281 40.4998 33.064 38.0638 33.064 35.059V25.5623C33.064 24.5388 32.2343 23.7091 31.2108 23.7091Z" fill="#FFCEC0"/>
<path d="M33.0642 25.5629V35.0596C33.0642 38.0643 30.6282 40.5004 27.6234 40.5004H26.4359C29.4407 40.5004 31.8767 38.0643 31.8767 35.0596V25.5629C31.8767 24.7474 31.3497 24.0547 30.6172 23.8079C30.8029 23.7442 31.003 23.71 31.2107 23.71C32.2344 23.71 33.0642 24.5397 33.0642 25.5629Z" fill="#FFBBAD"/>
<path d="M21.9447 27.0021C21.6163 27.0021 21.3501 26.7359 21.3501 26.4075V23.8397C21.3501 23.5113 21.6163 23.2451 21.9447 23.2451C22.2731 23.2451 22.5394 23.5114 22.5394 23.8397V26.4075C22.5394 26.7359 22.2731 27.0021 21.9447 27.0021Z" fill="#FFBBAD"/>
<path d="M25.6511 26.7638C25.3227 26.7638 25.0565 26.4975 25.0565 26.1691V24.6952C25.0565 24.3668 25.3227 24.1006 25.6511 24.1006C25.9796 24.1006 26.2458 24.3668 26.2458 24.6952V26.1691C26.2458 26.4976 25.9796 26.7638 25.6511 26.7638Z" fill="#FFBBAD"/>
<path d="M29.3576 26.7636C29.0291 26.7636 28.7629 26.4974 28.7629 26.1689V25.5624C28.7629 25.2339 29.0291 24.9678 29.3576 24.9678C29.686 24.9678 29.9522 25.234 29.9522 25.5624V26.169C29.9522 26.4975 29.686 26.7636 29.3576 26.7636Z" fill="#FFBBAD"/>
<path d="M18.2383 31.8675C17.9098 31.8675 17.6437 31.6013 17.6437 31.2729V28.8944C17.6437 28.566 17.9099 28.2998 18.2383 28.2998C18.5667 28.2998 18.8329 28.5661 18.8329 28.8944V31.2729C18.8329 31.6013 18.5666 31.8675 18.2383 31.8675Z" fill="#FFBBAD"/>
</g>
<defs>
<clipPath id="clip0_105_1942">
<rect width="40" height="40" fill="white" transform="translate(0 0.5)"/>
</clipPath>
</defs>
</svg>
