<svg width="36" height="35" viewBox="0 0 36 35" fill="none" xmlns="http://www.w3.org/2000/svg">
<path d="M25.3325 0H10.6675C4.2975 0 0.5 3.7975 0.5 10.1675V24.8325C0.5 31.2025 4.2975 35 10.6675 35H25.3325C31.7025 35 35.5 31.2025 35.5 24.8325V10.1675C35.5 3.7975 31.7025 0 25.3325 0ZM14.4475 22.575L10.51 26.5125C10.2475 26.775 9.915 26.8975 9.5825 26.8975C9.25 26.8975 8.9 26.775 8.655 26.5125L7.3425 25.2C6.8175 24.6925 6.8175 23.8525 7.3425 23.345C7.85 22.8375 8.6725 22.8375 9.1975 23.345L9.5825 23.73L12.5925 20.72C13.1 20.2125 13.9225 20.2125 14.4475 20.72C14.955 21.2275 14.955 22.0675 14.4475 22.575ZM14.4475 10.325L10.51 14.2625C10.2475 14.525 9.915 14.6475 9.5825 14.6475C9.25 14.6475 8.9 14.525 8.655 14.2625L7.3425 12.95C6.8175 12.4425 6.8175 11.6025 7.3425 11.095C7.85 10.5875 8.6725 10.5875 9.1975 11.095L9.5825 11.48L12.5925 8.47C13.1 7.9625 13.9225 7.9625 14.4475 8.47C14.955 8.9775 14.955 9.8175 14.4475 10.325ZM27.73 25.585H18.5425C17.825 25.585 17.23 24.99 17.23 24.2725C17.23 23.555 17.825 22.96 18.5425 22.96H27.73C28.465 22.96 29.0425 23.555 29.0425 24.2725C29.0425 24.99 28.465 25.585 27.73 25.585ZM27.73 13.335H18.5425C17.825 13.335 17.23 12.74 17.23 12.0225C17.23 11.305 17.825 10.71 18.5425 10.71H27.73C28.465 10.71 29.0425 11.305 29.0425 12.0225C29.0425 12.74 28.465 13.335 27.73 13.335Z" fill="url(#paint0_linear_2075_3072)"/>
<defs>
<linearGradient id="paint0_linear_2075_3072" x1="0.500008" y1="8.08388e-06" x2="37.8964" y2="2.78156" gradientUnits="userSpaceOnUse">
<stop stop-color="#04C3B3"/>
<stop offset="1" stop-color="#0CAD24"/>
</linearGradient>
</defs>
</svg>
