
<svg width="40" height="41" viewBox="0 0 40 41" fill="none" xmlns="http://www.w3.org/2000/svg">
<path d="M20 37.1562C18.9922 37.1562 18.0234 36.7578 17.3125 36.0469L14.3906 33.125H5.82812C2.60937 33.1172 0 30.5078 0 27.2891V9.67969C0 6.46094 2.60937 3.85156 5.82812 3.85156H34.1641C37.3828 3.85156 39.9922 6.46094 39.9922 9.67969V27.2891C39.9922 30.5078 37.3828 33.1172 34.1641 33.1172H25.6094L22.6875 36.0469C21.9766 36.7578 21.0078 37.1562 20 37.1562Z" fill="url(#paint0_linear_135_6073)"/>
<path d="M34.1719 5.40625H5.82812C3.47656 5.40625 1.5625 7.32031 1.5625 9.67969V27.2891C1.5625 29.6484 3.47656 31.5547 5.82812 31.5547H15.0391L18.4219 34.9375C19.2969 35.8125 20.7109 35.8125 21.5781 34.9375L24.9609 31.5547H34.1719C36.5312 31.5547 38.4375 29.6406 38.4375 27.2891V9.67969C38.4375 7.32031 36.5234 5.40625 34.1719 5.40625Z" fill="url(#paint1_linear_135_6073)"/>
<path d="M16.9141 17.7344C18.6788 17.7344 20.1094 16.3038 20.1094 14.5391C20.1094 12.7743 18.6788 11.3438 16.9141 11.3438C15.1493 11.3438 13.7188 12.7743 13.7188 14.5391C13.7188 16.3038 15.1493 17.7344 16.9141 17.7344Z" fill="white"/>
<path d="M13.7891 19.0078H20.0312C21.5625 19.0078 22.8047 20.25 22.8125 21.7812V23.9141C22.8125 24.6563 22.2109 25.2578 21.4687 25.2578H12.3594C11.6172 25.2578 11.0156 24.6563 11.0156 23.9141V21.7812C11.0156 20.25 12.2578 19.0078 13.7891 19.0078Z" fill="white"/>
<path d="M27.7656 14.8125H26.9141V13.9531C26.9141 13.2812 26.3672 12.7344 25.6953 12.7344C25.0234 12.7344 24.4766 13.2812 24.4766 13.9531V14.8125H23.6172C22.9453 14.8125 22.3984 15.3594 22.3984 16.0312C22.3984 16.7031 22.9453 17.25 23.6172 17.25H24.4766V18.1016C24.4766 18.7734 25.0234 19.3203 25.6953 19.3203C26.3672 19.3203 26.9141 18.7734 26.9141 18.1016V17.25H27.7734C28.4453 17.25 28.9922 16.7031 28.9922 16.0312C28.9844 15.3594 28.4375 14.8125 27.7656 14.8125Z" fill="white"/>
<defs>
<linearGradient id="paint0_linear_135_6073" x1="39.9922" y1="20.5039" x2="0" y2="20.5039" gradientUnits="userSpaceOnUse">
<stop stop-color="#FDE06D"/>
<stop offset="1" stop-color="#F68B8D"/>
</linearGradient>
<linearGradient id="paint1_linear_135_6073" x1="38.4375" y1="20.5" x2="1.5625" y2="20.5" gradientUnits="userSpaceOnUse">
<stop stop-color="#F68B8D"/>
<stop offset="1" stop-color="#FDE06D"/>
</linearGradient>
</defs>
</svg>
