<svg width="18" height="18" viewBox="0 0 15 17" fill="none" xmlns="http://www.w3.org/2000/svg">
<path d="M10.323 0.941057C10.3517 0.708818 10.366 0.592699 10.2993 0.516825C10.2326 0.440951 10.1163 0.440307 9.88379 0.439019C9.6249 0.437585 9.35291 0.437588 9.06736 0.437592H6.72991C6.44511 0.437588 6.17377 0.437585 5.91549 0.439008C5.68424 0.440282 5.56862 0.440919 5.50196 0.516263C5.43529 0.591608 5.44882 0.707167 5.47589 0.938284L5.51719 1.29099C5.59313 1.74648 5.64312 2.03872 5.70691 2.25299C5.76685 2.45431 5.8204 2.5183 5.86288 2.55429C5.90536 2.59028 5.97729 2.63258 6.18572 2.6586C6.40974 2.68657 6.70988 2.68759 7.17948 2.68759H8.61741C9.08701 2.68759 9.38715 2.68657 9.61117 2.6586C9.8196 2.63258 9.89153 2.59028 9.93401 2.55429C9.97649 2.5183 10.03 2.45431 10.09 2.25299C10.1538 2.03844 10.2039 1.74573 10.28 1.28924L10.323 0.941057Z" fill="url(#paint0_linear_2013_564)"/>
<path fill-rule="evenodd" clip-rule="evenodd" d="M4.23051 0.557339C4.30502 0.615194 4.31712 0.718508 4.34132 0.925137L4.40123 1.43673L4.40479 1.45812C4.47374 1.87207 4.54312 2.28855 4.62849 2.57531C4.72206 2.88961 4.86329 3.1834 5.13552 3.41401C5.40775 3.64462 5.72076 3.73563 6.04616 3.77626C6.34817 3.81396 6.71935 3.81394 7.1461 3.81392H8.65042C9.07717 3.81394 9.44834 3.81396 9.75036 3.77626C10.0758 3.73563 10.3888 3.64462 10.661 3.41401C10.9332 3.1834 11.0745 2.88961 11.168 2.57531C11.2537 2.2874 11.3229 1.87203 11.3922 1.45655L11.3949 1.44025L11.4588 0.922794C11.4841 0.717409 11.4968 0.614716 11.5712 0.557349C11.6456 0.499983 11.7441 0.51329 11.9412 0.539904L11.9826 0.54563C12.7652 0.656391 13.4074 0.891748 13.9124 1.4233C14.4135 1.9508 14.6319 2.61479 14.7353 3.42453C14.836 4.21262 14.8359 5.21907 14.8359 6.48758V10.5153C14.8359 11.7838 14.836 12.7902 14.7353 13.5783C14.6319 14.388 14.4135 15.052 13.9124 15.5795C13.4074 16.1111 12.7652 16.3464 11.9826 16.4572C11.2284 16.5639 10.2675 16.5639 9.06721 16.5639H9.06717H6.7297H6.72966C5.52938 16.5639 4.56851 16.5639 3.81428 16.4572C3.03164 16.3464 2.38945 16.1111 1.88447 15.5795C1.38335 15.052 1.165 14.388 1.06158 13.5783C0.960919 12.7902 0.960928 11.7838 0.960938 10.5153V10.5153V6.48756V6.48756V6.48755C0.960928 5.21906 0.960919 4.21262 1.06158 3.42453C1.165 2.61479 1.38335 1.9508 1.88447 1.4233C2.38945 0.891748 3.03164 0.656391 3.81428 0.54563L3.85881 0.539484C4.05694 0.512817 4.156 0.499484 4.23051 0.557339ZM8.4624 7.75009C8.4624 7.43943 8.71424 7.18759 9.0249 7.18759H11.6499C11.9606 7.18759 12.2124 7.43943 12.2124 7.75009C12.2124 8.06075 11.9606 8.31259 11.6499 8.31259H9.0249C8.71424 8.31259 8.4624 8.06075 8.4624 7.75009ZM7.33769 7.53047C7.63053 7.42676 7.78384 7.10529 7.68013 6.81246C7.57642 6.51962 7.25495 6.3663 6.96211 6.47002C6.60052 6.59808 6.26484 6.83797 5.98076 7.0871C5.69086 7.34134 5.4221 7.6344 5.19591 7.90554C5.0863 8.03693 4.98505 8.16515 4.89454 8.28403C4.82838 8.22211 4.76208 8.16982 4.6963 8.12597C4.5771 8.0465 4.46531 7.99865 4.36889 7.97111L4.35202 7.96615C4.30552 7.95231 4.24222 7.93346 4.1499 7.93775C3.83924 7.93775 3.5874 8.18958 3.5874 8.50025C3.5874 8.78128 3.79351 9.01418 4.06281 9.05604L4.06646 9.05828L4.07226 9.06202C4.11403 9.08987 4.24265 9.19353 4.39679 9.5018C4.48745 9.68313 4.66867 9.80164 4.87114 9.81201C5.07355 9.82237 5.26609 9.72273 5.37481 9.55169C5.40698 9.5034 5.50126 9.36201 5.56211 9.2758C5.68422 9.10282 5.8569 8.86939 6.05978 8.6262C6.26373 8.38172 6.4913 8.13571 6.72253 7.93292C6.9596 7.72502 7.16987 7.58991 7.33769 7.53047ZM8.4624 12.2501C8.4624 11.9394 8.71424 11.6876 9.0249 11.6876H11.6499C11.9606 11.6876 12.2124 11.9394 12.2124 12.2501C12.2124 12.5608 11.9606 12.8126 11.6499 12.8126H9.0249C8.71424 12.8126 8.4624 12.5608 8.4624 12.2501ZM4.8999 11.5001C4.48569 11.5001 4.1499 11.8359 4.1499 12.2501C4.1499 12.6643 4.48569 13.0001 4.8999 13.0001H5.6499C6.06412 13.0001 6.3999 12.6643 6.3999 12.2501C6.3999 11.8359 6.06412 11.5001 5.6499 11.5001H4.8999Z" fill="url(#paint1_linear_2013_564)"/>
<defs>
<linearGradient id="paint0_linear_2013_564" x1="7.90031" y1="0.437592" x2="7.90031" y2="2.68759" gradientUnits="userSpaceOnUse">
<stop stop-color="#ACB9C6"/>
<stop offset="1" stop-color="#F2F7F8"/>
</linearGradient>
<linearGradient id="paint1_linear_2013_564" x1="7.89844" y1="0.516693" x2="7.89844" y2="16.5639" gradientUnits="userSpaceOnUse">
<stop stop-color="#ACB9C6"/>
<stop offset="1" stop-color="#F2F7F8"/>
</linearGradient>
</defs>
</svg>
