
<svg width="40" height="41" viewBox="0 0 40 41" fill="none" xmlns="http://www.w3.org/2000/svg">
<path fill-rule="evenodd" clip-rule="evenodd" d="M16.9531 24.5355L13.8984 22.7715L6.71248 35.2168C6.53826 35.5184 6.8156 35.8793 7.15154 35.7895L10.3047 34.9441C10.7203 34.8324 11.15 35.0809 11.2617 35.4965L12.107 38.6496C12.1969 38.9855 12.6484 39.0449 12.8226 38.7441L20.0078 26.2996L16.9531 24.5355ZM23.0469 24.5355L26.1015 22.7715L33.2867 35.216C33.4609 35.5176 33.1836 35.8785 32.8476 35.7887L29.6945 34.9434C29.2789 34.8316 28.8492 35.0801 28.7375 35.4957L27.8922 38.6488C27.8023 38.9848 27.3508 39.0441 27.1765 38.7434L19.9922 26.2996L23.0469 24.5355Z" fill="url(#paint0_linear_135_6982)"/>
<path fill-rule="evenodd" clip-rule="evenodd" d="M21.7367 2.74746L22.5242 3.48106C23.1625 4.07481 23.9813 4.29512 24.8313 4.10137L25.8977 3.8584C27.2047 3.56074 28.5133 4.31777 28.9063 5.59981L29.2219 6.62871C29.4773 7.46231 30.0766 8.06309 30.9102 8.32012L31.9555 8.64277C33.2367 9.03809 33.9914 10.3482 33.6906 11.6545L33.4492 12.7037C33.2539 13.5537 33.4727 14.3732 34.0656 15.0123L34.8094 15.8147C35.7211 16.7975 35.7195 18.3092 34.8063 19.2904L34.0727 20.0779C33.4789 20.7162 33.2586 21.535 33.4523 22.385L33.6953 23.4514C33.993 24.7584 33.2359 26.067 31.9539 26.46L30.925 26.7756C30.0914 27.0311 29.4906 27.6303 29.2336 28.4639L28.9109 29.5092C28.5156 30.7904 27.2055 31.5451 25.8992 31.2443L24.85 31.0029C24 30.8076 23.1805 31.0264 22.5414 31.6193L21.7391 32.3631C20.7563 33.2748 19.2445 33.2732 18.2633 32.36L17.4758 31.6264C16.8375 31.0326 16.0188 30.8123 15.1688 31.0061L14.1023 31.249C12.7953 31.5467 11.4867 30.7896 11.0938 29.5076L10.7781 28.4787C10.5227 27.6451 9.92344 27.0443 9.08984 26.7873L8.04453 26.4646C6.76328 26.0693 6.00859 24.7592 6.30938 23.4529L6.55078 22.4037C6.74609 21.5537 6.52734 20.7342 5.93438 20.0951L5.19063 19.2928C4.27891 18.31 4.28047 16.7982 5.19375 15.817L5.92734 15.0295C6.52109 14.3912 6.74141 13.5725 6.54766 12.7225L6.30469 11.6561C6.00703 10.349 6.76406 9.04043 8.04609 8.64746L9.075 8.33184C9.9086 8.07637 10.5094 7.47715 10.7664 6.64356L11.0891 5.59824C11.4844 4.31699 12.7945 3.56231 14.1008 3.86309L15.15 4.10449C16 4.29981 16.8195 4.08106 17.4586 3.48809L18.2609 2.74434C19.2438 1.83262 20.7555 1.83418 21.7367 2.74746Z" fill="#FEF99C"/>
<path d="M30.32 17.5562C30.3257 11.8513 25.7055 7.22189 20.0006 7.21619C14.2957 7.21048 9.6663 11.8306 9.6606 17.5355C9.65489 23.2405 14.275 27.8699 19.98 27.8756C25.6849 27.8813 30.3143 23.2611 30.32 17.5562Z" fill="#F3D02C"/>
<path fill-rule="evenodd" clip-rule="evenodd" d="M20.3094 10.1264L21.7813 14.6857C21.8258 14.8225 21.9477 14.9115 22.0915 14.9107L26.8821 14.9014C27.1969 14.9006 27.3282 15.3053 27.0735 15.4904L23.1922 18.299C23.0758 18.3834 23.029 18.5271 23.0735 18.6639L24.5626 23.217C24.6602 23.5154 24.3149 23.7654 24.0618 23.5811L20.1915 20.7576C20.0751 20.6732 19.9243 20.6732 19.8079 20.7576L15.9376 23.5811C15.6836 23.7662 15.3391 23.5154 15.4368 23.217L16.9258 18.6639C16.9704 18.5271 16.9235 18.3834 16.8071 18.299L12.9258 15.4904C12.6704 15.3061 12.8024 14.9014 13.1172 14.9014L17.9079 14.9107C18.0516 14.9107 18.1735 14.8225 18.218 14.6857L19.6899 10.1264C19.7876 9.82637 20.2126 9.82637 20.3094 10.1264Z" fill="#EDA908"/>
<defs>
<linearGradient id="paint0_linear_135_6982" x1="33.3404" y1="30.8553" x2="6.65881" y2="30.8553" gradientUnits="userSpaceOnUse">
<stop stop-color="#F68B8D"/>
<stop offset="1" stop-color="#FDE06D"/>
</linearGradient>
</defs>
</svg>
