<svg width="18" height="18" viewBox="0 0 17 17" fill="none" xmlns="http://www.w3.org/2000/svg">
<path fill-rule="evenodd" clip-rule="evenodd" d="M1.94971 15.8126C1.94971 15.3983 2.28549 15.0626 2.69971 15.0626H14.6997C15.1139 15.0626 15.4497 15.3983 15.4497 15.8126C15.4497 16.2268 15.1139 16.5626 14.6997 16.5626H2.69971C2.28549 16.5626 1.94971 16.2268 1.94971 15.8126Z" fill="url(#paint0_linear_2013_590)"/>
<path d="M1.94222 11.153C1.71148 11.3838 1.59611 11.4992 1.45005 11.4806C1.30399 11.462 1.22781 11.3324 1.07543 11.0731C0.825291 10.6476 0.670819 10.2122 0.642998 9.72695C0.63116 9.52048 0.637499 9.3128 0.661762 9.10627C0.743216 8.41293 1.07387 7.81407 1.57709 7.18269C2.06923 6.56521 2.77218 5.86227 3.66358 4.97088L5.1705 3.46396C6.06188 2.57257 6.76483 1.86961 7.3823 1.37748C8.01369 0.87426 8.61254 0.543601 9.30588 0.462147C9.51242 0.437884 9.7201 0.431544 9.92657 0.443383C10.4116 0.471195 10.8456 0.624579 11.2703 0.873973C11.5294 1.02616 11.659 1.10226 11.6777 1.2483C11.6964 1.39434 11.581 1.50973 11.3503 1.74051L1.94222 11.153Z" fill="url(#paint1_linear_2013_590)"/>
<path fill-rule="evenodd" clip-rule="evenodd" d="M1.45005 11.4806C1.59611 11.4992 1.71148 11.3838 1.94222 11.153L11.3503 1.74051C11.581 1.50973 11.6964 1.39434 11.6777 1.2483C11.659 1.10226 11.5294 1.02616 11.2703 0.873973C10.8456 0.624579 10.4116 0.471195 9.92657 0.443383C9.7201 0.431544 9.51242 0.437884 9.30588 0.462147C8.61254 0.543601 8.01369 0.87426 7.3823 1.37748C6.76483 1.86961 6.06188 2.57257 5.1705 3.46396L3.66358 4.97088C2.77218 5.86227 2.06923 6.56521 1.57709 7.18269C1.07387 7.81407 0.743216 8.41293 0.661762 9.10627C0.637499 9.3128 0.63116 9.52048 0.642998 9.72695C0.670819 10.2122 0.825291 10.6476 1.07543 11.0731C1.22781 11.3324 1.30399 11.462 1.45005 11.4806ZM12.69 2.11894C12.8133 2.11824 12.9106 2.21337 13.1053 2.40363C13.3607 2.65325 13.6328 2.92538 13.9258 3.21843L13.9814 3.27397C14.8168 4.10933 15.4819 4.77445 15.9411 5.36788C16.415 5.98027 16.7163 6.57361 16.7564 7.27323C16.7683 7.4797 16.7619 7.68738 16.7377 7.89392C16.6562 8.58726 16.3255 9.18611 15.8223 9.8175C15.3302 10.435 14.6272 11.1379 13.7359 12.0293L12.2289 13.5363C11.3375 14.4276 10.6346 15.1306 10.0171 15.6227C9.38573 16.1259 8.78687 16.4566 8.09353 16.538C7.887 16.5623 7.67932 16.5686 7.47285 16.5568C6.77322 16.5167 6.17989 16.2153 5.56749 15.7415C4.9741 15.2823 4.30895 14.6171 3.47365 13.7818L3.47363 13.7818L3.47359 13.7818L3.41803 13.7262L3.41783 13.726C3.12485 13.433 2.85281 13.161 2.60325 12.9057C2.41299 12.711 2.31786 12.6136 2.31857 12.4904C2.31927 12.3671 2.41673 12.2697 2.61163 12.0748L2.61163 12.0748L12.2744 2.41201C12.4693 2.21711 12.5667 2.11965 12.69 2.11894ZM14.0617 8.18885C14.2814 7.96918 14.2814 7.61303 14.0617 7.39336C13.8421 7.17369 13.4859 7.17369 13.2662 7.39336L11.6116 9.04805C11.3919 9.26772 11.3919 9.62388 11.6116 9.84355C11.8312 10.0632 12.1874 10.0632 12.407 9.84355L14.0617 8.18885ZM10.9887 11.2619C11.2084 11.0422 11.2084 10.686 10.9887 10.4664C10.7691 10.2467 10.4129 10.2467 10.1932 10.4664L9.48409 11.1755C9.26442 11.3952 9.26442 11.7513 9.48409 11.971C9.70376 12.1907 10.0599 12.1907 10.2796 11.971L10.9887 11.2619Z" fill="url(#paint2_linear_2013_590)"/>
<defs>
<linearGradient id="paint0_linear_2013_590" x1="8.69971" y1="9.06256" x2="8.69971" y2="22.5626" gradientUnits="userSpaceOnUse">
<stop stop-color="#ACB9C6"/>
<stop offset="1" stop-color="#F2F7F8"/>
</linearGradient>
<linearGradient id="paint1_linear_2013_590" x1="6.15842" y1="0.437592" x2="6.15842" y2="11.4826" gradientUnits="userSpaceOnUse">
<stop stop-color="#ACB9C6"/>
<stop offset="1" stop-color="#F2F7F8"/>
</linearGradient>
<linearGradient id="paint2_linear_2013_590" x1="8.69971" y1="0.437592" x2="8.69971" y2="16.5626" gradientUnits="userSpaceOnUse">
<stop stop-color="#ACB9C6"/>
<stop offset="1" stop-color="#F2F7F8"/>
</linearGradient>
</defs>
</svg>
