<svg width="68" height="65" viewBox="0 0 68 65" fill="none" xmlns="http://www.w3.org/2000/svg">
<g filter="url(#filter0_bdi_2285_17359)">
<g clip-path="url(#clip0_2285_17359)">
<rect x="9.90002" y="10" width="38.4" height="38.4" rx="8" fill="url(#paint0_linear_2285_17359)" fill-opacity="0.04" shape-rendering="crispEdges"/>
<g style="mix-blend-mode:plus-lighter" opacity="0.5" filter="url(#filter1_f_2285_17359)">
<path d="M34.6893 24.5676C34.789 23.9232 34.1763 23.4146 33.6034 23.6662L22.1919 28.6765C21.781 28.8569 21.8111 29.4792 22.2372 29.6149L24.5905 30.3643C25.0397 30.5074 25.526 30.4334 25.9183 30.1624L31.224 26.4968C31.384 26.3863 31.5584 26.6138 31.4217 26.7547L27.6025 30.6923C27.232 31.0743 27.3056 31.7215 27.7512 32.001L32.0272 34.6824C32.5068 34.9832 33.1238 34.681 33.2135 34.1015L34.6893 24.5676Z" fill="white"/>
</g>
<circle cx="29.1" cy="29.201" r="11.2" fill="url(#paint1_linear_2285_17359)"/>
<path d="M34.6893 24.5676C34.789 23.9232 34.1763 23.4146 33.6034 23.6662L22.1919 28.6765C21.781 28.8569 21.8111 29.4792 22.2372 29.6149L24.5905 30.3643C25.0397 30.5074 25.526 30.4334 25.9183 30.1624L31.224 26.4968C31.384 26.3863 31.5584 26.6138 31.4217 26.7547L27.6025 30.6923C27.232 31.0743 27.3056 31.7215 27.7512 32.001L32.0272 34.6824C32.5068 34.9832 33.1238 34.681 33.2135 34.1015L34.6893 24.5676Z" fill="white"/>
<g filter="url(#filter2_f_2285_17359)">
<ellipse cx="29.5" cy="47.9998" rx="9.2" ry="5.2" fill="#1893D1"/>
</g>
</g>
<rect x="9.90002" y="10" width="38.4" height="38.4" rx="8" stroke="url(#paint2_linear_2285_17359)" stroke-opacity="0.5" stroke-width="0.64" shape-rendering="crispEdges"/>
</g>
<g style="mix-blend-mode:screen" filter="url(#filter3_f_2285_17359)">
<circle cx="23.5" cy="23.6004" r="7.2" fill="white" fill-opacity="0.18"/>
</g>
<defs>
<filter id="filter0_bdi_2285_17359" x="-6.41992" y="-6.32031" width="74.2399" height="71.04" filterUnits="userSpaceOnUse" color-interpolation-filters="sRGB">
<feFlood flood-opacity="0" result="BackgroundImageFix"/>
<feGaussianBlur in="BackgroundImageFix" stdDeviation="8"/>
<feComposite in2="SourceAlpha" operator="in" result="effect1_backgroundBlur_2285_17359"/>
<feColorMatrix in="SourceAlpha" type="matrix" values="0 0 0 0 0 0 0 0 0 0 0 0 0 0 0 0 0 0 127 0" result="hardAlpha"/>
<feOffset dx="6.4" dy="3.2"/>
<feGaussianBlur stdDeviation="6.4"/>
<feComposite in2="hardAlpha" operator="out"/>
<feColorMatrix type="matrix" values="0 0 0 0 0 0 0 0 0 0 0 0 0 0 0 0 0 0 0.08 0"/>
<feBlend mode="normal" in2="effect1_backgroundBlur_2285_17359" result="effect2_dropShadow_2285_17359"/>
<feBlend mode="normal" in="SourceGraphic" in2="effect2_dropShadow_2285_17359" result="shape"/>
<feColorMatrix in="SourceAlpha" type="matrix" values="0 0 0 0 0 0 0 0 0 0 0 0 0 0 0 0 0 0 127 0" result="hardAlpha"/>
<feOffset/>
<feGaussianBlur stdDeviation="3.2"/>
<feComposite in2="hardAlpha" operator="arithmetic" k2="-1" k3="1"/>
<feColorMatrix type="matrix" values="0 0 0 0 0.0509804 0 0 0 0 0.707059 0 0 0 0 0.988235 0 0 0 0.32 0"/>
<feBlend mode="normal" in2="shape" result="effect3_innerShadow_2285_17359"/>
</filter>
<filter id="filter1_f_2285_17359" x="6.70005" y="6.80039" width="44.8" height="44.7996" filterUnits="userSpaceOnUse" color-interpolation-filters="sRGB">
<feFlood flood-opacity="0" result="BackgroundImageFix"/>
<feBlend mode="normal" in="SourceGraphic" in2="BackgroundImageFix" result="shape"/>
<feGaussianBlur stdDeviation="4.8" result="effect1_foregroundBlur_2285_17359"/>
</filter>
<filter id="filter2_f_2285_17359" x="5.90005" y="28.3998" width="47.2" height="39.2004" filterUnits="userSpaceOnUse" color-interpolation-filters="sRGB">
<feFlood flood-opacity="0" result="BackgroundImageFix"/>
<feBlend mode="normal" in="SourceGraphic" in2="BackgroundImageFix" result="shape"/>
<feGaussianBlur stdDeviation="7.2" result="effect1_foregroundBlur_2285_17359"/>
</filter>
<filter id="filter3_f_2285_17359" x="0.300049" y="0.400391" width="46.4" height="46.4004" filterUnits="userSpaceOnUse" color-interpolation-filters="sRGB">
<feFlood flood-opacity="0" result="BackgroundImageFix"/>
<feBlend mode="normal" in="SourceGraphic" in2="BackgroundImageFix" result="shape"/>
<feGaussianBlur stdDeviation="8" result="effect1_foregroundBlur_2285_17359"/>
</filter>
<linearGradient id="paint0_linear_2285_17359" x1="9.90002" y1="10" x2="48.3" y2="48.4" gradientUnits="userSpaceOnUse">
<stop stop-color="#F8FBFF"/>
<stop offset="1" stop-color="white" stop-opacity="0"/>
</linearGradient>
<linearGradient id="paint1_linear_2285_17359" x1="29.1" y1="18.001" x2="29.1" y2="40.401" gradientUnits="userSpaceOnUse">
<stop stop-color="#37BBFE"/>
<stop offset="1" stop-color="#007DBB"/>
</linearGradient>
<linearGradient id="paint2_linear_2285_17359" x1="10.7" y1="9.2" x2="47.1" y2="48.4" gradientUnits="userSpaceOnUse">
<stop stop-color="#D8D8D8" stop-opacity="0.05"/>
<stop offset="1" stop-color="white" stop-opacity="0.4"/>
</linearGradient>
<clipPath id="clip0_2285_17359">
<rect x="9.90002" y="10" width="38.4" height="38.4" rx="8" fill="white"/>
</clipPath>
</defs>
</svg>
